<?xml version="1.0" encoding="UTF-8" standalone="no"?><svg xmlns="http://www.w3.org/2000/svg" xmlns:xlink="http://www.w3.org/1999/xlink" contentScriptType="application/ecmascript" contentStyleType="text/css" height="569px" preserveAspectRatio="none" style="width:309px;height:569px;background:#FFFFFF;" version="1.1" viewBox="0 0 309 569" width="309px" zoomAndPan="magnify"><defs/><g><rect fill="#FFDAB9" height="449.4873" style="stroke:#000000;stroke-width:1.0;" width="10" x="150" y="67.0474"/><rect fill="#FFDAB9" height="25" style="stroke:#000000;stroke-width:1.0;" width="10" x="155" y="103.9961"/><rect fill="#FFDAB9" height="53.9487" style="stroke:#000000;stroke-width:1.0;" width="10" x="155" y="201.8936"/><rect fill="#FFDAB9" height="53.9487" style="stroke:#000000;stroke-width:1.0;" width="10" x="155" y="299.791"/><rect fill="#FFDAB9" height="53.9487" style="stroke:#000000;stroke-width:1.0;" width="10" x="155" y="397.6885"/><rect fill="#FFDAB9" height="322.6411" style="stroke:#000000;stroke-width:1.0;" width="10" x="269" y="164.9448"/><line style="stroke:#000000;stroke-width:1.0;stroke-dasharray:5.0,5.0;" x1="36" x2="36" y1="36.0986" y2="534.5347"/><line style="stroke:#000000;stroke-width:1.0;stroke-dasharray:5.0,5.0;" x1="155" x2="155" y1="36.0986" y2="534.5347"/><line style="stroke:#000000;stroke-width:1.0;stroke-dasharray:5.0,5.0;" x1="274" x2="274" y1="36.0986" y2="534.5347"/><rect fill="#FEFECE" height="30.0986" style="stroke:#000000;stroke-width:1.5;" width="62" x="5" y="5"/><text fill="#000000" font-family="Arial" font-size="14" lengthAdjust="spacing" textLength="48" x="12" y="25.1318">Gordon</text><rect fill="#FEFECE" height="30.0986" style="stroke:#000000;stroke-width:1.5;" width="62" x="5" y="533.5347"/><text fill="#000000" font-family="Arial" font-size="14" lengthAdjust="spacing" textLength="48" x="12" y="553.6665">Gordon</text><rect fill="#FEFECE" height="30.0986" style="stroke:#000000;stroke-width:1.5;" width="56" x="127" y="5"/><text fill="#000000" font-family="Arial" font-size="14" lengthAdjust="spacing" textLength="42" x="134" y="25.1318">Parser</text><rect fill="#FEFECE" height="30.0986" style="stroke:#000000;stroke-width:1.5;" width="56" x="127" y="533.5347"/><text fill="#000000" font-family="Arial" font-size="14" lengthAdjust="spacing" textLength="42" x="134" y="553.6665">Parser</text><rect fill="#FEFECE" height="30.0986" style="stroke:#000000;stroke-width:1.5;" width="58" x="245" y="5"/><text fill="#000000" font-family="Arial" font-size="14" lengthAdjust="spacing" textLength="44" x="252" y="25.1318">Recipe</text><rect fill="#FEFECE" height="30.0986" style="stroke:#000000;stroke-width:1.5;" width="58" x="245" y="533.5347"/><text fill="#000000" font-family="Arial" font-size="14" lengthAdjust="spacing" textLength="44" x="252" y="553.6665">Recipe</text><rect fill="#FFDAB9" height="449.4873" style="stroke:#000000;stroke-width:1.0;" width="10" x="150" y="67.0474"/><rect fill="#FFDAB9" height="25" style="stroke:#000000;stroke-width:1.0;" width="10" x="155" y="103.9961"/><rect fill="#FFDAB9" height="53.9487" style="stroke:#000000;stroke-width:1.0;" width="10" x="155" y="201.8936"/><rect fill="#FFDAB9" height="53.9487" style="stroke:#000000;stroke-width:1.0;" width="10" x="155" y="299.791"/><rect fill="#FFDAB9" height="53.9487" style="stroke:#000000;stroke-width:1.0;" width="10" x="155" y="397.6885"/><rect fill="#FFDAB9" height="322.6411" style="stroke:#000000;stroke-width:1.0;" width="10" x="269" y="164.9448"/><polygon fill="#000000" points="138,63.0474,148,67.0474,138,71.0474,142,67.0474" style="stroke:#000000;stroke-width:1.0;"/><line style="stroke:#000000;stroke-width:2.0;" x1="36" x2="144" y1="67.0474" y2="67.0474"/><text fill="#000000" font-family="Arial" font-size="13" lengthAdjust="spacing" textLength="95" x="43" y="62.2925">addRecipeParse</text><line style="stroke:#000000;stroke-width:2.0;" x1="160" x2="207" y1="90.9961" y2="90.9961"/><line style="stroke:#000000;stroke-width:2.0;" x1="207" x2="207" y1="90.9961" y2="103.9961"/><line style="stroke:#000000;stroke-width:2.0;" x1="166" x2="207" y1="103.9961" y2="103.9961"/><polygon fill="#000000" points="176,99.9961,166,103.9961,176,107.9961,172,103.9961" style="stroke:#000000;stroke-width:1.0;"/><text fill="#000000" font-family="Arial" font-size="13" lengthAdjust="spacing" textLength="66" x="172" y="86.2412">parseName</text><line style="stroke:#000000;stroke-width:2.0;stroke-dasharray:2.0,2.0;" x1="165" x2="207" y1="127.9961" y2="127.9961"/><line style="stroke:#000000;stroke-width:2.0;stroke-dasharray:2.0,2.0;" x1="207" x2="207" y1="127.9961" y2="140.9961"/><line style="stroke:#000000;stroke-width:2.0;stroke-dasharray:2.0,2.0;" x1="160" x2="207" y1="140.9961" y2="140.9961"/><polygon fill="#000000" points="170,136.9961,160,140.9961,170,144.9961,166,140.9961" style="stroke:#000000;stroke-width:1.0;"/><polygon fill="#000000" points="257,160.9448,267,164.9448,257,168.9448,261,164.9448" style="stroke:#000000;stroke-width:1.0;"/><line style="stroke:#000000;stroke-width:2.0;" x1="160" x2="263" y1="164.9448" y2="164.9448"/><text fill="#000000" font-family="Arial" font-size="13" lengthAdjust="spacing" textLength="68" x="167" y="160.1899">&lt;&lt;create&gt;&gt;</text><line style="stroke:#000000;stroke-width:2.0;" x1="160" x2="207" y1="188.8936" y2="188.8936"/><line style="stroke:#000000;stroke-width:2.0;" x1="207" x2="207" y1="188.8936" y2="201.8936"/><line style="stroke:#000000;stroke-width:2.0;" x1="166" x2="207" y1="201.8936" y2="201.8936"/><polygon fill="#000000" points="176,197.8936,166,201.8936,176,205.8936,172,201.8936" style="stroke:#000000;stroke-width:1.0;"/><text fill="#000000" font-family="Arial" font-size="13" lengthAdjust="spacing" textLength="95" x="172" y="184.1387">parseIngredients</text><polygon fill="#000000" points="257,231.8423,267,235.8423,257,239.8423,261,235.8423" style="stroke:#000000;stroke-width:1.0;"/><line style="stroke:#000000;stroke-width:2.0;" x1="165" x2="263" y1="235.8423" y2="235.8423"/><text fill="#000000" font-family="Arial" font-size="13" lengthAdjust="spacing" textLength="77" x="172" y="231.0874">addIngredient</text><line style="stroke:#000000;stroke-width:2.0;stroke-dasharray:2.0,2.0;" x1="165" x2="207" y1="254.8423" y2="254.8423"/><line style="stroke:#000000;stroke-width:2.0;stroke-dasharray:2.0,2.0;" x1="207" x2="207" y1="254.8423" y2="267.8423"/><line style="stroke:#000000;stroke-width:2.0;stroke-dasharray:2.0,2.0;" x1="160" x2="207" y1="267.8423" y2="267.8423"/><polygon fill="#000000" points="170,263.8423,160,267.8423,170,271.8423,166,267.8423" style="stroke:#000000;stroke-width:1.0;"/><line style="stroke:#000000;stroke-width:2.0;" x1="160" x2="207" y1="286.791" y2="286.791"/><line style="stroke:#000000;stroke-width:2.0;" x1="207" x2="207" y1="286.791" y2="299.791"/><line style="stroke:#000000;stroke-width:2.0;" x1="166" x2="207" y1="299.791" y2="299.791"/><polygon fill="#000000" points="176,295.791,166,299.791,176,303.791,172,299.791" style="stroke:#000000;stroke-width:1.0;"/><text fill="#000000" font-family="Arial" font-size="13" lengthAdjust="spacing" textLength="66" x="172" y="282.0361">parseSteps</text><polygon fill="#000000" points="257,329.7397,267,333.7397,257,337.7397,261,333.7397" style="stroke:#000000;stroke-width:1.0;"/><line style="stroke:#000000;stroke-width:2.0;" x1="165" x2="263" y1="333.7397" y2="333.7397"/><text fill="#000000" font-family="Arial" font-size="13" lengthAdjust="spacing" textLength="55" x="172" y="328.9849">addSteps</text><line style="stroke:#000000;stroke-width:2.0;stroke-dasharray:2.0,2.0;" x1="165" x2="207" y1="352.7397" y2="352.7397"/><line style="stroke:#000000;stroke-width:2.0;stroke-dasharray:2.0,2.0;" x1="207" x2="207" y1="352.7397" y2="365.7397"/><line style="stroke:#000000;stroke-width:2.0;stroke-dasharray:2.0,2.0;" x1="160" x2="207" y1="365.7397" y2="365.7397"/><polygon fill="#000000" points="170,361.7397,160,365.7397,170,369.7397,166,365.7397" style="stroke:#000000;stroke-width:1.0;"/><line style="stroke:#000000;stroke-width:2.0;" x1="160" x2="207" y1="384.6885" y2="384.6885"/><line style="stroke:#000000;stroke-width:2.0;" x1="207" x2="207" y1="384.6885" y2="397.6885"/><line style="stroke:#000000;stroke-width:2.0;" x1="166" x2="207" y1="397.6885" y2="397.6885"/><polygon fill="#000000" points="176,393.6885,166,397.6885,176,401.6885,172,397.6885" style="stroke:#000000;stroke-width:1.0;"/><text fill="#000000" font-family="Arial" font-size="13" lengthAdjust="spacing" textLength="79" x="172" y="379.9336">parseCalories</text><polygon fill="#000000" points="257,427.6372,267,431.6372,257,435.6372,261,431.6372" style="stroke:#000000;stroke-width:1.0;"/><line style="stroke:#000000;stroke-width:2.0;" x1="165" x2="263" y1="431.6372" y2="431.6372"/><text fill="#000000" font-family="Arial" font-size="13" lengthAdjust="spacing" textLength="68" x="172" y="426.8823">addCalories</text><line style="stroke:#000000;stroke-width:2.0;stroke-dasharray:2.0,2.0;" x1="165" x2="207" y1="450.6372" y2="450.6372"/><line style="stroke:#000000;stroke-width:2.0;stroke-dasharray:2.0,2.0;" x1="207" x2="207" y1="450.6372" y2="463.6372"/><line style="stroke:#000000;stroke-width:2.0;stroke-dasharray:2.0,2.0;" x1="160" x2="207" y1="463.6372" y2="463.6372"/><polygon fill="#000000" points="170,459.6372,160,463.6372,170,467.6372,166,463.6372" style="stroke:#000000;stroke-width:1.0;"/><polygon fill="#000000" points="171,483.5859,161,487.5859,171,491.5859,167,487.5859" style="stroke:#000000;stroke-width:1.0;"/><line style="stroke:#000000;stroke-width:2.0;stroke-dasharray:2.0,2.0;" x1="165" x2="273" y1="487.5859" y2="487.5859"/><text fill="#000000" font-family="Arial" font-size="13" lengthAdjust="spacing" textLength="4" x="177" y="482.8311">r</text><polygon fill="#000000" points="47,512.5347,37,516.5347,47,520.5347,43,516.5347" style="stroke:#000000;stroke-width:1.0;"/><line style="stroke:#000000;stroke-width:2.0;stroke-dasharray:2.0,2.0;" x1="41" x2="154" y1="516.5347" y2="516.5347"/><text fill="#000000" font-family="Arial" font-size="13" lengthAdjust="spacing" textLength="80" x="53" y="511.7798">addCommand</text><!--MD5=[99c96acbac84832aed2c8543b51f641c]
@startuml
!include Style.puml
skinparam sequence {
ParticipantBorderColor black
LifeLineBorderColor black
LifeLineBackgroundColor peachpuff
}

skinparam sequenceArrowColor black

Gordon -> Parser: addRecipeParse
activate Parser

' Name
Parser -> Parser: parseName
activate Parser

Parser - -> Parser
deactivate Parser

Parser -> Recipe: <<create>>
activate Recipe

' Ingredients
Parser -> Parser: parseIngredients
activate Parser
Parser -> Recipe: addIngredient

Parser - -> Parser
deactivate Parser

' Steps
Parser -> Parser: parseSteps
activate Parser
Parser -> Recipe: addSteps

Parser - -> Parser
deactivate Parser

' Calories
Parser -> Parser: parseCalories
activate Parser

Parser -> Recipe: addCalories

Parser - -> Parser
deactivate Parser

Recipe - -> Parser: r
deactivate Recipe

Parser - -> Gordon: addCommand
deactivate Parser
@enduml

@startuml



skinparam backgroundColor white
skinparam defaultFontName Arial
skinparam shadowing false
skinparam arrowThickness 2
skinparam sequence {
ParticipantBorderColor black
LifeLineBorderColor black
LifeLineBackgroundColor peachpuff
}

skinparam sequenceArrowColor black

Gordon -> Parser: addRecipeParse
activate Parser

Parser -> Parser: parseName
activate Parser

Parser - -> Parser
deactivate Parser

Parser -> Recipe: <<create>>
activate Recipe

Parser -> Parser: parseIngredients
activate Parser
Parser -> Recipe: addIngredient

Parser - -> Parser
deactivate Parser

Parser -> Parser: parseSteps
activate Parser
Parser -> Recipe: addSteps

Parser - -> Parser
deactivate Parser

Parser -> Parser: parseCalories
activate Parser

Parser -> Recipe: addCalories

Parser - -> Parser
deactivate Parser

Recipe - -> Parser: r
deactivate Recipe

Parser - -> Gordon: addCommand
deactivate Parser
@enduml

PlantUML version 1.2021.11(Sat Oct 02 21:26:11 SGT 2021)
(GPL source distribution)
Java Runtime: OpenJDK Runtime Environment
JVM: OpenJDK 64-Bit Server VM
Default Encoding: Cp1252
Language: en
Country: US
--></g></svg>