<?xml version="1.0" encoding="UTF-8" standalone="no"?><svg xmlns="http://www.w3.org/2000/svg" xmlns:xlink="http://www.w3.org/1999/xlink" contentScriptType="application/ecmascript" contentStyleType="text/css" height="489px" preserveAspectRatio="none" style="width:416px;height:489px;background:#FFFFFF;" version="1.1" viewBox="0 0 416 489" width="416px" zoomAndPan="magnify"><defs/><g><rect fill="#FFDAB9" height="369.5898" style="stroke:#000000;stroke-width:1.0;" width="10" x="122" y="67.0474"/><rect fill="#FFDAB9" height="25" style="stroke:#000000;stroke-width:1.0;" width="10" x="127" y="103.9961"/><rect fill="#FFDAB9" height="84.8975" style="stroke:#000000;stroke-width:1.0;" width="10" x="127" y="201.8936"/><rect fill="#FFDAB9" height="84.8975" style="stroke:#000000;stroke-width:1.0;" width="10" x="127" y="330.7397"/><rect fill="#FFDAB9" height="271.6924" style="stroke:#000000;stroke-width:1.0;" width="10" x="364" y="164.9448"/><rect fill="#FFFFFF" height="45.8975" style="stroke:#000000;stroke-width:2.0;" width="323" x="87" y="221.8936"/><rect fill="#FFFFFF" height="45.8975" style="stroke:#000000;stroke-width:2.0;" width="323" x="87" y="350.7397"/><line style="stroke:#000000;stroke-width:1.0;stroke-dasharray:5.0,5.0;" x1="127" x2="127" y1="36.0986" y2="454.6372"/><line style="stroke:#000000;stroke-width:1.0;stroke-dasharray:5.0,5.0;" x1="369" x2="369" y1="36.0986" y2="454.6372"/><rect fill="#FEFECE" height="30.0986" style="stroke:#000000;stroke-width:1.5;" width="60" x="97" y="5"/><text fill="#000000" font-family="Arial" font-size="14" lengthAdjust="spacing" textLength="46" x="104" y="25.1318">:Parser</text><rect fill="#FEFECE" height="30.0986" style="stroke:#000000;stroke-width:1.5;" width="60" x="97" y="453.6372"/><text fill="#000000" font-family="Arial" font-size="14" lengthAdjust="spacing" textLength="46" x="104" y="473.769">:Parser</text><rect fill="#FEFECE" height="30.0986" style="stroke:#000000;stroke-width:1.5;" width="62" x="338" y="5"/><text fill="#000000" font-family="Arial" font-size="14" lengthAdjust="spacing" textLength="48" x="345" y="25.1318">:Recipe</text><rect fill="#FEFECE" height="30.0986" style="stroke:#000000;stroke-width:1.5;" width="62" x="338" y="453.6372"/><text fill="#000000" font-family="Arial" font-size="14" lengthAdjust="spacing" textLength="48" x="345" y="473.769">:Recipe</text><rect fill="#FFDAB9" height="369.5898" style="stroke:#000000;stroke-width:1.0;" width="10" x="122" y="67.0474"/><rect fill="#FFDAB9" height="25" style="stroke:#000000;stroke-width:1.0;" width="10" x="127" y="103.9961"/><rect fill="#FFDAB9" height="84.8975" style="stroke:#000000;stroke-width:1.0;" width="10" x="127" y="201.8936"/><rect fill="#FFDAB9" height="84.8975" style="stroke:#000000;stroke-width:1.0;" width="10" x="127" y="330.7397"/><rect fill="#FFDAB9" height="271.6924" style="stroke:#000000;stroke-width:1.0;" width="10" x="364" y="164.9448"/><polygon fill="#000000" points="110,63.0474,120,67.0474,110,71.0474,114,67.0474" style="stroke:#000000;stroke-width:1.0;"/><line style="stroke:#000000;stroke-width:2.0;stroke-dasharray:2.0,2.0;" x1="0" x2="116" y1="67.0474" y2="67.0474"/><text fill="#000000" font-family="Arial" font-size="13" lengthAdjust="spacing" textLength="103" x="7" y="62.2925">addRecipeParse()</text><line style="stroke:#000000;stroke-width:2.0;" x1="132" x2="179" y1="90.9961" y2="90.9961"/><line style="stroke:#000000;stroke-width:2.0;" x1="179" x2="179" y1="90.9961" y2="103.9961"/><line style="stroke:#000000;stroke-width:2.0;" x1="138" x2="179" y1="103.9961" y2="103.9961"/><polygon fill="#000000" points="148,99.9961,138,103.9961,148,107.9961,144,103.9961" style="stroke:#000000;stroke-width:1.0;"/><text fill="#000000" font-family="Arial" font-size="13" lengthAdjust="spacing" textLength="132" x="144" y="86.2412">parseName(String line)</text><line style="stroke:#000000;stroke-width:2.0;stroke-dasharray:2.0,2.0;" x1="137" x2="179" y1="127.9961" y2="127.9961"/><line style="stroke:#000000;stroke-width:2.0;stroke-dasharray:2.0,2.0;" x1="179" x2="179" y1="127.9961" y2="140.9961"/><line style="stroke:#000000;stroke-width:2.0;stroke-dasharray:2.0,2.0;" x1="132" x2="179" y1="140.9961" y2="140.9961"/><polygon fill="#000000" points="142,136.9961,132,140.9961,142,144.9961,138,140.9961" style="stroke:#000000;stroke-width:1.0;"/><polygon fill="#000000" points="352,160.9448,362,164.9448,352,168.9448,356,164.9448" style="stroke:#000000;stroke-width:1.0;"/><line style="stroke:#000000;stroke-width:2.0;" x1="132" x2="358" y1="164.9448" y2="164.9448"/><text fill="#000000" font-family="Arial" font-size="13" lengthAdjust="spacing" textLength="118" x="139" y="160.1899">Recipe(String name)</text><line style="stroke:#000000;stroke-width:2.0;" x1="132" x2="179" y1="188.8936" y2="188.8936"/><line style="stroke:#000000;stroke-width:2.0;" x1="179" x2="179" y1="188.8936" y2="201.8936"/><line style="stroke:#000000;stroke-width:2.0;" x1="138" x2="179" y1="201.8936" y2="201.8936"/><polygon fill="#000000" points="148,197.8936,138,201.8936,148,205.8936,144,201.8936" style="stroke:#000000;stroke-width:1.0;"/><text fill="#000000" font-family="Arial" font-size="13" lengthAdjust="spacing" textLength="218" x="144" y="184.1387">parseIngredients(String line, Recipe r)</text><path d="M87,221.8936 L160,221.8936 L160,227.8936 L150,237.8936 L87,237.8936 L87,221.8936 " fill="#EEEEEE" style="stroke:#000000;stroke-width:1.0;"/><rect fill="none" height="45.8975" style="stroke:#000000;stroke-width:2.0;" width="323" x="87" y="221.8936"/><text fill="#000000" font-family="Arial" font-size="13" font-weight="bold" lengthAdjust="spacing" textLength="28" x="102" y="235.0874">loop</text><text fill="#000000" font-family="Arial" font-size="11" font-weight="bold" lengthAdjust="spacing" textLength="101" x="175" y="234.2114">[for all ingredients]</text><polygon fill="#000000" points="352,255.791,362,259.791,352,263.791,356,259.791" style="stroke:#000000;stroke-width:1.0;"/><line style="stroke:#000000;stroke-width:2.0;" x1="137" x2="358" y1="259.791" y2="259.791"/><text fill="#000000" font-family="Arial" font-size="13" lengthAdjust="spacing" textLength="180" x="144" y="255.0361">addIngredient(String ingredient)</text><line style="stroke:#000000;stroke-width:2.0;stroke-dasharray:2.0,2.0;" x1="137" x2="179" y1="285.791" y2="285.791"/><line style="stroke:#000000;stroke-width:2.0;stroke-dasharray:2.0,2.0;" x1="179" x2="179" y1="285.791" y2="298.791"/><line style="stroke:#000000;stroke-width:2.0;stroke-dasharray:2.0,2.0;" x1="132" x2="179" y1="298.791" y2="298.791"/><polygon fill="#000000" points="142,294.791,132,298.791,142,302.791,138,298.791" style="stroke:#000000;stroke-width:1.0;"/><line style="stroke:#000000;stroke-width:2.0;" x1="132" x2="179" y1="317.7397" y2="317.7397"/><line style="stroke:#000000;stroke-width:2.0;" x1="179" x2="179" y1="317.7397" y2="330.7397"/><line style="stroke:#000000;stroke-width:2.0;" x1="138" x2="179" y1="330.7397" y2="330.7397"/><polygon fill="#000000" points="148,326.7397,138,330.7397,148,334.7397,144,330.7397" style="stroke:#000000;stroke-width:1.0;"/><text fill="#000000" font-family="Arial" font-size="13" lengthAdjust="spacing" textLength="188" x="144" y="312.9849">parseSteps(String line, Recipe r)</text><path d="M87,350.7397 L160,350.7397 L160,356.7397 L150,366.7397 L87,366.7397 L87,350.7397 " fill="#EEEEEE" style="stroke:#000000;stroke-width:1.0;"/><rect fill="none" height="45.8975" style="stroke:#000000;stroke-width:2.0;" width="323" x="87" y="350.7397"/><text fill="#000000" font-family="Arial" font-size="13" font-weight="bold" lengthAdjust="spacing" textLength="28" x="102" y="363.9336">loop</text><text fill="#000000" font-family="Arial" font-size="11" font-weight="bold" lengthAdjust="spacing" textLength="70" x="175" y="363.0576">[for all steps]</text><polygon fill="#000000" points="352,384.6372,362,388.6372,352,392.6372,356,388.6372" style="stroke:#000000;stroke-width:1.0;"/><line style="stroke:#000000;stroke-width:2.0;" x1="137" x2="358" y1="388.6372" y2="388.6372"/><text fill="#000000" font-family="Arial" font-size="13" lengthAdjust="spacing" textLength="119" x="144" y="383.8823">addStep(String step)</text><line style="stroke:#000000;stroke-width:2.0;stroke-dasharray:2.0,2.0;" x1="137" x2="179" y1="414.6372" y2="414.6372"/><line style="stroke:#000000;stroke-width:2.0;stroke-dasharray:2.0,2.0;" x1="179" x2="179" y1="414.6372" y2="427.6372"/><line style="stroke:#000000;stroke-width:2.0;stroke-dasharray:2.0,2.0;" x1="132" x2="179" y1="427.6372" y2="427.6372"/><polygon fill="#000000" points="142,423.6372,132,427.6372,142,431.6372,138,427.6372" style="stroke:#000000;stroke-width:1.0;"/><polygon fill="#000000" points="138,432.6372,128,436.6372,138,440.6372,134,436.6372" style="stroke:#000000;stroke-width:1.0;"/><line style="stroke:#000000;stroke-width:2.0;stroke-dasharray:2.0,2.0;" x1="132" x2="368" y1="436.6372" y2="436.6372"/><line style="stroke:#000000;stroke-width:2.0;" x1="360" x2="378" y1="427.6372" y2="445.6372"/><line style="stroke:#000000;stroke-width:2.0;" x1="360" x2="378" y1="445.6372" y2="427.6372"/><line style="stroke:#000000;stroke-width:2.0;" x1="118" x2="136" y1="427.6372" y2="445.6372"/><line style="stroke:#000000;stroke-width:2.0;" x1="118" x2="136" y1="445.6372" y2="427.6372"/><!--MD5=[01c558a2b7c339ea29ffef44f0765f9c]
@startuml
!include Style.puml
skinparam sequence {
ParticipantBorderColor black
LifeLineBorderColor black
LifeLineBackgroundColor peachpuff
}

skinparam sequenceArrowColor black

- -> ":Parser": addRecipeParse()
activate ":Parser"

' Name
":Parser" -> ":Parser": parseName(String line)
activate ":Parser"

":Parser" - -> ":Parser"
deactivate ":Parser"

":Parser" -> ":Recipe": Recipe(String name)
activate ":Recipe"


' Ingredients
":Parser" -> ":Parser": parseIngredients(String line, Recipe r)
activate ":Parser"

loop for all ingredients
":Parser" -> ":Recipe": addIngredient(String ingredient)
end

":Parser" - -> ":Parser"
deactivate ":Parser"


":Parser" -> ":Parser": parseSteps(String line, Recipe r)
activate ":Parser"

loop for all steps
":Parser" -> ":Recipe": addStep(String step)


end

":Parser" - -> ":Parser"
deactivate ":Parser"

":Recipe" - -> ":Parser":
destroy ":Recipe"


destroy ":Parser"

@enduml

@startuml






hide circle
skinparam backgroundColor white
skinparam defaultFontName Arial
skinparam shadowing false
skinparam arrowThickness 2
skinparam classAttributeIconSize 0
skinparam sequence {
ParticipantBorderColor black
LifeLineBorderColor black
LifeLineBackgroundColor peachpuff
}

skinparam sequenceArrowColor black

- -> ":Parser": addRecipeParse()
activate ":Parser"

":Parser" -> ":Parser": parseName(String line)
activate ":Parser"

":Parser" - -> ":Parser"
deactivate ":Parser"

":Parser" -> ":Recipe": Recipe(String name)
activate ":Recipe"


":Parser" -> ":Parser": parseIngredients(String line, Recipe r)
activate ":Parser"

loop for all ingredients
":Parser" -> ":Recipe": addIngredient(String ingredient)
end

":Parser" - -> ":Parser"
deactivate ":Parser"


":Parser" -> ":Parser": parseSteps(String line, Recipe r)
activate ":Parser"

loop for all steps
":Parser" -> ":Recipe": addStep(String step)


end

":Parser" - -> ":Parser"
deactivate ":Parser"

":Recipe" - -> ":Parser":
destroy ":Recipe"


destroy ":Parser"

@enduml

PlantUML version 1.2021.11(Sat Oct 02 21:26:11 SGT 2021)
(GPL source distribution)
Java Runtime: OpenJDK Runtime Environment
JVM: OpenJDK 64-Bit Server VM
Default Encoding: UTF-8
Language: en
Country: GB
--></g></svg>