<?xml version="1.0" encoding="UTF-8" standalone="no"?><svg xmlns="http://www.w3.org/2000/svg" xmlns:xlink="http://www.w3.org/1999/xlink" contentScriptType="application/ecmascript" contentStyleType="text/css" height="533px" preserveAspectRatio="none" style="width:322px;height:533px;background:#FFFFFF;" version="1.1" viewBox="0 0 322 533" width="322px" zoomAndPan="magnify"><defs/><g><rect fill="#FFDAB9" height="413.4873" style="stroke:#000000;stroke-width:1.0;" width="10" x="150" y="67.0474"/><rect fill="#FFDAB9" height="25" style="stroke:#000000;stroke-width:1.0;" width="10" x="155" y="103.9961"/><rect fill="#FFDAB9" height="84.8975" style="stroke:#000000;stroke-width:1.0;" width="10" x="155" y="201.8936"/><rect fill="#FFDAB9" height="84.8975" style="stroke:#000000;stroke-width:1.0;" width="10" x="155" y="330.7397"/><rect fill="#FFDAB9" height="286.6411" style="stroke:#000000;stroke-width:1.0;" width="10" x="269" y="164.9448"/><rect fill="#FFFFFF" height="45.8975" style="stroke:#000000;stroke-width:2.0;" width="199" x="117" y="221.8936"/><rect fill="#FFFFFF" height="45.8975" style="stroke:#000000;stroke-width:2.0;" width="196" x="117" y="350.7397"/><line style="stroke:#000000;stroke-width:1.0;stroke-dasharray:5.0,5.0;" x1="36" x2="36" y1="36.0986" y2="498.5347"/><line style="stroke:#000000;stroke-width:1.0;stroke-dasharray:5.0,5.0;" x1="155" x2="155" y1="36.0986" y2="498.5347"/><line style="stroke:#000000;stroke-width:1.0;stroke-dasharray:5.0,5.0;" x1="274" x2="274" y1="36.0986" y2="498.5347"/><rect fill="#FEFECE" height="30.0986" style="stroke:#000000;stroke-width:1.5;" width="62" x="5" y="5"/><text fill="#000000" font-family="Arial" font-size="14" lengthAdjust="spacing" textLength="48" x="12" y="25.1318">Gordon</text><rect fill="#FEFECE" height="30.0986" style="stroke:#000000;stroke-width:1.5;" width="62" x="5" y="497.5347"/><text fill="#000000" font-family="Arial" font-size="14" lengthAdjust="spacing" textLength="48" x="12" y="517.6665">Gordon</text><rect fill="#FEFECE" height="30.0986" style="stroke:#000000;stroke-width:1.5;" width="56" x="127" y="5"/><text fill="#000000" font-family="Arial" font-size="14" lengthAdjust="spacing" textLength="42" x="134" y="25.1318">Parser</text><rect fill="#FEFECE" height="30.0986" style="stroke:#000000;stroke-width:1.5;" width="56" x="127" y="497.5347"/><text fill="#000000" font-family="Arial" font-size="14" lengthAdjust="spacing" textLength="42" x="134" y="517.6665">Parser</text><rect fill="#FEFECE" height="30.0986" style="stroke:#000000;stroke-width:1.5;" width="58" x="245" y="5"/><text fill="#000000" font-family="Arial" font-size="14" lengthAdjust="spacing" textLength="44" x="252" y="25.1318">Recipe</text><rect fill="#FEFECE" height="30.0986" style="stroke:#000000;stroke-width:1.5;" width="58" x="245" y="497.5347"/><text fill="#000000" font-family="Arial" font-size="14" lengthAdjust="spacing" textLength="44" x="252" y="517.6665">Recipe</text><rect fill="#FFDAB9" height="413.4873" style="stroke:#000000;stroke-width:1.0;" width="10" x="150" y="67.0474"/><rect fill="#FFDAB9" height="25" style="stroke:#000000;stroke-width:1.0;" width="10" x="155" y="103.9961"/><rect fill="#FFDAB9" height="84.8975" style="stroke:#000000;stroke-width:1.0;" width="10" x="155" y="201.8936"/><rect fill="#FFDAB9" height="84.8975" style="stroke:#000000;stroke-width:1.0;" width="10" x="155" y="330.7397"/><rect fill="#FFDAB9" height="286.6411" style="stroke:#000000;stroke-width:1.0;" width="10" x="269" y="164.9448"/><polygon fill="#000000" points="138,63.0474,148,67.0474,138,71.0474,142,67.0474" style="stroke:#000000;stroke-width:1.0;"/><line style="stroke:#000000;stroke-width:2.0;" x1="36" x2="144" y1="67.0474" y2="67.0474"/><text fill="#000000" font-family="Arial" font-size="13" lengthAdjust="spacing" textLength="95" x="43" y="62.2925">addRecipeParse</text><line style="stroke:#000000;stroke-width:2.0;" x1="160" x2="207" y1="90.9961" y2="90.9961"/><line style="stroke:#000000;stroke-width:2.0;" x1="207" x2="207" y1="90.9961" y2="103.9961"/><line style="stroke:#000000;stroke-width:2.0;" x1="166" x2="207" y1="103.9961" y2="103.9961"/><polygon fill="#000000" points="176,99.9961,166,103.9961,176,107.9961,172,103.9961" style="stroke:#000000;stroke-width:1.0;"/><text fill="#000000" font-family="Arial" font-size="13" lengthAdjust="spacing" textLength="66" x="172" y="86.2412">parseName</text><line style="stroke:#000000;stroke-width:2.0;stroke-dasharray:2.0,2.0;" x1="165" x2="207" y1="127.9961" y2="127.9961"/><line style="stroke:#000000;stroke-width:2.0;stroke-dasharray:2.0,2.0;" x1="207" x2="207" y1="127.9961" y2="140.9961"/><line style="stroke:#000000;stroke-width:2.0;stroke-dasharray:2.0,2.0;" x1="160" x2="207" y1="140.9961" y2="140.9961"/><polygon fill="#000000" points="170,136.9961,160,140.9961,170,144.9961,166,140.9961" style="stroke:#000000;stroke-width:1.0;"/><polygon fill="#000000" points="257,160.9448,267,164.9448,257,168.9448,261,164.9448" style="stroke:#000000;stroke-width:1.0;"/><line style="stroke:#000000;stroke-width:2.0;" x1="160" x2="263" y1="164.9448" y2="164.9448"/><text fill="#000000" font-family="Arial" font-size="13" lengthAdjust="spacing" textLength="68" x="167" y="160.1899">&lt;&lt;create&gt;&gt;</text><line style="stroke:#000000;stroke-width:2.0;" x1="160" x2="207" y1="188.8936" y2="188.8936"/><line style="stroke:#000000;stroke-width:2.0;" x1="207" x2="207" y1="188.8936" y2="201.8936"/><line style="stroke:#000000;stroke-width:2.0;" x1="166" x2="207" y1="201.8936" y2="201.8936"/><polygon fill="#000000" points="176,197.8936,166,201.8936,176,205.8936,172,201.8936" style="stroke:#000000;stroke-width:1.0;"/><text fill="#000000" font-family="Arial" font-size="13" lengthAdjust="spacing" textLength="95" x="172" y="184.1387">parseIngredients</text><path d="M117,221.8936 L190,221.8936 L190,227.8936 L180,237.8936 L117,237.8936 L117,221.8936 " fill="#EEEEEE" style="stroke:#000000;stroke-width:1.0;"/><rect fill="none" height="45.8975" style="stroke:#000000;stroke-width:2.0;" width="199" x="117" y="221.8936"/><text fill="#000000" font-family="Arial" font-size="13" font-weight="bold" lengthAdjust="spacing" textLength="28" x="132" y="235.0874">loop</text><text fill="#000000" font-family="Arial" font-size="11" font-weight="bold" lengthAdjust="spacing" textLength="106" x="205" y="234.2114">[for all ingredients]</text><polygon fill="#000000" points="257,255.791,267,259.791,257,263.791,261,259.791" style="stroke:#000000;stroke-width:1.0;"/><line style="stroke:#000000;stroke-width:2.0;" x1="165" x2="263" y1="259.791" y2="259.791"/><text fill="#000000" font-family="Arial" font-size="13" lengthAdjust="spacing" textLength="77" x="172" y="255.0361">addIngredient</text><line style="stroke:#000000;stroke-width:2.0;stroke-dasharray:2.0,2.0;" x1="165" x2="207" y1="285.791" y2="285.791"/><line style="stroke:#000000;stroke-width:2.0;stroke-dasharray:2.0,2.0;" x1="207" x2="207" y1="285.791" y2="298.791"/><line style="stroke:#000000;stroke-width:2.0;stroke-dasharray:2.0,2.0;" x1="160" x2="207" y1="298.791" y2="298.791"/><polygon fill="#000000" points="170,294.791,160,298.791,170,302.791,166,298.791" style="stroke:#000000;stroke-width:1.0;"/><line style="stroke:#000000;stroke-width:2.0;" x1="160" x2="207" y1="317.7397" y2="317.7397"/><line style="stroke:#000000;stroke-width:2.0;" x1="207" x2="207" y1="317.7397" y2="330.7397"/><line style="stroke:#000000;stroke-width:2.0;" x1="166" x2="207" y1="330.7397" y2="330.7397"/><polygon fill="#000000" points="176,326.7397,166,330.7397,176,334.7397,172,330.7397" style="stroke:#000000;stroke-width:1.0;"/><text fill="#000000" font-family="Arial" font-size="13" lengthAdjust="spacing" textLength="66" x="172" y="312.9849">parseSteps</text><path d="M117,350.7397 L190,350.7397 L190,356.7397 L180,366.7397 L117,366.7397 L117,350.7397 " fill="#EEEEEE" style="stroke:#000000;stroke-width:1.0;"/><rect fill="none" height="45.8975" style="stroke:#000000;stroke-width:2.0;" width="196" x="117" y="350.7397"/><text fill="#000000" font-family="Arial" font-size="13" font-weight="bold" lengthAdjust="spacing" textLength="28" x="132" y="363.9336">loop</text><text fill="#000000" font-family="Arial" font-size="11" font-weight="bold" lengthAdjust="spacing" textLength="74" x="205" y="363.0576">[for all steps]</text><polygon fill="#000000" points="257,384.6372,267,388.6372,257,392.6372,261,388.6372" style="stroke:#000000;stroke-width:1.0;"/><line style="stroke:#000000;stroke-width:2.0;" x1="165" x2="263" y1="388.6372" y2="388.6372"/><text fill="#000000" font-family="Arial" font-size="13" lengthAdjust="spacing" textLength="55" x="172" y="383.8823">addSteps</text><line style="stroke:#000000;stroke-width:2.0;stroke-dasharray:2.0,2.0;" x1="165" x2="207" y1="414.6372" y2="414.6372"/><line style="stroke:#000000;stroke-width:2.0;stroke-dasharray:2.0,2.0;" x1="207" x2="207" y1="414.6372" y2="427.6372"/><line style="stroke:#000000;stroke-width:2.0;stroke-dasharray:2.0,2.0;" x1="160" x2="207" y1="427.6372" y2="427.6372"/><polygon fill="#000000" points="170,423.6372,160,427.6372,170,431.6372,166,427.6372" style="stroke:#000000;stroke-width:1.0;"/><polygon fill="#000000" points="171,447.5859,161,451.5859,171,455.5859,167,451.5859" style="stroke:#000000;stroke-width:1.0;"/><line style="stroke:#000000;stroke-width:2.0;stroke-dasharray:2.0,2.0;" x1="165" x2="273" y1="451.5859" y2="451.5859"/><text fill="#000000" font-family="Arial" font-size="13" lengthAdjust="spacing" textLength="4" x="177" y="446.8311">r</text><polygon fill="#000000" points="47,476.5347,37,480.5347,47,484.5347,43,480.5347" style="stroke:#000000;stroke-width:1.0;"/><line style="stroke:#000000;stroke-width:2.0;stroke-dasharray:2.0,2.0;" x1="41" x2="154" y1="480.5347" y2="480.5347"/><text fill="#000000" font-family="Arial" font-size="13" lengthAdjust="spacing" textLength="80" x="53" y="475.7798">addCommand</text><!--MD5=[738f502d2cc6dffb2b8cd2885b4872c7]
@startuml
!include Style.puml
skinparam sequence {
ParticipantBorderColor black
LifeLineBorderColor black
LifeLineBackgroundColor peachpuff
}

skinparam sequenceArrowColor black

Gordon -> Parser: addRecipeParse
activate Parser

' Name
Parser -> Parser: parseName
activate Parser

Parser - -> Parser
deactivate Parser

Parser -> Recipe: <<create>>
activate Recipe

' Ingredients
Parser -> Parser: parseIngredients
activate Parser

loop for all ingredients
Parser -> Recipe: addIngredient
end

Parser - -> Parser
deactivate Parser

' Steps
Parser -> Parser: parseSteps
activate Parser

loop for all steps
Parser -> Recipe: addSteps
end

Parser - -> Parser
deactivate Parser

Recipe - -> Parser: r
deactivate Recipe

Parser - -> Gordon: addCommand
deactivate Parser

@enduml

@startuml






skinparam backgroundColor white
skinparam defaultFontName Arial
skinparam shadowing false
skinparam arrowThickness 2
skinparam sequence {
ParticipantBorderColor black
LifeLineBorderColor black
LifeLineBackgroundColor peachpuff
}

skinparam sequenceArrowColor black

Gordon -> Parser: addRecipeParse
activate Parser

Parser -> Parser: parseName
activate Parser

Parser - -> Parser
deactivate Parser

Parser -> Recipe: <<create>>
activate Recipe

Parser -> Parser: parseIngredients
activate Parser

loop for all ingredients
Parser -> Recipe: addIngredient
end

Parser - -> Parser
deactivate Parser

Parser -> Parser: parseSteps
activate Parser

loop for all steps
Parser -> Recipe: addSteps
end

Parser - -> Parser
deactivate Parser

Recipe - -> Parser: r
deactivate Recipe

Parser - -> Gordon: addCommand
deactivate Parser

@enduml

PlantUML version 1.2021.11(Sat Oct 02 21:26:11 SGT 2021)
(GPL source distribution)
Java Runtime: OpenJDK Runtime Environment
JVM: OpenJDK 64-Bit Server VM
Default Encoding: Cp1252
Language: en
Country: US
--></g></svg>