<?xml version="1.0" encoding="UTF-8" standalone="no"?><svg xmlns="http://www.w3.org/2000/svg" xmlns:xlink="http://www.w3.org/1999/xlink" contentScriptType="application/ecmascript" contentStyleType="text/css" height="547px" preserveAspectRatio="none" style="width:665px;height:547px;background:#FFFFFF;" version="1.1" viewBox="0 0 665 547" width="665px" zoomAndPan="magnify"><defs/><g><rect fill="#FFDAB9" height="455.4873" style="stroke:#000000;stroke-width:1.0;" width="10" x="99" y="67.0474"/><rect fill="#FFDAB9" height="25" style="stroke:#000000;stroke-width:1.0;" width="10" x="104" y="103.9961"/><rect fill="#FFDAB9" height="84.8975" style="stroke:#000000;stroke-width:1.0;" width="10" x="104" y="201.8936"/><rect fill="#FFDAB9" height="84.8975" style="stroke:#000000;stroke-width:1.0;" width="10" x="104" y="330.7397"/><rect fill="#FFDAB9" height="271.6924" style="stroke:#000000;stroke-width:1.0;" width="10" x="341" y="164.9448"/><rect fill="#FFDAB9" height="56.9487" style="stroke:#000000;stroke-width:1.0;" width="10" x="436.5" y="465.5859"/><rect fill="#FFDAB9" height="14" style="stroke:#000000;stroke-width:1.0;" width="10" x="613.5" y="494.5347"/><rect fill="#FFFFFF" height="45.8975" style="stroke:#000000;stroke-width:2.0;" width="323" x="64" y="221.8936"/><rect fill="#FFFFFF" height="45.8975" style="stroke:#000000;stroke-width:2.0;" width="323" x="64" y="350.7397"/><line style="stroke:#000000;stroke-width:1.0;stroke-dasharray:5.0,5.0;" x1="104" x2="104" y1="36.0986" y2="540.5347"/><line style="stroke:#000000;stroke-width:1.0;stroke-dasharray:5.0,5.0;" x1="346" x2="346" y1="36.0986" y2="540.5347"/><line style="stroke:#000000;stroke-width:1.0;stroke-dasharray:5.0,5.0;" x1="441" x2="441" y1="36.0986" y2="540.5347"/><line style="stroke:#000000;stroke-width:1.0;stroke-dasharray:5.0,5.0;" x1="618.5" x2="618.5" y1="36.0986" y2="540.5347"/><rect fill="#FEFECE" height="30.0986" style="stroke:#000000;stroke-width:1.5;" width="60" x="74" y="5"/><text fill="#000000" font-family="Arial" font-size="14" lengthAdjust="spacing" textLength="46" x="81" y="25.1318">:Parser</text><rect fill="#FEFECE" height="30.0986" style="stroke:#000000;stroke-width:1.5;" width="62" x="315" y="5"/><text fill="#000000" font-family="Arial" font-size="14" lengthAdjust="spacing" textLength="48" x="322" y="25.1318">:Recipe</text><rect fill="#FEFECE" height="30.0986" style="stroke:#000000;stroke-width:1.5;" width="109" x="387" y="5"/><text fill="#000000" font-family="Arial" font-size="14" lengthAdjust="spacing" textLength="95" x="394" y="25.1318">:AddCommand</text><rect fill="#FEFECE" height="30.0986" style="stroke:#000000;stroke-width:1.5;" width="82" x="577.5" y="5"/><text fill="#000000" font-family="Arial" font-size="14" lengthAdjust="spacing" textLength="68" x="584.5" y="25.1318">:Cookbook</text><rect fill="#FFDAB9" height="455.4873" style="stroke:#000000;stroke-width:1.0;" width="10" x="99" y="67.0474"/><rect fill="#FFDAB9" height="25" style="stroke:#000000;stroke-width:1.0;" width="10" x="104" y="103.9961"/><rect fill="#FFDAB9" height="84.8975" style="stroke:#000000;stroke-width:1.0;" width="10" x="104" y="201.8936"/><rect fill="#FFDAB9" height="84.8975" style="stroke:#000000;stroke-width:1.0;" width="10" x="104" y="330.7397"/><rect fill="#FFDAB9" height="271.6924" style="stroke:#000000;stroke-width:1.0;" width="10" x="341" y="164.9448"/><rect fill="#FFDAB9" height="56.9487" style="stroke:#000000;stroke-width:1.0;" width="10" x="436.5" y="465.5859"/><rect fill="#FFDAB9" height="14" style="stroke:#000000;stroke-width:1.0;" width="10" x="613.5" y="494.5347"/><polygon fill="#000000" points="87,63.0474,97,67.0474,87,71.0474,91,67.0474" style="stroke:#000000;stroke-width:1.0;"/><line style="stroke:#000000;stroke-width:2.0;stroke-dasharray:2.0,2.0;" x1="0" x2="93" y1="67.0474" y2="67.0474"/><text fill="#000000" font-family="Arial" font-size="13" lengthAdjust="spacing" textLength="80" x="7" y="62.2925">parseMaster()</text><line style="stroke:#000000;stroke-width:2.0;" x1="109" x2="156" y1="90.9961" y2="90.9961"/><line style="stroke:#000000;stroke-width:2.0;" x1="156" x2="156" y1="90.9961" y2="103.9961"/><line style="stroke:#000000;stroke-width:2.0;" x1="115" x2="156" y1="103.9961" y2="103.9961"/><polygon fill="#000000" points="125,99.9961,115,103.9961,125,107.9961,121,103.9961" style="stroke:#000000;stroke-width:1.0;"/><text fill="#000000" font-family="Arial" font-size="13" lengthAdjust="spacing" textLength="161" x="121" y="86.2412">addRecipeParse(String line)</text><line style="stroke:#000000;stroke-width:2.0;stroke-dasharray:2.0,2.0;" x1="114" x2="156" y1="127.9961" y2="127.9961"/><line style="stroke:#000000;stroke-width:2.0;stroke-dasharray:2.0,2.0;" x1="156" x2="156" y1="127.9961" y2="140.9961"/><line style="stroke:#000000;stroke-width:2.0;stroke-dasharray:2.0,2.0;" x1="109" x2="156" y1="140.9961" y2="140.9961"/><polygon fill="#000000" points="119,136.9961,109,140.9961,119,144.9961,115,140.9961" style="stroke:#000000;stroke-width:1.0;"/><polygon fill="#000000" points="329,160.9448,339,164.9448,329,168.9448,333,164.9448" style="stroke:#000000;stroke-width:1.0;"/><line style="stroke:#000000;stroke-width:2.0;" x1="109" x2="335" y1="164.9448" y2="164.9448"/><text fill="#000000" font-family="Arial" font-size="13" lengthAdjust="spacing" textLength="118" x="116" y="160.1899">Recipe(String name)</text><line style="stroke:#000000;stroke-width:2.0;" x1="109" x2="156" y1="188.8936" y2="188.8936"/><line style="stroke:#000000;stroke-width:2.0;" x1="156" x2="156" y1="188.8936" y2="201.8936"/><line style="stroke:#000000;stroke-width:2.0;" x1="115" x2="156" y1="201.8936" y2="201.8936"/><polygon fill="#000000" points="125,197.8936,115,201.8936,125,205.8936,121,201.8936" style="stroke:#000000;stroke-width:1.0;"/><text fill="#000000" font-family="Arial" font-size="13" lengthAdjust="spacing" textLength="218" x="121" y="184.1387">parseIngredients(String line, Recipe r)</text><path d="M64,221.8936 L137,221.8936 L137,227.8936 L127,237.8936 L64,237.8936 L64,221.8936 " fill="#EEEEEE" style="stroke:#000000;stroke-width:1.0;"/><rect fill="none" height="45.8975" style="stroke:#000000;stroke-width:2.0;" width="323" x="64" y="221.8936"/><text fill="#000000" font-family="Arial" font-size="13" font-weight="bold" lengthAdjust="spacing" textLength="28" x="79" y="235.0874">loop</text><text fill="#000000" font-family="Arial" font-size="11" font-weight="bold" lengthAdjust="spacing" textLength="101" x="152" y="234.2114">[for all ingredients]</text><polygon fill="#000000" points="329,255.791,339,259.791,329,263.791,333,259.791" style="stroke:#000000;stroke-width:1.0;"/><line style="stroke:#000000;stroke-width:2.0;" x1="114" x2="335" y1="259.791" y2="259.791"/><text fill="#000000" font-family="Arial" font-size="13" lengthAdjust="spacing" textLength="180" x="121" y="255.0361">addIngredient(String ingredient)</text><line style="stroke:#000000;stroke-width:2.0;stroke-dasharray:2.0,2.0;" x1="114" x2="156" y1="285.791" y2="285.791"/><line style="stroke:#000000;stroke-width:2.0;stroke-dasharray:2.0,2.0;" x1="156" x2="156" y1="285.791" y2="298.791"/><line style="stroke:#000000;stroke-width:2.0;stroke-dasharray:2.0,2.0;" x1="109" x2="156" y1="298.791" y2="298.791"/><polygon fill="#000000" points="119,294.791,109,298.791,119,302.791,115,298.791" style="stroke:#000000;stroke-width:1.0;"/><line style="stroke:#000000;stroke-width:2.0;" x1="109" x2="156" y1="317.7397" y2="317.7397"/><line style="stroke:#000000;stroke-width:2.0;" x1="156" x2="156" y1="317.7397" y2="330.7397"/><line style="stroke:#000000;stroke-width:2.0;" x1="115" x2="156" y1="330.7397" y2="330.7397"/><polygon fill="#000000" points="125,326.7397,115,330.7397,125,334.7397,121,330.7397" style="stroke:#000000;stroke-width:1.0;"/><text fill="#000000" font-family="Arial" font-size="13" lengthAdjust="spacing" textLength="188" x="121" y="312.9849">parseSteps(String line, Recipe r)</text><path d="M64,350.7397 L137,350.7397 L137,356.7397 L127,366.7397 L64,366.7397 L64,350.7397 " fill="#EEEEEE" style="stroke:#000000;stroke-width:1.0;"/><rect fill="none" height="45.8975" style="stroke:#000000;stroke-width:2.0;" width="323" x="64" y="350.7397"/><text fill="#000000" font-family="Arial" font-size="13" font-weight="bold" lengthAdjust="spacing" textLength="28" x="79" y="363.9336">loop</text><text fill="#000000" font-family="Arial" font-size="11" font-weight="bold" lengthAdjust="spacing" textLength="70" x="152" y="363.0576">[for all steps]</text><polygon fill="#000000" points="329,384.6372,339,388.6372,329,392.6372,333,388.6372" style="stroke:#000000;stroke-width:1.0;"/><line style="stroke:#000000;stroke-width:2.0;" x1="114" x2="335" y1="388.6372" y2="388.6372"/><text fill="#000000" font-family="Arial" font-size="13" lengthAdjust="spacing" textLength="119" x="121" y="383.8823">addStep(String step)</text><line style="stroke:#000000;stroke-width:2.0;stroke-dasharray:2.0,2.0;" x1="114" x2="156" y1="414.6372" y2="414.6372"/><line style="stroke:#000000;stroke-width:2.0;stroke-dasharray:2.0,2.0;" x1="156" x2="156" y1="414.6372" y2="427.6372"/><line style="stroke:#000000;stroke-width:2.0;stroke-dasharray:2.0,2.0;" x1="109" x2="156" y1="427.6372" y2="427.6372"/><polygon fill="#000000" points="119,423.6372,109,427.6372,119,431.6372,115,427.6372" style="stroke:#000000;stroke-width:1.0;"/><polygon fill="#000000" points="120,432.6372,110,436.6372,120,440.6372,116,436.6372" style="stroke:#000000;stroke-width:1.0;"/><line style="stroke:#000000;stroke-width:2.0;stroke-dasharray:2.0,2.0;" x1="114" x2="345" y1="436.6372" y2="436.6372"/><line style="stroke:#000000;stroke-width:2.0;" x1="337" x2="355" y1="427.6372" y2="445.6372"/><line style="stroke:#000000;stroke-width:2.0;" x1="337" x2="355" y1="445.6372" y2="427.6372"/><polygon fill="#000000" points="424.5,461.5859,434.5,465.5859,424.5,469.5859,428.5,465.5859" style="stroke:#000000;stroke-width:1.0;"/><line style="stroke:#000000;stroke-width:2.0;" x1="109" x2="430.5" y1="465.5859" y2="465.5859"/><text fill="#000000" font-family="Arial" font-size="13" lengthAdjust="spacing" textLength="138" x="116" y="460.8311">AddCommand(Recipe r)</text><polygon fill="#000000" points="601.5,490.5347,611.5,494.5347,601.5,498.5347,605.5,494.5347" style="stroke:#000000;stroke-width:1.0;"/><line style="stroke:#000000;stroke-width:2.0;" x1="446.5" x2="607.5" y1="494.5347" y2="494.5347"/><text fill="#000000" font-family="Arial" font-size="13" lengthAdjust="spacing" textLength="148" x="453.5" y="489.7798">addRecipe(Recipe recipe)</text><polygon fill="#000000" points="457.5,504.5347,447.5,508.5347,457.5,512.5347,453.5,508.5347" style="stroke:#000000;stroke-width:1.0;"/><line style="stroke:#000000;stroke-width:2.0;stroke-dasharray:2.0,2.0;" x1="451.5" x2="617.5" y1="508.5347" y2="508.5347"/><line style="stroke:#000000;stroke-width:2.0;" x1="609.5" x2="627.5" y1="499.5347" y2="517.5347"/><line style="stroke:#000000;stroke-width:2.0;" x1="609.5" x2="627.5" y1="517.5347" y2="499.5347"/><polygon fill="#000000" points="115,518.5347,105,522.5347,115,526.5347,111,522.5347" style="stroke:#000000;stroke-width:1.0;"/><line style="stroke:#000000;stroke-width:2.0;stroke-dasharray:2.0,2.0;" x1="109" x2="440.5" y1="522.5347" y2="522.5347"/><line style="stroke:#000000;stroke-width:2.0;" x1="432.5" x2="450.5" y1="513.5347" y2="531.5347"/><line style="stroke:#000000;stroke-width:2.0;" x1="432.5" x2="450.5" y1="531.5347" y2="513.5347"/><line style="stroke:#000000;stroke-width:2.0;" x1="95" x2="113" y1="513.5347" y2="531.5347"/><line style="stroke:#000000;stroke-width:2.0;" x1="95" x2="113" y1="531.5347" y2="513.5347"/><!--MD5=[fbb5db199d5ab7deb14caeba4689d729]
@startuml

hide footbox

!include Style.puml
skinparam sequence {
ParticipantBorderColor black
LifeLineBorderColor black
LifeLineBackgroundColor peachpuff
}

skinparam sequenceArrowColor black

- -> ":Parser": parseMaster()
activate ":Parser"

":Parser" -> ":Parser": addRecipeParse(String line)
activate ":Parser"

":Parser" - -> ":Parser"
deactivate ":Parser"

":Parser" -> ":Recipe": Recipe(String name)
activate ":Recipe"


' Ingredients
":Parser" -> ":Parser": parseIngredients(String line, Recipe r)
activate ":Parser"

loop for all ingredients
":Parser" -> ":Recipe": addIngredient(String ingredient)
end

":Parser" - -> ":Parser"
deactivate ":Parser"


":Parser" -> ":Parser": parseSteps(String line, Recipe r)
activate ":Parser"

loop for all steps
":Parser" -> ":Recipe": addStep(String step)
end

":Parser" - -> ":Parser"
deactivate ":Parser"



":Recipe" - -> ":Parser":
destroy ":Recipe"

":Parser" -> ":AddCommand": AddCommand(Recipe r)
activate ":AddCommand"

":AddCommand" -> ":Cookbook": addRecipe(Recipe recipe)
activate ":Cookbook"

":Cookbook" - -> ":AddCommand"
destroy ":Cookbook"

":AddCommand" - -> ":Parser"
destroy ":AddCommand"

destroy ":Parser"
@enduml

@startuml

hide footbox







hide circle
skinparam backgroundColor white
skinparam defaultFontName Arial
skinparam shadowing false
skinparam arrowThickness 2
skinparam classAttributeIconSize 0
skinparam sequence {
ParticipantBorderColor black
LifeLineBorderColor black
LifeLineBackgroundColor peachpuff
}

skinparam sequenceArrowColor black

- -> ":Parser": parseMaster()
activate ":Parser"

":Parser" -> ":Parser": addRecipeParse(String line)
activate ":Parser"

":Parser" - -> ":Parser"
deactivate ":Parser"

":Parser" -> ":Recipe": Recipe(String name)
activate ":Recipe"


":Parser" -> ":Parser": parseIngredients(String line, Recipe r)
activate ":Parser"

loop for all ingredients
":Parser" -> ":Recipe": addIngredient(String ingredient)
end

":Parser" - -> ":Parser"
deactivate ":Parser"


":Parser" -> ":Parser": parseSteps(String line, Recipe r)
activate ":Parser"

loop for all steps
":Parser" -> ":Recipe": addStep(String step)
end

":Parser" - -> ":Parser"
deactivate ":Parser"



":Recipe" - -> ":Parser":
destroy ":Recipe"

":Parser" -> ":AddCommand": AddCommand(Recipe r)
activate ":AddCommand"

":AddCommand" -> ":Cookbook": addRecipe(Recipe recipe)
activate ":Cookbook"

":Cookbook" - -> ":AddCommand"
destroy ":Cookbook"

":AddCommand" - -> ":Parser"
destroy ":AddCommand"

destroy ":Parser"
@enduml

PlantUML version 1.2021.11(Sat Oct 02 21:26:11 SGT 2021)
(GPL source distribution)
Java Runtime: OpenJDK Runtime Environment
JVM: OpenJDK 64-Bit Server VM
Default Encoding: UTF-8
Language: en
Country: GB
--></g></svg>