<?xml version="1.0" encoding="UTF-8" standalone="no"?><svg xmlns="http://www.w3.org/2000/svg" xmlns:xlink="http://www.w3.org/1999/xlink" contentScriptType="application/ecmascript" contentStyleType="text/css" height="545px" preserveAspectRatio="none" style="width:326px;height:545px;background:#FFFFFF;" version="1.1" viewBox="0 0 326 545" width="326px" zoomAndPan="magnify"><defs/><g><rect fill="#FFDAB9" height="425.6372" style="stroke:#000000;stroke-width:1.0;" width="10" x="150" y="67.0474"/><rect fill="#FFDAB9" height="25" style="stroke:#000000;stroke-width:1.0;" width="10" x="155" y="103.9961"/><rect fill="#FFDAB9" height="84.8975" style="stroke:#000000;stroke-width:1.0;" width="10" x="155" y="214.0435"/><rect fill="#FFDAB9" height="84.8975" style="stroke:#000000;stroke-width:1.0;" width="10" x="155" y="342.8896"/><rect fill="#FFDAB9" height="288.791" style="stroke:#000000;stroke-width:1.0;" width="10" x="276" y="174.9448"/><rect fill="#FFFFFF" height="45.8975" style="stroke:#000000;stroke-width:2.0;" width="203" x="117" y="234.0435"/><rect fill="#FFFFFF" height="45.8975" style="stroke:#000000;stroke-width:2.0;" width="203" x="117" y="362.8896"/><line style="stroke:#000000;stroke-width:1.0;stroke-dasharray:5.0,5.0;" x1="36" x2="36" y1="36.0986" y2="510.6846"/><line style="stroke:#000000;stroke-width:1.0;stroke-dasharray:5.0,5.0;" x1="155" x2="155" y1="36.0986" y2="510.6846"/><line style="stroke:#000000;stroke-width:1.0;stroke-dasharray:5.0,5.0;" x1="281" x2="281" y1="174.5454" y2="510.6846"/><rect fill="#FEFECE" height="30.0986" style="stroke:#000000;stroke-width:1.5;" width="62" x="5" y="5"/><text fill="#000000" font-family="Arial" font-size="14" lengthAdjust="spacing" textLength="48" x="12" y="25.1318">Gordon</text><rect fill="#FEFECE" height="30.0986" style="stroke:#000000;stroke-width:1.5;" width="62" x="5" y="509.6846"/><text fill="#000000" font-family="Arial" font-size="14" lengthAdjust="spacing" textLength="48" x="12" y="529.8164">Gordon</text><rect fill="#FEFECE" height="30.0986" style="stroke:#000000;stroke-width:1.5;" width="56" x="127" y="5"/><text fill="#000000" font-family="Arial" font-size="14" lengthAdjust="spacing" textLength="42" x="134" y="25.1318">Parser</text><rect fill="#FEFECE" height="30.0986" style="stroke:#000000;stroke-width:1.5;" width="56" x="127" y="509.6846"/><text fill="#000000" font-family="Arial" font-size="14" lengthAdjust="spacing" textLength="42" x="134" y="529.8164">Parser</text><rect fill="#FEFECE" height="30.0986" style="stroke:#000000;stroke-width:1.5;" width="58" x="252" y="509.6846"/><text fill="#000000" font-family="Arial" font-size="14" lengthAdjust="spacing" textLength="44" x="259" y="529.8164">Recipe</text><rect fill="#FFDAB9" height="425.6372" style="stroke:#000000;stroke-width:1.0;" width="10" x="150" y="67.0474"/><rect fill="#FFDAB9" height="25" style="stroke:#000000;stroke-width:1.0;" width="10" x="155" y="103.9961"/><rect fill="#FFDAB9" height="84.8975" style="stroke:#000000;stroke-width:1.0;" width="10" x="155" y="214.0435"/><rect fill="#FFDAB9" height="84.8975" style="stroke:#000000;stroke-width:1.0;" width="10" x="155" y="342.8896"/><rect fill="#FFDAB9" height="288.791" style="stroke:#000000;stroke-width:1.0;" width="10" x="276" y="174.9448"/><polygon fill="#000000" points="138,63.0474,148,67.0474,138,71.0474,142,67.0474" style="stroke:#000000;stroke-width:1.0;"/><line style="stroke:#000000;stroke-width:2.0;" x1="36" x2="144" y1="67.0474" y2="67.0474"/><text fill="#000000" font-family="Arial" font-size="13" lengthAdjust="spacing" textLength="95" x="43" y="62.2925">addRecipeParse</text><line style="stroke:#000000;stroke-width:2.0;" x1="160" x2="207" y1="90.9961" y2="90.9961"/><line style="stroke:#000000;stroke-width:2.0;" x1="207" x2="207" y1="90.9961" y2="103.9961"/><line style="stroke:#000000;stroke-width:2.0;" x1="166" x2="207" y1="103.9961" y2="103.9961"/><polygon fill="#000000" points="176,99.9961,166,103.9961,176,107.9961,172,103.9961" style="stroke:#000000;stroke-width:1.0;"/><text fill="#000000" font-family="Arial" font-size="13" lengthAdjust="spacing" textLength="66" x="172" y="86.2412">parseName</text><line style="stroke:#000000;stroke-width:2.0;stroke-dasharray:2.0,2.0;" x1="165" x2="207" y1="127.9961" y2="127.9961"/><line style="stroke:#000000;stroke-width:2.0;stroke-dasharray:2.0,2.0;" x1="207" x2="207" y1="127.9961" y2="140.9961"/><line style="stroke:#000000;stroke-width:2.0;stroke-dasharray:2.0,2.0;" x1="160" x2="207" y1="140.9961" y2="140.9961"/><polygon fill="#000000" points="170,136.9961,160,140.9961,170,144.9961,166,140.9961" style="stroke:#000000;stroke-width:1.0;"/><polygon fill="#000000" points="240,160.9448,250,164.9448,240,168.9448,244,164.9448" style="stroke:#000000;stroke-width:1.0;"/><line style="stroke:#000000;stroke-width:2.0;" x1="160" x2="246" y1="164.9448" y2="164.9448"/><text fill="#000000" font-family="Arial" font-size="13" lengthAdjust="spacing" textLength="68" x="167" y="160.1899">&lt;&lt;create&gt;&gt;</text><rect fill="#FEFECE" height="30.0986" style="stroke:#000000;stroke-width:1.5;" width="58" x="252" y="143.9961"/><text fill="#000000" font-family="Arial" font-size="14" lengthAdjust="spacing" textLength="44" x="259" y="164.1279">Recipe</text><line style="stroke:#000000;stroke-width:2.0;" x1="160" x2="207" y1="201.0435" y2="201.0435"/><line style="stroke:#000000;stroke-width:2.0;" x1="207" x2="207" y1="201.0435" y2="214.0435"/><line style="stroke:#000000;stroke-width:2.0;" x1="166" x2="207" y1="214.0435" y2="214.0435"/><polygon fill="#000000" points="176,210.0435,166,214.0435,176,218.0435,172,214.0435" style="stroke:#000000;stroke-width:1.0;"/><text fill="#000000" font-family="Arial" font-size="13" lengthAdjust="spacing" textLength="95" x="172" y="196.2886">parseIngredients</text><path d="M117,234.0435 L190,234.0435 L190,240.0435 L180,250.0435 L117,250.0435 L117,234.0435 " fill="#EEEEEE" style="stroke:#000000;stroke-width:1.0;"/><rect fill="none" height="45.8975" style="stroke:#000000;stroke-width:2.0;" width="203" x="117" y="234.0435"/><text fill="#000000" font-family="Arial" font-size="13" font-weight="bold" lengthAdjust="spacing" textLength="28" x="132" y="247.2373">loop</text><text fill="#000000" font-family="Arial" font-size="11" font-weight="bold" lengthAdjust="spacing" textLength="106" x="205" y="246.3613">[for all ingredients]</text><polygon fill="#000000" points="264,267.9409,274,271.9409,264,275.9409,268,271.9409" style="stroke:#000000;stroke-width:1.0;"/><line style="stroke:#000000;stroke-width:2.0;" x1="165" x2="270" y1="271.9409" y2="271.9409"/><text fill="#000000" font-family="Arial" font-size="13" lengthAdjust="spacing" textLength="77" x="172" y="267.186">addIngredient</text><line style="stroke:#000000;stroke-width:2.0;stroke-dasharray:2.0,2.0;" x1="165" x2="207" y1="297.9409" y2="297.9409"/><line style="stroke:#000000;stroke-width:2.0;stroke-dasharray:2.0,2.0;" x1="207" x2="207" y1="297.9409" y2="310.9409"/><line style="stroke:#000000;stroke-width:2.0;stroke-dasharray:2.0,2.0;" x1="160" x2="207" y1="310.9409" y2="310.9409"/><polygon fill="#000000" points="170,306.9409,160,310.9409,170,314.9409,166,310.9409" style="stroke:#000000;stroke-width:1.0;"/><line style="stroke:#000000;stroke-width:2.0;" x1="160" x2="207" y1="329.8896" y2="329.8896"/><line style="stroke:#000000;stroke-width:2.0;" x1="207" x2="207" y1="329.8896" y2="342.8896"/><line style="stroke:#000000;stroke-width:2.0;" x1="166" x2="207" y1="342.8896" y2="342.8896"/><polygon fill="#000000" points="176,338.8896,166,342.8896,176,346.8896,172,342.8896" style="stroke:#000000;stroke-width:1.0;"/><text fill="#000000" font-family="Arial" font-size="13" lengthAdjust="spacing" textLength="66" x="172" y="325.1348">parseSteps</text><path d="M117,362.8896 L190,362.8896 L190,368.8896 L180,378.8896 L117,378.8896 L117,362.8896 " fill="#EEEEEE" style="stroke:#000000;stroke-width:1.0;"/><rect fill="none" height="45.8975" style="stroke:#000000;stroke-width:2.0;" width="203" x="117" y="362.8896"/><text fill="#000000" font-family="Arial" font-size="13" font-weight="bold" lengthAdjust="spacing" textLength="28" x="132" y="376.0835">loop</text><text fill="#000000" font-family="Arial" font-size="11" font-weight="bold" lengthAdjust="spacing" textLength="74" x="205" y="375.2075">[for all steps]</text><polygon fill="#000000" points="264,396.7871,274,400.7871,264,404.7871,268,400.7871" style="stroke:#000000;stroke-width:1.0;"/><line style="stroke:#000000;stroke-width:2.0;" x1="165" x2="270" y1="400.7871" y2="400.7871"/><text fill="#000000" font-family="Arial" font-size="13" lengthAdjust="spacing" textLength="48" x="172" y="396.0322">addStep</text><line style="stroke:#000000;stroke-width:2.0;stroke-dasharray:2.0,2.0;" x1="165" x2="207" y1="426.7871" y2="426.7871"/><line style="stroke:#000000;stroke-width:2.0;stroke-dasharray:2.0,2.0;" x1="207" x2="207" y1="426.7871" y2="439.7871"/><line style="stroke:#000000;stroke-width:2.0;stroke-dasharray:2.0,2.0;" x1="160" x2="207" y1="439.7871" y2="439.7871"/><polygon fill="#000000" points="170,435.7871,160,439.7871,170,443.7871,166,439.7871" style="stroke:#000000;stroke-width:1.0;"/><polygon fill="#000000" points="171,459.7358,161,463.7358,171,467.7358,167,463.7358" style="stroke:#000000;stroke-width:1.0;"/><line style="stroke:#000000;stroke-width:2.0;stroke-dasharray:2.0,2.0;" x1="165" x2="280" y1="463.7358" y2="463.7358"/><text fill="#000000" font-family="Arial" font-size="13" lengthAdjust="spacing" textLength="4" x="177" y="458.981">r</text><line style="stroke:#000000;stroke-width:2.0;" x1="272" x2="290" y1="454.7358" y2="472.7358"/><line style="stroke:#000000;stroke-width:2.0;" x1="272" x2="290" y1="472.7358" y2="454.7358"/><polygon fill="#000000" points="47,488.6846,37,492.6846,47,496.6846,43,492.6846" style="stroke:#000000;stroke-width:1.0;"/><line style="stroke:#000000;stroke-width:2.0;stroke-dasharray:2.0,2.0;" x1="41" x2="154" y1="492.6846" y2="492.6846"/><text fill="#000000" font-family="Arial" font-size="13" lengthAdjust="spacing" textLength="80" x="53" y="487.9297">addCommand</text><!--MD5=[fa8dd34d5300d4ec63ac164fc8e400f0]
@startuml
!include Style.puml
skinparam sequence {
ParticipantBorderColor black
LifeLineBorderColor black
LifeLineBackgroundColor peachpuff
}

skinparam sequenceArrowColor black

Gordon -> Parser: addRecipeParse
activate Parser

' Name
Parser -> Parser: parseName
activate Parser

Parser - -> Parser
deactivate Parser

Parser -> Recipe**: <<create>>
activate Recipe

' Ingredients
Parser -> Parser: parseIngredients
activate Parser

loop for all ingredients
Parser -> Recipe: addIngredient
end

Parser - -> Parser
deactivate Parser

' Steps
Parser -> Parser: parseSteps
activate Parser

loop for all steps
Parser -> Recipe: addStep
end

Parser - -> Parser
deactivate Parser

Recipe - -> Parser: r
deactivate Recipe
destroy Recipe

Parser - -> Gordon: addCommand
deactivate Parser

@enduml

@startuml






hide circle
skinparam backgroundColor white
skinparam defaultFontName Arial
skinparam shadowing false
skinparam arrowThickness 2
skinparam classAttributeIconSize 0
skinparam sequence {
ParticipantBorderColor black
LifeLineBorderColor black
LifeLineBackgroundColor peachpuff
}

skinparam sequenceArrowColor black

Gordon -> Parser: addRecipeParse
activate Parser

Parser -> Parser: parseName
activate Parser

Parser - -> Parser
deactivate Parser

Parser -> Recipe**: <<create>>
activate Recipe

Parser -> Parser: parseIngredients
activate Parser

loop for all ingredients
Parser -> Recipe: addIngredient
end

Parser - -> Parser
deactivate Parser

Parser -> Parser: parseSteps
activate Parser

loop for all steps
Parser -> Recipe: addStep
end

Parser - -> Parser
deactivate Parser

Recipe - -> Parser: r
deactivate Recipe
destroy Recipe

Parser - -> Gordon: addCommand
deactivate Parser

@enduml

PlantUML version 1.2021.11(Sat Oct 02 21:26:11 SGT 2021)
(GPL source distribution)
Java Runtime: OpenJDK Runtime Environment
JVM: OpenJDK 64-Bit Server VM
Default Encoding: Cp1252
Language: en
Country: US
--></g></svg>