<?xml version="1.0" encoding="UTF-8" standalone="no"?><svg xmlns="http://www.w3.org/2000/svg" xmlns:xlink="http://www.w3.org/1999/xlink" contentScriptType="application/ecmascript" contentStyleType="text/css" height="477px" preserveAspectRatio="none" style="width:1320px;height:477px;background:#FFFFFF;" version="1.1" viewBox="0 0 1320 477" width="1320px" zoomAndPan="magnify"><defs/><g><rect fill="#FFDAB9" height="385.4873" style="stroke:#000000;stroke-width:1.0;" width="10" x="99" y="67.0474"/><rect fill="#FFDAB9" height="25" style="stroke:#000000;stroke-width:1.0;" width="10" x="104" y="103.9961"/><rect fill="#FFDAB9" height="287.5898" style="stroke:#000000;stroke-width:1.0;" width="10" x="488" y="164.9448"/><rect fill="#FFDAB9" height="244.6411" style="stroke:#000000;stroke-width:1.0;" width="10" x="912" y="193.8936"/><rect fill="#FFDAB9" height="14" style="stroke:#000000;stroke-width:1.0;" width="10" x="1216" y="338.6372"/><rect fill="#FFDAB9" height="42.9487" style="stroke:#000000;stroke-width:1.0;" width="10" x="1278.5" y="381.5859"/><line style="stroke:#000000;stroke-width:1.0;stroke-dasharray:5.0,5.0;" x1="104" x2="104" y1="36.0986" y2="470.5347"/><line style="stroke:#000000;stroke-width:1.0;stroke-dasharray:5.0,5.0;" x1="493" x2="493" y1="36.0986" y2="470.5347"/><line style="stroke:#000000;stroke-width:1.0;stroke-dasharray:5.0,5.0;" x1="917" x2="917" y1="36.0986" y2="470.5347"/><line style="stroke:#000000;stroke-width:1.0;stroke-dasharray:5.0,5.0;" x1="1220.5" x2="1220.5" y1="36.0986" y2="470.5347"/><line style="stroke:#000000;stroke-width:1.0;stroke-dasharray:5.0,5.0;" x1="1283.5" x2="1283.5" y1="36.0986" y2="470.5347"/><rect fill="#FEFECE" height="30.0986" style="stroke:#000000;stroke-width:1.5;" width="60" x="74" y="5"/><text fill="#000000" font-family="Arial" font-size="14" lengthAdjust="spacing" textLength="46" x="81" y="25.1318">:Parser</text><rect fill="#FEFECE" height="30.0986" style="stroke:#000000;stroke-width:1.5;" width="134" x="426" y="5"/><text fill="#000000" font-family="Arial" font-size="14" lengthAdjust="spacing" textLength="120" x="433" y="25.1318">:AddTagCommand</text><rect fill="#FEFECE" height="30.0986" style="stroke:#000000;stroke-width:1.5;" width="82" x="876" y="5"/><text fill="#000000" font-family="Arial" font-size="14" lengthAdjust="spacing" textLength="68" x="883" y="25.1318">:Cookbook</text><rect fill="#FEFECE" height="30.0986" style="stroke:#000000;stroke-width:1.5;" width="43" x="1199.5" y="5"/><text fill="#000000" font-family="Arial" font-size="14" lengthAdjust="spacing" textLength="29" x="1206.5" y="25.1318">:Tag</text><rect fill="#FEFECE" height="30.0986" style="stroke:#000000;stroke-width:1.5;" width="62" x="1252.5" y="5"/><text fill="#000000" font-family="Arial" font-size="14" lengthAdjust="spacing" textLength="48" x="1259.5" y="25.1318">:Recipe</text><rect fill="#FFDAB9" height="385.4873" style="stroke:#000000;stroke-width:1.0;" width="10" x="99" y="67.0474"/><rect fill="#FFDAB9" height="25" style="stroke:#000000;stroke-width:1.0;" width="10" x="104" y="103.9961"/><rect fill="#FFDAB9" height="287.5898" style="stroke:#000000;stroke-width:1.0;" width="10" x="488" y="164.9448"/><rect fill="#FFDAB9" height="244.6411" style="stroke:#000000;stroke-width:1.0;" width="10" x="912" y="193.8936"/><rect fill="#FFDAB9" height="14" style="stroke:#000000;stroke-width:1.0;" width="10" x="1216" y="338.6372"/><rect fill="#FFDAB9" height="42.9487" style="stroke:#000000;stroke-width:1.0;" width="10" x="1278.5" y="381.5859"/><polygon fill="#000000" points="87,63.0474,97,67.0474,87,71.0474,91,67.0474" style="stroke:#000000;stroke-width:1.0;"/><line style="stroke:#000000;stroke-width:2.0;stroke-dasharray:2.0,2.0;" x1="0" x2="93" y1="67.0474" y2="67.0474"/><text fill="#000000" font-family="Arial" font-size="13" lengthAdjust="spacing" textLength="80" x="7" y="62.2925">parseMaster()</text><line style="stroke:#000000;stroke-width:2.0;" x1="109" x2="156" y1="90.9961" y2="90.9961"/><line style="stroke:#000000;stroke-width:2.0;" x1="156" x2="156" y1="90.9961" y2="103.9961"/><line style="stroke:#000000;stroke-width:2.0;" x1="115" x2="156" y1="103.9961" y2="103.9961"/><polygon fill="#000000" points="125,99.9961,115,103.9961,125,107.9961,121,103.9961" style="stroke:#000000;stroke-width:1.0;"/><text fill="#000000" font-family="Arial" font-size="13" lengthAdjust="spacing" textLength="85" x="121" y="86.2412">addTagParse()</text><line style="stroke:#000000;stroke-width:2.0;stroke-dasharray:2.0,2.0;" x1="114" x2="156" y1="127.9961" y2="127.9961"/><line style="stroke:#000000;stroke-width:2.0;stroke-dasharray:2.0,2.0;" x1="156" x2="156" y1="127.9961" y2="140.9961"/><line style="stroke:#000000;stroke-width:2.0;stroke-dasharray:2.0,2.0;" x1="109" x2="156" y1="140.9961" y2="140.9961"/><polygon fill="#000000" points="119,136.9961,109,140.9961,119,144.9961,115,140.9961" style="stroke:#000000;stroke-width:1.0;"/><polygon fill="#000000" points="476,160.9448,486,164.9448,476,168.9448,480,164.9448" style="stroke:#000000;stroke-width:1.0;"/><line style="stroke:#000000;stroke-width:2.0;" x1="109" x2="482" y1="164.9448" y2="164.9448"/><text fill="#000000" font-family="Arial" font-size="13" lengthAdjust="spacing" textLength="360" x="116" y="160.1899">AddTagCommand(String recipeName, String[] splitTagNames)</text><polygon fill="#000000" points="900,189.8936,910,193.8936,900,197.8936,904,193.8936" style="stroke:#000000;stroke-width:1.0;"/><line style="stroke:#000000;stroke-width:2.0;" x1="498" x2="906" y1="193.8936" y2="193.8936"/><text fill="#000000" font-family="Arial" font-size="13" lengthAdjust="spacing" textLength="195" x="505" y="189.1387">isRecipeExist(String recipeName)</text><polygon fill="#000000" points="509,218.8423,499,222.8423,509,226.8423,505,222.8423" style="stroke:#000000;stroke-width:1.0;"/><line style="stroke:#000000;stroke-width:2.0;stroke-dasharray:2.0,2.0;" x1="503" x2="911" y1="222.8423" y2="222.8423"/><text fill="#000000" font-family="Arial" font-size="13" font-style="italic" lengthAdjust="spacing" textLength="266" x="515" y="218.0874">returns boolean value of whether recipe exists</text><polygon fill="#000000" points="900,247.791,910,251.791,900,255.791,904,251.791" style="stroke:#000000;stroke-width:1.0;"/><line style="stroke:#000000;stroke-width:2.0;" x1="498" x2="906" y1="251.791" y2="251.791"/><text fill="#000000" font-family="Arial" font-size="13" lengthAdjust="spacing" textLength="200" x="505" y="247.0361">addCookbookTag(Tag createdTag)</text><polygon fill="#000000" points="509,276.7397,499,280.7397,509,284.7397,505,280.7397" style="stroke:#000000;stroke-width:1.0;"/><line style="stroke:#000000;stroke-width:2.0;stroke-dasharray:2.0,2.0;" x1="503" x2="911" y1="280.7397" y2="280.7397"/><text fill="#000000" font-family="Arial" font-size="13" font-style="italic" lengthAdjust="spacing" textLength="168" x="515" y="275.9849">cookbookTags array updated</text><polygon fill="#000000" points="900,305.6885,910,309.6885,900,313.6885,904,309.6885" style="stroke:#000000;stroke-width:1.0;"/><line style="stroke:#000000;stroke-width:2.0;" x1="498" x2="906" y1="309.6885" y2="309.6885"/><text fill="#000000" font-family="Arial" font-size="13" lengthAdjust="spacing" textLength="390" x="505" y="304.9336">appendRecipeToCookbookTag(String tagName, String recipeName)</text><polygon fill="#000000" points="1204,334.6372,1214,338.6372,1204,342.6372,1208,338.6372" style="stroke:#000000;stroke-width:1.0;"/><line style="stroke:#000000;stroke-width:2.0;" x1="922" x2="1210" y1="338.6372" y2="338.6372"/><text fill="#000000" font-family="Arial" font-size="13" lengthAdjust="spacing" textLength="275" x="929" y="333.8823">addAssociatedRecipeName(String recipeName)</text><polygon fill="#000000" points="933,348.6372,923,352.6372,933,356.6372,929,352.6372" style="stroke:#000000;stroke-width:1.0;"/><line style="stroke:#000000;stroke-width:2.0;stroke-dasharray:2.0,2.0;" x1="927" x2="1220" y1="352.6372" y2="352.6372"/><line style="stroke:#000000;stroke-width:2.0;" x1="1212" x2="1230" y1="343.6372" y2="361.6372"/><line style="stroke:#000000;stroke-width:2.0;" x1="1212" x2="1230" y1="361.6372" y2="343.6372"/><polygon fill="#000000" points="900,377.5859,910,381.5859,900,385.5859,904,381.5859" style="stroke:#000000;stroke-width:1.0;"/><line style="stroke:#000000;stroke-width:2.0;" x1="498" x2="906" y1="381.5859" y2="381.5859"/><text fill="#000000" font-family="Arial" font-size="13" lengthAdjust="spacing" textLength="204" x="505" y="376.8311">addTagToRecipes(Tag createdTag)</text><polygon fill="#000000" points="1266.5,406.5347,1276.5,410.5347,1266.5,414.5347,1270.5,410.5347" style="stroke:#000000;stroke-width:1.0;"/><line style="stroke:#000000;stroke-width:2.0;" x1="922" x2="1272.5" y1="410.5347" y2="410.5347"/><text fill="#000000" font-family="Arial" font-size="13" lengthAdjust="spacing" textLength="265" x="929" y="405.7798">addTagToRecipe(Tag tag, String recipeName)</text><polygon fill="#000000" points="933,420.5347,923,424.5347,933,428.5347,929,424.5347" style="stroke:#000000;stroke-width:1.0;"/><line style="stroke:#000000;stroke-width:2.0;stroke-dasharray:2.0,2.0;" x1="927" x2="1282.5" y1="424.5347" y2="424.5347"/><line style="stroke:#000000;stroke-width:2.0;" x1="1274.5" x2="1292.5" y1="415.5347" y2="433.5347"/><line style="stroke:#000000;stroke-width:2.0;" x1="1274.5" x2="1292.5" y1="433.5347" y2="415.5347"/><polygon fill="#000000" points="509,434.5347,499,438.5347,509,442.5347,505,438.5347" style="stroke:#000000;stroke-width:1.0;"/><line style="stroke:#000000;stroke-width:2.0;stroke-dasharray:2.0,2.0;" x1="503" x2="916" y1="438.5347" y2="438.5347"/><line style="stroke:#000000;stroke-width:2.0;" x1="908" x2="926" y1="429.5347" y2="447.5347"/><line style="stroke:#000000;stroke-width:2.0;" x1="908" x2="926" y1="447.5347" y2="429.5347"/><polygon fill="#000000" points="115,448.5347,105,452.5347,115,456.5347,111,452.5347" style="stroke:#000000;stroke-width:1.0;"/><line style="stroke:#000000;stroke-width:2.0;stroke-dasharray:2.0,2.0;" x1="109" x2="492" y1="452.5347" y2="452.5347"/><line style="stroke:#000000;stroke-width:2.0;" x1="484" x2="502" y1="443.5347" y2="461.5347"/><line style="stroke:#000000;stroke-width:2.0;" x1="484" x2="502" y1="461.5347" y2="443.5347"/><line style="stroke:#000000;stroke-width:2.0;" x1="95" x2="113" y1="443.5347" y2="461.5347"/><line style="stroke:#000000;stroke-width:2.0;" x1="95" x2="113" y1="461.5347" y2="443.5347"/><!--MD5=[8c253683affd290aa5c75a67c773274b]
@startuml

hide footbox

!include Style.puml
skinparam sequence {
ParticipantBorderColor black
LifeLineBorderColor black
LifeLineBackgroundColor peachpuff
}

skinparam sequenceArrowColor black

- -> ":Parser": parseMaster()
activate ":Parser"

' Name
":Parser" -> ":Parser": addTagParse()
activate ":Parser"

":Parser" - -> ":Parser"
deactivate ":Parser"

":Parser" -> ":AddTagCommand": AddTagCommand(String recipeName, String[] splitTagNames)
activate ":AddTagCommand"

":AddTagCommand" -> ":Cookbook" : isRecipeExist(String recipeName)
activate ":Cookbook"

":Cookbook" - -> ":AddTagCommand": //returns boolean value of whether recipe exists//

":AddTagCommand" -> ":Cookbook" : addCookbookTag(Tag createdTag)

":Cookbook" - -> ":AddTagCommand": //cookbookTags array updated//

":AddTagCommand" -> ":Cookbook" : appendRecipeToCookbookTag(String tagName, String recipeName)

":Cookbook" -> ":Tag" : addAssociatedRecipeName(String recipeName)
activate ":Tag"

":Tag" - -> ":Cookbook"
destroy ":Tag"

":AddTagCommand" -> ":Cookbook" : addTagToRecipes(Tag createdTag)
activate ":Recipe"
":Cookbook" -> ":Recipe": addTagToRecipe(Tag tag, String recipeName)

":Recipe" - -> ":Cookbook"
destroy ":Recipe"

":Cookbook" - -> ":AddTagCommand"
destroy ":Cookbook"

":AddTagCommand" - -> ":Parser"
destroy ":AddTagCommand"

destroy ":Parser"





@enduml

@startuml

hide footbox







hide circle
skinparam backgroundColor white
skinparam defaultFontName Arial
skinparam shadowing false
skinparam arrowThickness 2
skinparam classAttributeIconSize 0
skinparam sequence {
ParticipantBorderColor black
LifeLineBorderColor black
LifeLineBackgroundColor peachpuff
}

skinparam sequenceArrowColor black

- -> ":Parser": parseMaster()
activate ":Parser"

":Parser" -> ":Parser": addTagParse()
activate ":Parser"

":Parser" - -> ":Parser"
deactivate ":Parser"

":Parser" -> ":AddTagCommand": AddTagCommand(String recipeName, String[] splitTagNames)
activate ":AddTagCommand"

":AddTagCommand" -> ":Cookbook" : isRecipeExist(String recipeName)
activate ":Cookbook"

":Cookbook" - -> ":AddTagCommand": //returns boolean value of whether recipe exists//

":AddTagCommand" -> ":Cookbook" : addCookbookTag(Tag createdTag)

":Cookbook" - -> ":AddTagCommand": //cookbookTags array updated//

":AddTagCommand" -> ":Cookbook" : appendRecipeToCookbookTag(String tagName, String recipeName)

":Cookbook" -> ":Tag" : addAssociatedRecipeName(String recipeName)
activate ":Tag"

":Tag" - -> ":Cookbook"
destroy ":Tag"

":AddTagCommand" -> ":Cookbook" : addTagToRecipes(Tag createdTag)
activate ":Recipe"
":Cookbook" -> ":Recipe": addTagToRecipe(Tag tag, String recipeName)

":Recipe" - -> ":Cookbook"
destroy ":Recipe"

":Cookbook" - -> ":AddTagCommand"
destroy ":Cookbook"

":AddTagCommand" - -> ":Parser"
destroy ":AddTagCommand"

destroy ":Parser"





@enduml

PlantUML version 1.2021.11(Sat Oct 02 21:26:11 SGT 2021)
(GPL source distribution)
Java Runtime: OpenJDK Runtime Environment
JVM: OpenJDK 64-Bit Server VM
Default Encoding: UTF-8
Language: en
Country: GB
--></g></svg>