<?xml version="1.0" encoding="UTF-8" standalone="no"?><svg xmlns="http://www.w3.org/2000/svg" xmlns:xlink="http://www.w3.org/1999/xlink" contentScriptType="application/ecmascript" contentStyleType="text/css" height="489px" preserveAspectRatio="none" style="width:1382px;height:489px;background:#FFFFFF;" version="1.1" viewBox="0 0 1382 489" width="1382px" zoomAndPan="magnify"><defs/><g><rect fill="#FFDAB9" height="397.6372" style="stroke:#000000;stroke-width:1.0;" width="10" x="99" y="67.0474"/><rect fill="#FFDAB9" height="25" style="stroke:#000000;stroke-width:1.0;" width="10" x="104" y="103.9961"/><rect fill="#FFDAB9" height="289.7397" style="stroke:#000000;stroke-width:1.0;" width="10" x="552" y="174.9448"/><rect fill="#FFDAB9" height="244.6411" style="stroke:#000000;stroke-width:1.0;" width="10" x="974" y="206.0435"/><rect fill="#FFDAB9" height="14" style="stroke:#000000;stroke-width:1.0;" width="10" x="1278" y="350.7871"/><rect fill="#FFDAB9" height="42.9487" style="stroke:#000000;stroke-width:1.0;" width="10" x="1340.5" y="393.7358"/><line style="stroke:#000000;stroke-width:1.0;stroke-dasharray:5.0,5.0;" x1="104" x2="104" y1="36.0986" y2="482.6846"/><line style="stroke:#000000;stroke-width:1.0;stroke-dasharray:5.0,5.0;" x1="557" x2="557" y1="174.5454" y2="482.6846"/><line style="stroke:#000000;stroke-width:1.0;stroke-dasharray:5.0,5.0;" x1="979" x2="979" y1="36.0986" y2="482.6846"/><line style="stroke:#000000;stroke-width:1.0;stroke-dasharray:5.0,5.0;" x1="1282.5" x2="1282.5" y1="36.0986" y2="482.6846"/><line style="stroke:#000000;stroke-width:1.0;stroke-dasharray:5.0,5.0;" x1="1345.5" x2="1345.5" y1="36.0986" y2="482.6846"/><rect fill="#FEFECE" height="30.0986" style="stroke:#000000;stroke-width:1.5;" width="60" x="74" y="5"/><text fill="#000000" font-family="Arial" font-size="14" lengthAdjust="spacing" textLength="46" x="81" y="25.1318">:Parser</text><rect fill="#FEFECE" height="30.0986" style="stroke:#000000;stroke-width:1.5;" width="82" x="938" y="5"/><text fill="#000000" font-family="Arial" font-size="14" lengthAdjust="spacing" textLength="68" x="945" y="25.1318">:Cookbook</text><rect fill="#FEFECE" height="30.0986" style="stroke:#000000;stroke-width:1.5;" width="43" x="1261.5" y="5"/><text fill="#000000" font-family="Arial" font-size="14" lengthAdjust="spacing" textLength="29" x="1268.5" y="25.1318">:Tag</text><rect fill="#FEFECE" height="30.0986" style="stroke:#000000;stroke-width:1.5;" width="62" x="1314.5" y="5"/><text fill="#000000" font-family="Arial" font-size="14" lengthAdjust="spacing" textLength="48" x="1321.5" y="25.1318">:Recipe</text><rect fill="#FFDAB9" height="397.6372" style="stroke:#000000;stroke-width:1.0;" width="10" x="99" y="67.0474"/><rect fill="#FFDAB9" height="25" style="stroke:#000000;stroke-width:1.0;" width="10" x="104" y="103.9961"/><rect fill="#FFDAB9" height="289.7397" style="stroke:#000000;stroke-width:1.0;" width="10" x="552" y="174.9448"/><rect fill="#FFDAB9" height="244.6411" style="stroke:#000000;stroke-width:1.0;" width="10" x="974" y="206.0435"/><rect fill="#FFDAB9" height="14" style="stroke:#000000;stroke-width:1.0;" width="10" x="1278" y="350.7871"/><rect fill="#FFDAB9" height="42.9487" style="stroke:#000000;stroke-width:1.0;" width="10" x="1340.5" y="393.7358"/><polygon fill="#000000" points="87,63.0474,97,67.0474,87,71.0474,91,67.0474" style="stroke:#000000;stroke-width:1.0;"/><line style="stroke:#000000;stroke-width:2.0;stroke-dasharray:2.0,2.0;" x1="0" x2="93" y1="67.0474" y2="67.0474"/><text fill="#000000" font-family="Arial" font-size="13" lengthAdjust="spacing" textLength="80" x="7" y="62.2925">parseMaster()</text><line style="stroke:#000000;stroke-width:2.0;" x1="109" x2="156" y1="90.9961" y2="90.9961"/><line style="stroke:#000000;stroke-width:2.0;" x1="156" x2="156" y1="90.9961" y2="103.9961"/><line style="stroke:#000000;stroke-width:2.0;" x1="115" x2="156" y1="103.9961" y2="103.9961"/><polygon fill="#000000" points="125,99.9961,115,103.9961,125,107.9961,121,103.9961" style="stroke:#000000;stroke-width:1.0;"/><text fill="#000000" font-family="Arial" font-size="13" lengthAdjust="spacing" textLength="84" x="121" y="86.2412">addTagParse()</text><line style="stroke:#000000;stroke-width:2.0;stroke-dasharray:2.0,2.0;" x1="114" x2="156" y1="127.9961" y2="127.9961"/><line style="stroke:#000000;stroke-width:2.0;stroke-dasharray:2.0,2.0;" x1="156" x2="156" y1="127.9961" y2="140.9961"/><line style="stroke:#000000;stroke-width:2.0;stroke-dasharray:2.0,2.0;" x1="109" x2="156" y1="140.9961" y2="140.9961"/><polygon fill="#000000" points="119,136.9961,109,140.9961,119,144.9961,115,140.9961" style="stroke:#000000;stroke-width:1.0;"/><polygon fill="#000000" points="479,160.9448,489,164.9448,479,168.9448,483,164.9448" style="stroke:#000000;stroke-width:1.0;"/><line style="stroke:#000000;stroke-width:2.0;" x1="109" x2="485" y1="164.9448" y2="164.9448"/><text fill="#000000" font-family="Arial" font-size="13" lengthAdjust="spacing" textLength="358" x="116" y="160.1899">AddTagCommand(String recipeName, String[] splitTagNames)</text><rect fill="#FEFECE" height="30.0986" style="stroke:#000000;stroke-width:1.5;" width="132" x="491" y="143.9961"/><text fill="#000000" font-family="Arial" font-size="14" lengthAdjust="spacing" textLength="118" x="498" y="164.1279">:AddTagCommand</text><polygon fill="#000000" points="962,202.0435,972,206.0435,962,210.0435,966,206.0435" style="stroke:#000000;stroke-width:1.0;"/><line style="stroke:#000000;stroke-width:2.0;" x1="562" x2="968" y1="206.0435" y2="206.0435"/><text fill="#000000" font-family="Arial" font-size="13" lengthAdjust="spacing" textLength="195" x="569" y="201.2886">isRecipeExist(String recipeName)</text><polygon fill="#000000" points="573,230.9922,563,234.9922,573,238.9922,569,234.9922" style="stroke:#000000;stroke-width:1.0;"/><line style="stroke:#000000;stroke-width:2.0;stroke-dasharray:2.0,2.0;" x1="567" x2="973" y1="234.9922" y2="234.9922"/><text fill="#000000" font-family="Arial" font-size="13" font-style="italic" lengthAdjust="spacing" textLength="264" x="579" y="230.2373">returns boolean value of whether recipe exists</text><polygon fill="#000000" points="962,259.9409,972,263.9409,962,267.9409,966,263.9409" style="stroke:#000000;stroke-width:1.0;"/><line style="stroke:#000000;stroke-width:2.0;" x1="562" x2="968" y1="263.9409" y2="263.9409"/><text fill="#000000" font-family="Arial" font-size="13" lengthAdjust="spacing" textLength="197" x="569" y="259.186">addCookbookTag(Tag createdTag)</text><polygon fill="#000000" points="573,288.8896,563,292.8896,573,296.8896,569,292.8896" style="stroke:#000000;stroke-width:1.0;"/><line style="stroke:#000000;stroke-width:2.0;stroke-dasharray:2.0,2.0;" x1="567" x2="973" y1="292.8896" y2="292.8896"/><text fill="#000000" font-family="Arial" font-size="13" font-style="italic" lengthAdjust="spacing" textLength="170" x="579" y="288.1348">cookbookTags array updated</text><polygon fill="#000000" points="962,317.8384,972,321.8384,962,325.8384,966,321.8384" style="stroke:#000000;stroke-width:1.0;"/><line style="stroke:#000000;stroke-width:2.0;" x1="562" x2="968" y1="321.8384" y2="321.8384"/><text fill="#000000" font-family="Arial" font-size="13" lengthAdjust="spacing" textLength="388" x="569" y="317.0835">appendRecipeToCookbookTag(String tagName, String recipeName)</text><polygon fill="#000000" points="1266,346.7871,1276,350.7871,1266,354.7871,1270,350.7871" style="stroke:#000000;stroke-width:1.0;"/><line style="stroke:#000000;stroke-width:2.0;" x1="984" x2="1272" y1="350.7871" y2="350.7871"/><text fill="#000000" font-family="Arial" font-size="13" lengthAdjust="spacing" textLength="275" x="991" y="346.0322">addAssociatedRecipeName(String recipeName)</text><polygon fill="#000000" points="995,360.7871,985,364.7871,995,368.7871,991,364.7871" style="stroke:#000000;stroke-width:1.0;"/><line style="stroke:#000000;stroke-width:2.0;stroke-dasharray:2.0,2.0;" x1="989" x2="1282" y1="364.7871" y2="364.7871"/><line style="stroke:#000000;stroke-width:2.0;" x1="1274" x2="1292" y1="355.7871" y2="373.7871"/><line style="stroke:#000000;stroke-width:2.0;" x1="1274" x2="1292" y1="373.7871" y2="355.7871"/><polygon fill="#000000" points="962,389.7358,972,393.7358,962,397.7358,966,393.7358" style="stroke:#000000;stroke-width:1.0;"/><line style="stroke:#000000;stroke-width:2.0;" x1="562" x2="968" y1="393.7358" y2="393.7358"/><text fill="#000000" font-family="Arial" font-size="13" lengthAdjust="spacing" textLength="200" x="569" y="388.981">addTagToRecipes(Tag createdTag)</text><polygon fill="#000000" points="1328.5,418.6846,1338.5,422.6846,1328.5,426.6846,1332.5,422.6846" style="stroke:#000000;stroke-width:1.0;"/><line style="stroke:#000000;stroke-width:2.0;" x1="984" x2="1334.5" y1="422.6846" y2="422.6846"/><text fill="#000000" font-family="Arial" font-size="13" lengthAdjust="spacing" textLength="262" x="991" y="417.9297">addTagToRecipe(Tag tag, String recipeName)</text><polygon fill="#000000" points="995,432.6846,985,436.6846,995,440.6846,991,436.6846" style="stroke:#000000;stroke-width:1.0;"/><line style="stroke:#000000;stroke-width:2.0;stroke-dasharray:2.0,2.0;" x1="989" x2="1344.5" y1="436.6846" y2="436.6846"/><line style="stroke:#000000;stroke-width:2.0;" x1="1336.5" x2="1354.5" y1="427.6846" y2="445.6846"/><line style="stroke:#000000;stroke-width:2.0;" x1="1336.5" x2="1354.5" y1="445.6846" y2="427.6846"/><polygon fill="#000000" points="573,446.6846,563,450.6846,573,454.6846,569,450.6846" style="stroke:#000000;stroke-width:1.0;"/><line style="stroke:#000000;stroke-width:2.0;stroke-dasharray:2.0,2.0;" x1="567" x2="978" y1="450.6846" y2="450.6846"/><line style="stroke:#000000;stroke-width:2.0;" x1="970" x2="988" y1="441.6846" y2="459.6846"/><line style="stroke:#000000;stroke-width:2.0;" x1="970" x2="988" y1="459.6846" y2="441.6846"/><polygon fill="#000000" points="115,460.6846,105,464.6846,115,468.6846,111,464.6846" style="stroke:#000000;stroke-width:1.0;"/><line style="stroke:#000000;stroke-width:2.0;stroke-dasharray:2.0,2.0;" x1="109" x2="556" y1="464.6846" y2="464.6846"/><line style="stroke:#000000;stroke-width:2.0;" x1="548" x2="566" y1="455.6846" y2="473.6846"/><line style="stroke:#000000;stroke-width:2.0;" x1="548" x2="566" y1="473.6846" y2="455.6846"/><line style="stroke:#000000;stroke-width:2.0;" x1="95" x2="113" y1="455.6846" y2="473.6846"/><line style="stroke:#000000;stroke-width:2.0;" x1="95" x2="113" y1="473.6846" y2="455.6846"/><!--MD5=[d89b7e89780e2cdd4af3361e836e5bda]
@startuml

hide footbox

!include Style.puml
skinparam sequence {
ParticipantBorderColor black
LifeLineBorderColor black
LifeLineBackgroundColor peachpuff
}

skinparam sequenceArrowColor black

- -> ":Parser": parseMaster()
activate ":Parser"

' Name
":Parser" -> ":Parser": addTagParse()
activate ":Parser"

":Parser" - -> ":Parser"
deactivate ":Parser"

create ":AddTagCommand"
":Parser" -> ":AddTagCommand": AddTagCommand(String recipeName, String[] splitTagNames)
activate ":AddTagCommand"

":AddTagCommand" -> ":Cookbook" : isRecipeExist(String recipeName)
activate ":Cookbook"

":Cookbook" - -> ":AddTagCommand": //returns boolean value of whether recipe exists//

":AddTagCommand" -> ":Cookbook" : addCookbookTag(Tag createdTag)

":Cookbook" - -> ":AddTagCommand": //cookbookTags array updated//

":AddTagCommand" -> ":Cookbook" : appendRecipeToCookbookTag(String tagName, String recipeName)

":Cookbook" -> ":Tag" : addAssociatedRecipeName(String recipeName)
activate ":Tag"

":Tag" - -> ":Cookbook"
destroy ":Tag"

":AddTagCommand" -> ":Cookbook" : addTagToRecipes(Tag createdTag)
activate ":Recipe"
":Cookbook" -> ":Recipe": addTagToRecipe(Tag tag, String recipeName)

":Recipe" - -> ":Cookbook"
destroy ":Recipe"

":Cookbook" - -> ":AddTagCommand"
destroy ":Cookbook"

":AddTagCommand" - -> ":Parser"
destroy ":AddTagCommand"

destroy ":Parser"





@enduml

@startuml

hide footbox







hide circle
skinparam backgroundColor white
skinparam defaultFontName Arial
skinparam shadowing false
skinparam arrowThickness 2
skinparam classAttributeIconSize 0
skinparam sequence {
ParticipantBorderColor black
LifeLineBorderColor black
LifeLineBackgroundColor peachpuff
}

skinparam sequenceArrowColor black

- -> ":Parser": parseMaster()
activate ":Parser"

":Parser" -> ":Parser": addTagParse()
activate ":Parser"

":Parser" - -> ":Parser"
deactivate ":Parser"

create ":AddTagCommand"
":Parser" -> ":AddTagCommand": AddTagCommand(String recipeName, String[] splitTagNames)
activate ":AddTagCommand"

":AddTagCommand" -> ":Cookbook" : isRecipeExist(String recipeName)
activate ":Cookbook"

":Cookbook" - -> ":AddTagCommand": //returns boolean value of whether recipe exists//

":AddTagCommand" -> ":Cookbook" : addCookbookTag(Tag createdTag)

":Cookbook" - -> ":AddTagCommand": //cookbookTags array updated//

":AddTagCommand" -> ":Cookbook" : appendRecipeToCookbookTag(String tagName, String recipeName)

":Cookbook" -> ":Tag" : addAssociatedRecipeName(String recipeName)
activate ":Tag"

":Tag" - -> ":Cookbook"
destroy ":Tag"

":AddTagCommand" -> ":Cookbook" : addTagToRecipes(Tag createdTag)
activate ":Recipe"
":Cookbook" -> ":Recipe": addTagToRecipe(Tag tag, String recipeName)

":Recipe" - -> ":Cookbook"
destroy ":Recipe"

":Cookbook" - -> ":AddTagCommand"
destroy ":Cookbook"

":AddTagCommand" - -> ":Parser"
destroy ":AddTagCommand"

destroy ":Parser"





@enduml

PlantUML version 1.2021.11(Sat Oct 02 21:26:11 SGT 2021)
(GPL source distribution)
Java Runtime: OpenJDK Runtime Environment
JVM: OpenJDK 64-Bit Server VM
Default Encoding: Cp1252
Language: en
Country: US
--></g></svg>