<?xml version="1.0" encoding="UTF-8" standalone="no"?><svg xmlns="http://www.w3.org/2000/svg" xmlns:xlink="http://www.w3.org/1999/xlink" contentScriptType="application/ecmascript" contentStyleType="text/css" height="385px" preserveAspectRatio="none" style="width:492px;height:385px;background:#FFFFFF;" version="1.1" viewBox="0 0 492 385" width="492px" zoomAndPan="magnify"><defs/><g><!--MD5=[41f2db2ca7aecd6a21c8c9517294992e]
entity Gordon--><rect fill="#FFFFFF" height="36.0986" style="stroke:#000000;stroke-width:1.5;" width="68" x="273" y="25.5"/><text fill="#000000" font-family="Arial" font-size="14" lengthAdjust="spacing" textLength="48" x="283" y="48.6318">Gordon</text><!--MD5=[741b219722399659f6f45f15f8778079]
entity Cookbook--><rect fill="#B3DFF3" height="36.0986" style="stroke:#000000;stroke-width:1.5;" width="84" x="283" y="243"/><text fill="#000000" font-family="Arial" font-size="14" lengthAdjust="spacing" textLength="64" x="293" y="266.1318">Cookbook</text><!--MD5=[547e5be7f563143869b00d49076986bb]
entity Recipe--><rect fill="#B3DFF3" height="36.0986" style="stroke:#000000;stroke-width:1.5;" width="64" x="188" y="343.5"/><text fill="#000000" font-family="Arial" font-size="14" lengthAdjust="spacing" textLength="44" x="198" y="366.6318">Recipe</text><!--MD5=[b8966a4a60ec894312d4f55fd40cce21]
entity Parser--><rect fill="#FDFCBE" height="36.0986" style="stroke:#000000;stroke-width:1.5;" width="62" x="174" y="142.5"/><text fill="#000000" font-family="Arial" font-size="14" lengthAdjust="spacing" textLength="42" x="184" y="165.6318">Parser</text><!--MD5=[c32e2cb6c119bdb95b21c18c90004fcb]
entity Tag--><rect fill="#FDFCBE" height="36.0986" style="stroke:#000000;stroke-width:1.5;" width="45" x="302.5" y="343.5"/><text fill="#000000" font-family="Arial" font-size="14" lengthAdjust="spacing" textLength="25" x="312.5" y="366.6318">Tag</text><!--MD5=[cf25d34b6f9695ab689953484c0b6ae1]
entity Storage--><rect fill="#FDFCBE" height="36.0986" style="stroke:#000000;stroke-width:1.5;" width="70" x="360" y="142.5"/><text fill="#000000" font-family="Arial" font-size="14" lengthAdjust="spacing" textLength="50" x="370" y="165.6318">Storage</text><!--MD5=[e92c63db3bab30672c9b345919c8e067]
entity Command--><rect fill="#DFF3B3" height="36.0986" style="stroke:#000000;stroke-width:1.5;" width="86" x="162" y="243"/><text fill="#000000" font-family="Arial" font-size="14" lengthAdjust="spacing" textLength="66" x="172" y="266.1318">Command</text><!--MD5=[c42ed81cef7fdd2e33758127945b9a5b]
entity UI--><rect fill="#FDFCBE" height="36.0986" style="stroke:#000000;stroke-width:1.5;" width="34" x="93" y="243"/><text fill="#000000" font-family="Arial" font-size="14" lengthAdjust="spacing" textLength="14" x="103" y="266.1318">UI</text><!--MD5=[d4f9b594050708cb7a52296dfc3754df]
entity GordonException--><rect fill="#F4C7F8" height="36.0986" style="stroke:#000000;stroke-width:1.5;" width="130" x="7" y="343.5"/><text fill="#000000" font-family="Arial" font-size="14" lengthAdjust="spacing" textLength="110" x="17" y="366.6318">GordonException</text><!--MD5=[fee662a292a0353a69bd162820bae93b]
entity User--><ellipse cx="223" cy="14" fill="#FEFECE" rx="8" ry="8" style="stroke:#A80036;stroke-width:1.5;"/><path d="M223,22 L223,49 M210,30 L236,30 M223,49 L210,64 M223,49 L236,64 " fill="none" style="stroke:#A80036;stroke-width:1.5;"/><text fill="#000000" font-family="Arial" font-size="14" lengthAdjust="spacing" textLength="30" x="208" y="79.6318">User</text><!--MD5=[9a257c091ea724fcab3aa14fba5221ab]
entity Computer--><path d="M402.5,248.5 C402.5,238.5 444,238.5 444,238.5 C444,238.5 485.5,238.5 485.5,248.5 L485.5,273.5986 C485.5,283.5986 444,283.5986 444,283.5986 C444,283.5986 402.5,283.5986 402.5,273.5986 L402.5,248.5 " fill="#FEFECE" style="stroke:#000000;stroke-width:1.5;"/><path d="M402.5,248.5 C402.5,258.5 444,258.5 444,258.5 C444,258.5 485.5,258.5 485.5,248.5 " fill="none" style="stroke:#000000;stroke-width:1.5;"/><text fill="#000000" font-family="Arial" font-size="14" lengthAdjust="spacing" textLength="63" x="412.5" y="275.6318">Computer</text><!--MD5=[fb2ec184cdcca323bee4a2fefc75fd2c]
link User to Gordon--><path d="M238.09,43.5 C247.95,43.5 257.81,43.5 267.66,43.5 " fill="none" id="User-to-Gordon" style="stroke:#000000;stroke-width:2.0;stroke-dasharray:7.0,7.0;"/><polygon fill="#000000" points="272.82,43.5,263.82,39.5,267.82,43.5,263.82,47.5,272.82,43.5" style="stroke:#000000;stroke-width:2.0;"/><!--MD5=[fccd09dadfd2ae6cd3e8c6d5f9633688]
link Gordon to Parser--><path d="M291.51,61.97 C273.36,82.43 243.29,116.33 223.81,138.29 " fill="none" id="Gordon-to-Parser" style="stroke:#000000;stroke-width:2.0;"/><polygon fill="#000000" points="220.3,142.25,229.2699,138.1829,223.6227,138.5137,223.2919,132.8666,220.3,142.25" style="stroke:#000000;stroke-width:2.0;"/><!--MD5=[f7fdfe1210dc69bc196ba4f16763d598]
link Gordon to Cookbook--><path d="M308.44,61.77 C311.69,100.64 319.57,194.95 323.16,237.96 " fill="none" id="Gordon-to-Cookbook" style="stroke:#000000;stroke-width:2.0;"/><polygon fill="#000000" points="323.58,242.95,326.8188,233.6489,323.1648,237.9673,318.8464,234.3133,323.58,242.95" style="stroke:#000000;stroke-width:2.0;"/><!--MD5=[68603343bf12088bbc6229c5a1ddbccd]
link Parser to GordonException--><path d="M173.98,170.19 C142.84,180.74 96.49,201.84 75,238.5 C56.92,269.34 61.37,312.53 66.51,338.39 " fill="none" id="Parser-to-GordonException" style="stroke:#000000;stroke-width:2.0;"/><polygon fill="#000000" points="67.54,343.33,69.6058,333.7002,66.5128,338.4366,61.7764,335.3437,67.54,343.33" style="stroke:#000000;stroke-width:2.0;"/><!--MD5=[1527c5e0a23bb139177c138922693487]
link Command to GordonException--><path d="M181.83,279.16 C158.9,296.14 123.78,322.15 99.46,340.17 " fill="none" id="Command-to-GordonException" style="stroke:#000000;stroke-width:2.0;"/><polygon fill="#000000" points="95.35,343.21,104.9587,341.0484,99.362,340.226,100.1843,334.6293,95.35,343.21" style="stroke:#000000;stroke-width:2.0;"/><!--MD5=[304c2a0fff84287662f340ee1039b41a]
link Storage to Cookbook--><path d="M379.69,183.04 C368.06,199.41 352.13,221.83 340.46,238.25 " fill="none" id="Storage-Cookbook" style="stroke:#000000;stroke-width:2.0;"/><polygon fill="#000000" points="337.29,242.71,345.7694,237.7001,340.1908,238.6375,339.2534,233.0588,337.29,242.71" style="stroke:#000000;stroke-width:2.0;"/><polygon fill="#000000" points="382.81,178.66,374.3389,183.6839,379.916,182.7373,380.8626,188.3144,382.81,178.66" style="stroke:#000000;stroke-width:2.0;"/><!--MD5=[715f7ef2130ffb82fd90f08502bd9772]
link Cookbook to Recipe--><path d="M306.71,279.16 C288.75,296 261.34,321.72 242.15,339.72 " fill="none" id="Cookbook-to-Recipe" style="stroke:#000000;stroke-width:2.0;"/><polygon fill="#000000" points="238.43,343.21,247.7253,339.9545,242.071,339.7832,242.2423,334.1289,238.43,343.21" style="stroke:#000000;stroke-width:2.0;"/><!--MD5=[3c3075692205822d712cafcfcd4e3411]
link Cookbook to Tag--><path d="M325,279.16 C325,295.44 325,320.02 325,337.89 " fill="none" id="Cookbook-to-Tag" style="stroke:#000000;stroke-width:2.0;"/><polygon fill="#000000" points="325,343.21,329,334.21,325,338.21,321,334.21,325,343.21" style="stroke:#000000;stroke-width:2.0;"/><!--MD5=[98bae1954b1fe6593e4f2df2463b5756]
link Gordon to Storage--><path d="M320.37,61.97 C335.96,82.35 361.75,116.05 378.56,138.02 " fill="none" id="Gordon-to-Storage" style="stroke:#000000;stroke-width:2.0;"/><polygon fill="#000000" points="381.8,142.25,379.5014,132.6731,378.759,138.281,373.1511,137.5387,381.8,142.25" style="stroke:#000000;stroke-width:2.0;"/><!--MD5=[a0d2efedb7b8f49e5c2a1cbeb027892e]
link Parser to Cookbook--><path d="M225.9,178.66 C246.51,195.57 278.02,221.44 299.95,239.44 " fill="none" id="Parser-to-Cookbook" style="stroke:#000000;stroke-width:2.0;"/><polygon fill="#000000" points="303.93,242.71,299.5026,233.9124,300.0621,239.5415,294.433,240.101,303.93,242.71" style="stroke:#000000;stroke-width:2.0;"/><!--MD5=[f0ffe6497b7d1d01b68217af11f4b39a]
link Parser to Command--><path d="M205,178.66 C205,194.94 205,219.52 205,237.39 " fill="none" id="Parser-to-Command" style="stroke:#000000;stroke-width:2.0;"/><polygon fill="#000000" points="205,242.71,209,233.71,205,237.71,201,233.71,205,242.71" style="stroke:#000000;stroke-width:2.0;"/><!--MD5=[a8265ed15887790969856d236eb33ee5]
link Parser to UI--><path d="M188.45,178.66 C172.34,195.36 147.81,220.79 130.48,238.77 " fill="none" id="Parser-to-UI" style="stroke:#000000;stroke-width:2.0;"/><polygon fill="#000000" points="126.68,242.71,135.8066,239.0079,130.1507,239.1108,130.0478,233.4549,126.68,242.71" style="stroke:#000000;stroke-width:2.0;"/><!--MD5=[a2ecffcfda22d9b85273b1db134bbcd7]
link Command to Recipe--><path d="M207.61,279.16 C210.09,295.44 213.84,320.02 216.56,337.89 " fill="none" id="Command-to-Recipe" style="stroke:#000000;stroke-width:2.0;"/><polygon fill="#000000" points="217.37,343.21,219.9612,333.7081,216.6129,338.2676,212.0534,334.9194,217.37,343.21" style="stroke:#000000;stroke-width:2.0;"/><!--MD5=[abd12613f08bc6378f15c013f4a56f77]
link Storage to Computer--><path d="M403.54,178.66 C411.05,193.77 422.13,216.03 430.79,233.44 " fill="none" id="Storage-to-Computer" style="stroke:#000000;stroke-width:2.0;stroke-dasharray:7.0,7.0;"/><polygon fill="#000000" points="433.16,238.22,432.7254,228.3807,430.9297,233.745,425.5654,231.9493,433.16,238.22" style="stroke:#000000;stroke-width:2.0;"/><!--MD5=[887259bf0a3dd4d4b90b78cb74fc376b]
@startuml
!include Style.puml
skinparam ArrowColor black
hide empty fields
hide empty methods

actor User
database Computer

rectangle Gordon {
}

rectangle Cookbook LOGIC_BLUE_1 {
}

rectangle Recipe LOGIC_BLUE_1 {
}

rectangle Parser LOGIC_YELLOW_1 {
}

rectangle Tag LOGIC_YELLOW_1 {
}

rectangle Storage LOGIC_YELLOW_1 {
}

rectangle Command LOGIC_GREEN_1 {
}

rectangle UI LOGIC_YELLOW_1 {
}

rectangle GordonException LOGIC_PINK_1 {
}

User .> Gordon
Gordon - -> Parser
Gordon - - -> Cookbook
Parser - -> GordonException
Command - -> GordonException
Storage <- -> Cookbook
Cookbook - -> Recipe
Cookbook - -> Tag
Gordon - -> Storage
Parser - -> Cookbook
Parser - -> Command
Parser - -> UI

Command - -> Recipe
Storage ..> Computer
@enduml

@startuml






hide circle
skinparam backgroundColor white
skinparam defaultFontName Arial
skinparam shadowing false
skinparam arrowThickness 2
skinparam classAttributeIconSize 0
skinparam ArrowColor black
hide empty fields
hide empty methods

actor User
database Computer

rectangle Gordon {
}

rectangle Cookbook #b3dff3 {
}

rectangle Recipe #b3dff3 {
}

rectangle Parser #fdfcbe {
}

rectangle Tag #fdfcbe {
}

rectangle Storage #fdfcbe {
}

rectangle Command #DFF3B3 {
}

rectangle UI #fdfcbe {
}

rectangle GordonException #f4c7f8 {
}

User .> Gordon
Gordon - -> Parser
Gordon - - -> Cookbook
Parser - -> GordonException
Command - -> GordonException
Storage <- -> Cookbook
Cookbook - -> Recipe
Cookbook - -> Tag
Gordon - -> Storage
Parser - -> Cookbook
Parser - -> Command
Parser - -> UI

Command - -> Recipe
Storage ..> Computer
@enduml

PlantUML version 1.2021.11(Sat Oct 02 21:26:11 SGT 2021)
(GPL source distribution)
Java Runtime: OpenJDK Runtime Environment
JVM: OpenJDK 64-Bit Server VM
Default Encoding: UTF-8
Language: en
Country: GB
--></g></svg>