<?xml version="1.0" encoding="UTF-8" standalone="no"?><svg xmlns="http://www.w3.org/2000/svg" xmlns:xlink="http://www.w3.org/1999/xlink" contentScriptType="application/ecmascript" contentStyleType="text/css" height="301px" preserveAspectRatio="none" style="width:1211px;height:301px;background:#FFFFFF;" version="1.1" viewBox="0 0 1211 301" width="1211px" zoomAndPan="magnify"><defs/><g><rect fill="#FFDAB9" height="209.9448" style="stroke:#000000;stroke-width:1.0;" width="10" x="99" y="67.0474"/><rect fill="#FFDAB9" height="25" style="stroke:#000000;stroke-width:1.0;" width="10" x="104" y="103.9961"/><rect fill="#FFDAB9" height="102.0474" style="stroke:#000000;stroke-width:1.0;" width="10" x="542" y="174.9448"/><rect fill="#FFDAB9" height="56.9487" style="stroke:#000000;stroke-width:1.0;" width="10" x="851" y="206.0435"/><rect fill="#FFDAB9" height="14" style="stroke:#000000;stroke-width:1.0;" width="10" x="1169" y="234.9922"/><line style="stroke:#000000;stroke-width:1.0;stroke-dasharray:5.0,5.0;" x1="104" x2="104" y1="36.0986" y2="294.9922"/><line style="stroke:#000000;stroke-width:1.0;stroke-dasharray:5.0,5.0;" x1="547" x2="547" y1="174.5454" y2="294.9922"/><line style="stroke:#000000;stroke-width:1.0;stroke-dasharray:5.0,5.0;" x1="856" x2="856" y1="36.0986" y2="294.9922"/><line style="stroke:#000000;stroke-width:1.0;stroke-dasharray:5.0,5.0;" x1="1174" x2="1174" y1="36.0986" y2="294.9922"/><rect fill="#FEFECE" height="30.0986" style="stroke:#000000;stroke-width:1.5;" width="60" x="74" y="5"/><text fill="#000000" font-family="Arial" font-size="14" lengthAdjust="spacing" textLength="46" x="81" y="25.1318">:Parser</text><rect fill="#FEFECE" height="30.0986" style="stroke:#000000;stroke-width:1.5;" width="82" x="815" y="5"/><text fill="#000000" font-family="Arial" font-size="14" lengthAdjust="spacing" textLength="68" x="822" y="25.1318">:Cookbook</text><rect fill="#FEFECE" height="30.0986" style="stroke:#000000;stroke-width:1.5;" width="62" x="1143" y="5"/><text fill="#000000" font-family="Arial" font-size="14" lengthAdjust="spacing" textLength="48" x="1150" y="25.1318">:Recipe</text><rect fill="#FFDAB9" height="209.9448" style="stroke:#000000;stroke-width:1.0;" width="10" x="99" y="67.0474"/><rect fill="#FFDAB9" height="25" style="stroke:#000000;stroke-width:1.0;" width="10" x="104" y="103.9961"/><rect fill="#FFDAB9" height="102.0474" style="stroke:#000000;stroke-width:1.0;" width="10" x="542" y="174.9448"/><rect fill="#FFDAB9" height="56.9487" style="stroke:#000000;stroke-width:1.0;" width="10" x="851" y="206.0435"/><rect fill="#FFDAB9" height="14" style="stroke:#000000;stroke-width:1.0;" width="10" x="1169" y="234.9922"/><polygon fill="#000000" points="87,63.0474,97,67.0474,87,71.0474,91,67.0474" style="stroke:#000000;stroke-width:1.0;"/><line style="stroke:#000000;stroke-width:2.0;stroke-dasharray:2.0,2.0;" x1="0" x2="93" y1="67.0474" y2="67.0474"/><text fill="#000000" font-family="Arial" font-size="13" lengthAdjust="spacing" textLength="80" x="7" y="62.2925">parseMaster()</text><line style="stroke:#000000;stroke-width:2.0;" x1="109" x2="156" y1="90.9961" y2="90.9961"/><line style="stroke:#000000;stroke-width:2.0;" x1="156" x2="156" y1="90.9961" y2="103.9961"/><line style="stroke:#000000;stroke-width:2.0;" x1="115" x2="156" y1="103.9961" y2="103.9961"/><polygon fill="#000000" points="125,99.9961,115,103.9961,125,107.9961,121,103.9961" style="stroke:#000000;stroke-width:1.0;"/><text fill="#000000" font-family="Arial" font-size="13" lengthAdjust="spacing" textLength="62" x="121" y="86.2412">findParse()</text><line style="stroke:#000000;stroke-width:2.0;stroke-dasharray:2.0,2.0;" x1="114" x2="156" y1="127.9961" y2="127.9961"/><line style="stroke:#000000;stroke-width:2.0;stroke-dasharray:2.0,2.0;" x1="156" x2="156" y1="127.9961" y2="140.9961"/><line style="stroke:#000000;stroke-width:2.0;stroke-dasharray:2.0,2.0;" x1="109" x2="156" y1="140.9961" y2="140.9961"/><polygon fill="#000000" points="119,136.9961,109,140.9961,119,144.9961,115,140.9961" style="stroke:#000000;stroke-width:1.0;"/><polygon fill="#000000" points="445,160.9448,455,164.9448,445,168.9448,449,164.9448" style="stroke:#000000;stroke-width:1.0;"/><line style="stroke:#000000;stroke-width:2.0;" x1="109" x2="451" y1="164.9448" y2="164.9448"/><text fill="#000000" font-family="Arial" font-size="13" lengthAdjust="spacing" textLength="324" x="116" y="160.1899">FindIngredientsCommand(ArrayList&lt;String&gt; ingredients)</text><rect fill="#FEFECE" height="30.0986" style="stroke:#000000;stroke-width:1.5;" width="180" x="457" y="143.9961"/><text fill="#000000" font-family="Arial" font-size="14" lengthAdjust="spacing" textLength="166" x="464" y="164.1279">:FindIngredientsCommand</text><polygon fill="#000000" points="839,202.0435,849,206.0435,839,210.0435,843,206.0435" style="stroke:#000000;stroke-width:1.0;"/><line style="stroke:#000000;stroke-width:2.0;" x1="552" x2="845" y1="206.0435" y2="206.0435"/><text fill="#000000" font-family="Arial" font-size="13" lengthAdjust="spacing" textLength="280" x="559" y="201.2886">filterByIngredients(ArrayList&lt;String&gt; ingredients)</text><polygon fill="#000000" points="1157,230.9922,1167,234.9922,1157,238.9922,1161,234.9922" style="stroke:#000000;stroke-width:1.0;"/><line style="stroke:#000000;stroke-width:2.0;" x1="861" x2="1163" y1="234.9922" y2="234.9922"/><text fill="#000000" font-family="Arial" font-size="13" lengthAdjust="spacing" textLength="289" x="868" y="230.2373">containsIngredients(ArrayList&lt;String&gt; ingredients)</text><polygon fill="#000000" points="872,244.9922,862,248.9922,872,252.9922,868,248.9922" style="stroke:#000000;stroke-width:1.0;"/><line style="stroke:#000000;stroke-width:2.0;stroke-dasharray:2.0,2.0;" x1="866" x2="1173" y1="248.9922" y2="248.9922"/><line style="stroke:#000000;stroke-width:2.0;" x1="1165" x2="1183" y1="239.9922" y2="257.9922"/><line style="stroke:#000000;stroke-width:2.0;" x1="1165" x2="1183" y1="257.9922" y2="239.9922"/><polygon fill="#000000" points="563,258.9922,553,262.9922,563,266.9922,559,262.9922" style="stroke:#000000;stroke-width:1.0;"/><line style="stroke:#000000;stroke-width:2.0;stroke-dasharray:2.0,2.0;" x1="557" x2="855" y1="262.9922" y2="262.9922"/><line style="stroke:#000000;stroke-width:2.0;" x1="847" x2="865" y1="253.9922" y2="271.9922"/><line style="stroke:#000000;stroke-width:2.0;" x1="847" x2="865" y1="271.9922" y2="253.9922"/><polygon fill="#000000" points="115,272.9922,105,276.9922,115,280.9922,111,276.9922" style="stroke:#000000;stroke-width:1.0;"/><line style="stroke:#000000;stroke-width:2.0;stroke-dasharray:2.0,2.0;" x1="109" x2="546" y1="276.9922" y2="276.9922"/><line style="stroke:#000000;stroke-width:2.0;" x1="538" x2="556" y1="267.9922" y2="285.9922"/><line style="stroke:#000000;stroke-width:2.0;" x1="538" x2="556" y1="285.9922" y2="267.9922"/><line style="stroke:#000000;stroke-width:2.0;" x1="95" x2="113" y1="267.9922" y2="285.9922"/><line style="stroke:#000000;stroke-width:2.0;" x1="95" x2="113" y1="285.9922" y2="267.9922"/><!--MD5=[e8ac2541aa2a42abf0386b9d21fa9491]
@startuml

hide footbox

!include Style.puml
skinparam sequence {
ParticipantBorderColor black
LifeLineBorderColor black
LifeLineBackgroundColor peachpuff
}

skinparam sequenceArrowColor black

- -> ":Parser": parseMaster()
activate ":Parser"

' Name
":Parser" -> ":Parser": findParse()
activate ":Parser"

":Parser" - -> ":Parser"
deactivate ":Parser"

create ":FindIngredientsCommand"
":Parser" -> ":FindIngredientsCommand": FindIngredientsCommand(ArrayList<String> ingredients)
activate ":FindIngredientsCommand"

":FindIngredientsCommand" -> ":Cookbook" : filterByIngredients(ArrayList<String> ingredients)
activate ":Cookbook"

":Cookbook" -> ":Recipe": containsIngredients(ArrayList<String> ingredients)
activate ":Recipe"

":Recipe" - -> ":Cookbook"
destroy ":Recipe"

":Cookbook" - -> ":FindIngredientsCommand"
destroy ":Cookbook"

":FindIngredientsCommand" - -> ":Parser"
destroy ":FindIngredientsCommand"

destroy ":Parser"

@enduml

@startuml

hide footbox







hide circle
skinparam backgroundColor white
skinparam defaultFontName Arial
skinparam shadowing false
skinparam arrowThickness 2
skinparam classAttributeIconSize 0
skinparam sequence {
ParticipantBorderColor black
LifeLineBorderColor black
LifeLineBackgroundColor peachpuff
}

skinparam sequenceArrowColor black

- -> ":Parser": parseMaster()
activate ":Parser"

":Parser" -> ":Parser": findParse()
activate ":Parser"

":Parser" - -> ":Parser"
deactivate ":Parser"

create ":FindIngredientsCommand"
":Parser" -> ":FindIngredientsCommand": FindIngredientsCommand(ArrayList<String> ingredients)
activate ":FindIngredientsCommand"

":FindIngredientsCommand" -> ":Cookbook" : filterByIngredients(ArrayList<String> ingredients)
activate ":Cookbook"

":Cookbook" -> ":Recipe": containsIngredients(ArrayList<String> ingredients)
activate ":Recipe"

":Recipe" - -> ":Cookbook"
destroy ":Recipe"

":Cookbook" - -> ":FindIngredientsCommand"
destroy ":Cookbook"

":FindIngredientsCommand" - -> ":Parser"
destroy ":FindIngredientsCommand"

destroy ":Parser"

@enduml

PlantUML version 1.2021.11(Sat Oct 02 21:26:11 SGT 2021)
(GPL source distribution)
Java Runtime: OpenJDK Runtime Environment
JVM: OpenJDK 64-Bit Server VM
Default Encoding: Cp1252
Language: en
Country: US
--></g></svg>