<?xml version="1.0" encoding="UTF-8" standalone="no"?><svg xmlns="http://www.w3.org/2000/svg" xmlns:xlink="http://www.w3.org/1999/xlink" contentScriptType="application/ecmascript" contentStyleType="text/css" height="289px" preserveAspectRatio="none" style="width:1125px;height:289px;background:#FFFFFF;" version="1.1" viewBox="0 0 1125 289" width="1125px" zoomAndPan="magnify"><defs/><g><rect fill="#FFDAB9" height="197.7949" style="stroke:#000000;stroke-width:1.0;" width="10" x="99" y="67.0474"/><rect fill="#FFDAB9" height="25" style="stroke:#000000;stroke-width:1.0;" width="10" x="104" y="103.9961"/><rect fill="#FFDAB9" height="99.8975" style="stroke:#000000;stroke-width:1.0;" width="10" x="453" y="164.9448"/><rect fill="#FFDAB9" height="56.9487" style="stroke:#000000;stroke-width:1.0;" width="10" x="764" y="193.8936"/><rect fill="#FFDAB9" height="14" style="stroke:#000000;stroke-width:1.0;" width="10" x="1083" y="222.8423"/><line style="stroke:#000000;stroke-width:1.0;stroke-dasharray:5.0,5.0;" x1="104" x2="104" y1="36.0986" y2="282.8423"/><line style="stroke:#000000;stroke-width:1.0;stroke-dasharray:5.0,5.0;" x1="457.5" x2="457.5" y1="36.0986" y2="282.8423"/><line style="stroke:#000000;stroke-width:1.0;stroke-dasharray:5.0,5.0;" x1="769" x2="769" y1="36.0986" y2="282.8423"/><line style="stroke:#000000;stroke-width:1.0;stroke-dasharray:5.0,5.0;" x1="1088" x2="1088" y1="36.0986" y2="282.8423"/><rect fill="#FEFECE" height="30.0986" style="stroke:#000000;stroke-width:1.5;" width="60" x="74" y="5"/><text fill="#000000" font-family="Arial" font-size="14" lengthAdjust="spacing" textLength="46" x="81" y="25.1318">:Parser</text><rect fill="#FEFECE" height="30.0986" style="stroke:#000000;stroke-width:1.5;" width="183" x="366.5" y="5"/><text fill="#000000" font-family="Arial" font-size="14" lengthAdjust="spacing" textLength="169" x="373.5" y="25.1318">:FindIngredientsCommand</text><rect fill="#FEFECE" height="30.0986" style="stroke:#000000;stroke-width:1.5;" width="82" x="728" y="5"/><text fill="#000000" font-family="Arial" font-size="14" lengthAdjust="spacing" textLength="68" x="735" y="25.1318">:Cookbook</text><rect fill="#FEFECE" height="30.0986" style="stroke:#000000;stroke-width:1.5;" width="62" x="1057" y="5"/><text fill="#000000" font-family="Arial" font-size="14" lengthAdjust="spacing" textLength="48" x="1064" y="25.1318">:Recipe</text><rect fill="#FFDAB9" height="197.7949" style="stroke:#000000;stroke-width:1.0;" width="10" x="99" y="67.0474"/><rect fill="#FFDAB9" height="25" style="stroke:#000000;stroke-width:1.0;" width="10" x="104" y="103.9961"/><rect fill="#FFDAB9" height="99.8975" style="stroke:#000000;stroke-width:1.0;" width="10" x="453" y="164.9448"/><rect fill="#FFDAB9" height="56.9487" style="stroke:#000000;stroke-width:1.0;" width="10" x="764" y="193.8936"/><rect fill="#FFDAB9" height="14" style="stroke:#000000;stroke-width:1.0;" width="10" x="1083" y="222.8423"/><polygon fill="#000000" points="87,63.0474,97,67.0474,87,71.0474,91,67.0474" style="stroke:#000000;stroke-width:1.0;"/><line style="stroke:#000000;stroke-width:2.0;stroke-dasharray:2.0,2.0;" x1="0" x2="93" y1="67.0474" y2="67.0474"/><text fill="#000000" font-family="Arial" font-size="13" lengthAdjust="spacing" textLength="80" x="7" y="62.2925">parseMaster()</text><line style="stroke:#000000;stroke-width:2.0;" x1="109" x2="156" y1="90.9961" y2="90.9961"/><line style="stroke:#000000;stroke-width:2.0;" x1="156" x2="156" y1="90.9961" y2="103.9961"/><line style="stroke:#000000;stroke-width:2.0;" x1="115" x2="156" y1="103.9961" y2="103.9961"/><polygon fill="#000000" points="125,99.9961,115,103.9961,125,107.9961,121,103.9961" style="stroke:#000000;stroke-width:1.0;"/><text fill="#000000" font-family="Arial" font-size="13" lengthAdjust="spacing" textLength="63" x="121" y="86.2412">findParse()</text><line style="stroke:#000000;stroke-width:2.0;stroke-dasharray:2.0,2.0;" x1="114" x2="156" y1="127.9961" y2="127.9961"/><line style="stroke:#000000;stroke-width:2.0;stroke-dasharray:2.0,2.0;" x1="156" x2="156" y1="127.9961" y2="140.9961"/><line style="stroke:#000000;stroke-width:2.0;stroke-dasharray:2.0,2.0;" x1="109" x2="156" y1="140.9961" y2="140.9961"/><polygon fill="#000000" points="119,136.9961,109,140.9961,119,144.9961,115,140.9961" style="stroke:#000000;stroke-width:1.0;"/><polygon fill="#000000" points="441,160.9448,451,164.9448,441,168.9448,445,164.9448" style="stroke:#000000;stroke-width:1.0;"/><line style="stroke:#000000;stroke-width:2.0;" x1="109" x2="447" y1="164.9448" y2="164.9448"/><text fill="#000000" font-family="Arial" font-size="13" lengthAdjust="spacing" textLength="325" x="116" y="160.1899">FindIngredientsCommand(ArrayList&lt;String&gt; ingredients)</text><polygon fill="#000000" points="752,189.8936,762,193.8936,752,197.8936,756,193.8936" style="stroke:#000000;stroke-width:1.0;"/><line style="stroke:#000000;stroke-width:2.0;" x1="463" x2="758" y1="193.8936" y2="193.8936"/><text fill="#000000" font-family="Arial" font-size="13" lengthAdjust="spacing" textLength="282" x="470" y="189.1387">filterByIngredients(ArrayList&lt;String&gt; ingredients)</text><polygon fill="#000000" points="1071,218.8423,1081,222.8423,1071,226.8423,1075,222.8423" style="stroke:#000000;stroke-width:1.0;"/><line style="stroke:#000000;stroke-width:2.0;" x1="774" x2="1077" y1="222.8423" y2="222.8423"/><text fill="#000000" font-family="Arial" font-size="13" lengthAdjust="spacing" textLength="290" x="781" y="218.0874">containsIngredients(ArrayList&lt;String&gt; ingredients)</text><polygon fill="#000000" points="785,232.8423,775,236.8423,785,240.8423,781,236.8423" style="stroke:#000000;stroke-width:1.0;"/><line style="stroke:#000000;stroke-width:2.0;stroke-dasharray:2.0,2.0;" x1="779" x2="1087" y1="236.8423" y2="236.8423"/><line style="stroke:#000000;stroke-width:2.0;" x1="1079" x2="1097" y1="227.8423" y2="245.8423"/><line style="stroke:#000000;stroke-width:2.0;" x1="1079" x2="1097" y1="245.8423" y2="227.8423"/><polygon fill="#000000" points="474,246.8423,464,250.8423,474,254.8423,470,250.8423" style="stroke:#000000;stroke-width:1.0;"/><line style="stroke:#000000;stroke-width:2.0;stroke-dasharray:2.0,2.0;" x1="468" x2="768" y1="250.8423" y2="250.8423"/><line style="stroke:#000000;stroke-width:2.0;" x1="760" x2="778" y1="241.8423" y2="259.8423"/><line style="stroke:#000000;stroke-width:2.0;" x1="760" x2="778" y1="259.8423" y2="241.8423"/><polygon fill="#000000" points="115,260.8423,105,264.8423,115,268.8423,111,264.8423" style="stroke:#000000;stroke-width:1.0;"/><line style="stroke:#000000;stroke-width:2.0;stroke-dasharray:2.0,2.0;" x1="109" x2="457" y1="264.8423" y2="264.8423"/><line style="stroke:#000000;stroke-width:2.0;" x1="449" x2="467" y1="255.8423" y2="273.8423"/><line style="stroke:#000000;stroke-width:2.0;" x1="449" x2="467" y1="273.8423" y2="255.8423"/><line style="stroke:#000000;stroke-width:2.0;" x1="95" x2="113" y1="255.8423" y2="273.8423"/><line style="stroke:#000000;stroke-width:2.0;" x1="95" x2="113" y1="273.8423" y2="255.8423"/><!--MD5=[bac893f67cbd8485e81c198d7cb0793e]
@startuml

hide footbox

!include Style.puml
skinparam sequence {
ParticipantBorderColor black
LifeLineBorderColor black
LifeLineBackgroundColor peachpuff
}

skinparam sequenceArrowColor black

- -> ":Parser": parseMaster()
activate ":Parser"

' Name
":Parser" -> ":Parser": findParse()
activate ":Parser"

":Parser" - -> ":Parser"
deactivate ":Parser"

":Parser" -> ":FindIngredientsCommand": FindIngredientsCommand(ArrayList<String> ingredients)
activate ":FindIngredientsCommand"

":FindIngredientsCommand" -> ":Cookbook" : filterByIngredients(ArrayList<String> ingredients)
activate ":Cookbook"

":Cookbook" -> ":Recipe": containsIngredients(ArrayList<String> ingredients)
activate ":Recipe"

":Recipe" - -> ":Cookbook"
destroy ":Recipe"

":Cookbook" - -> ":FindIngredientsCommand"
destroy ":Cookbook"

":FindIngredientsCommand" - -> ":Parser"
destroy ":FindIngredientsCommand"

destroy ":Parser"

@enduml

@startuml

hide footbox







hide circle
skinparam backgroundColor white
skinparam defaultFontName Arial
skinparam shadowing false
skinparam arrowThickness 2
skinparam classAttributeIconSize 0
skinparam sequence {
ParticipantBorderColor black
LifeLineBorderColor black
LifeLineBackgroundColor peachpuff
}

skinparam sequenceArrowColor black

- -> ":Parser": parseMaster()
activate ":Parser"

":Parser" -> ":Parser": findParse()
activate ":Parser"

":Parser" - -> ":Parser"
deactivate ":Parser"

":Parser" -> ":FindIngredientsCommand": FindIngredientsCommand(ArrayList<String> ingredients)
activate ":FindIngredientsCommand"

":FindIngredientsCommand" -> ":Cookbook" : filterByIngredients(ArrayList<String> ingredients)
activate ":Cookbook"

":Cookbook" -> ":Recipe": containsIngredients(ArrayList<String> ingredients)
activate ":Recipe"

":Recipe" - -> ":Cookbook"
destroy ":Recipe"

":Cookbook" - -> ":FindIngredientsCommand"
destroy ":Cookbook"

":FindIngredientsCommand" - -> ":Parser"
destroy ":FindIngredientsCommand"

destroy ":Parser"

@enduml

PlantUML version 1.2021.11(Sat Oct 02 21:26:11 SGT 2021)
(GPL source distribution)
Java Runtime: OpenJDK Runtime Environment
JVM: OpenJDK 64-Bit Server VM
Default Encoding: UTF-8
Language: en
Country: GB
--></g></svg>