<?xml version="1.0" encoding="UTF-8" standalone="no"?><svg xmlns="http://www.w3.org/2000/svg" xmlns:xlink="http://www.w3.org/1999/xlink" contentScriptType="application/ecmascript" contentStyleType="text/css" height="289px" preserveAspectRatio="none" style="width:1101px;height:289px;background:#FFFFFF;" version="1.1" viewBox="0 0 1101 289" width="1101px" zoomAndPan="magnify"><defs/><g><rect fill="#FFDAB9" height="197.7949" style="stroke:#000000;stroke-width:1.0;" width="10" x="79" y="67.0474"/><rect fill="#FFDAB9" height="25" style="stroke:#000000;stroke-width:1.0;" width="10" x="84" y="103.9961"/><rect fill="#FFDAB9" height="99.8975" style="stroke:#000000;stroke-width:1.0;" width="10" x="432" y="164.9448"/><rect fill="#FFDAB9" height="56.9487" style="stroke:#000000;stroke-width:1.0;" width="10" x="741" y="193.8936"/><rect fill="#FFDAB9" height="14" style="stroke:#000000;stroke-width:1.0;" width="10" x="1059" y="222.8423"/><line style="stroke:#000000;stroke-width:1.0;stroke-dasharray:5.0,5.0;" x1="84" x2="84" y1="36.0986" y2="282.8423"/><line style="stroke:#000000;stroke-width:1.0;stroke-dasharray:5.0,5.0;" x1="437" x2="437" y1="36.0986" y2="282.8423"/><line style="stroke:#000000;stroke-width:1.0;stroke-dasharray:5.0,5.0;" x1="746" x2="746" y1="36.0986" y2="282.8423"/><line style="stroke:#000000;stroke-width:1.0;stroke-dasharray:5.0,5.0;" x1="1064" x2="1064" y1="36.0986" y2="282.8423"/><rect fill="#FEFECE" height="30.0986" style="stroke:#000000;stroke-width:1.5;" width="60" x="54" y="5"/><text fill="#000000" font-family="Arial" font-size="14" lengthAdjust="spacing" textLength="46" x="61" y="25.1318">:Parser</text><rect fill="#FEFECE" height="30.0986" style="stroke:#000000;stroke-width:1.5;" width="180" x="347" y="5"/><text fill="#000000" font-family="Arial" font-size="14" lengthAdjust="spacing" textLength="166" x="354" y="25.1318">:FindIngredientsCommand</text><rect fill="#FEFECE" height="30.0986" style="stroke:#000000;stroke-width:1.5;" width="82" x="705" y="5"/><text fill="#000000" font-family="Arial" font-size="14" lengthAdjust="spacing" textLength="68" x="712" y="25.1318">:Cookbook</text><rect fill="#FEFECE" height="30.0986" style="stroke:#000000;stroke-width:1.5;" width="62" x="1033" y="5"/><text fill="#000000" font-family="Arial" font-size="14" lengthAdjust="spacing" textLength="48" x="1040" y="25.1318">:Recipe</text><rect fill="#FFDAB9" height="197.7949" style="stroke:#000000;stroke-width:1.0;" width="10" x="79" y="67.0474"/><rect fill="#FFDAB9" height="25" style="stroke:#000000;stroke-width:1.0;" width="10" x="84" y="103.9961"/><rect fill="#FFDAB9" height="99.8975" style="stroke:#000000;stroke-width:1.0;" width="10" x="432" y="164.9448"/><rect fill="#FFDAB9" height="56.9487" style="stroke:#000000;stroke-width:1.0;" width="10" x="741" y="193.8936"/><rect fill="#FFDAB9" height="14" style="stroke:#000000;stroke-width:1.0;" width="10" x="1059" y="222.8423"/><polygon fill="#000000" points="67,63.0474,77,67.0474,67,71.0474,71,67.0474" style="stroke:#000000;stroke-width:1.0;"/><line style="stroke:#000000;stroke-width:2.0;stroke-dasharray:2.0,2.0;" x1="0" x2="73" y1="67.0474" y2="67.0474"/><text fill="#000000" font-family="Arial" font-size="13" lengthAdjust="spacing" textLength="60" x="7" y="62.2925">setParse()</text><line style="stroke:#000000;stroke-width:2.0;" x1="89" x2="136" y1="90.9961" y2="90.9961"/><line style="stroke:#000000;stroke-width:2.0;" x1="136" x2="136" y1="90.9961" y2="103.9961"/><line style="stroke:#000000;stroke-width:2.0;" x1="95" x2="136" y1="103.9961" y2="103.9961"/><polygon fill="#000000" points="105,99.9961,95,103.9961,105,107.9961,101,103.9961" style="stroke:#000000;stroke-width:1.0;"/><text fill="#000000" font-family="Arial" font-size="13" lengthAdjust="spacing" textLength="132" x="101" y="86.2412">parseName(String line)</text><line style="stroke:#000000;stroke-width:2.0;stroke-dasharray:2.0,2.0;" x1="94" x2="136" y1="127.9961" y2="127.9961"/><line style="stroke:#000000;stroke-width:2.0;stroke-dasharray:2.0,2.0;" x1="136" x2="136" y1="127.9961" y2="140.9961"/><line style="stroke:#000000;stroke-width:2.0;stroke-dasharray:2.0,2.0;" x1="89" x2="136" y1="140.9961" y2="140.9961"/><polygon fill="#000000" points="99,136.9961,89,140.9961,99,144.9961,95,140.9961" style="stroke:#000000;stroke-width:1.0;"/><polygon fill="#000000" points="420,160.9448,430,164.9448,420,168.9448,424,164.9448" style="stroke:#000000;stroke-width:1.0;"/><line style="stroke:#000000;stroke-width:2.0;" x1="89" x2="426" y1="164.9448" y2="164.9448"/><text fill="#000000" font-family="Arial" font-size="13" lengthAdjust="spacing" textLength="324" x="96" y="160.1899">FindIngredientsCommand(ArrayList&lt;String&gt; ingredients)</text><polygon fill="#000000" points="729,189.8936,739,193.8936,729,197.8936,733,193.8936" style="stroke:#000000;stroke-width:1.0;"/><line style="stroke:#000000;stroke-width:2.0;" x1="442" x2="735" y1="193.8936" y2="193.8936"/><text fill="#000000" font-family="Arial" font-size="13" lengthAdjust="spacing" textLength="280" x="449" y="189.1387">filterByIngredients(ArrayList&lt;String&gt; ingredients)</text><polygon fill="#000000" points="1047,218.8423,1057,222.8423,1047,226.8423,1051,222.8423" style="stroke:#000000;stroke-width:1.0;"/><line style="stroke:#000000;stroke-width:2.0;" x1="751" x2="1053" y1="222.8423" y2="222.8423"/><text fill="#000000" font-family="Arial" font-size="13" lengthAdjust="spacing" textLength="289" x="758" y="218.0874">containsIngredients(ArrayList&lt;String&gt; ingredients)</text><polygon fill="#000000" points="762,232.8423,752,236.8423,762,240.8423,758,236.8423" style="stroke:#000000;stroke-width:1.0;"/><line style="stroke:#000000;stroke-width:2.0;stroke-dasharray:2.0,2.0;" x1="756" x2="1063" y1="236.8423" y2="236.8423"/><line style="stroke:#000000;stroke-width:2.0;" x1="1055" x2="1073" y1="227.8423" y2="245.8423"/><line style="stroke:#000000;stroke-width:2.0;" x1="1055" x2="1073" y1="245.8423" y2="227.8423"/><polygon fill="#000000" points="453,246.8423,443,250.8423,453,254.8423,449,250.8423" style="stroke:#000000;stroke-width:1.0;"/><line style="stroke:#000000;stroke-width:2.0;stroke-dasharray:2.0,2.0;" x1="447" x2="745" y1="250.8423" y2="250.8423"/><line style="stroke:#000000;stroke-width:2.0;" x1="737" x2="755" y1="241.8423" y2="259.8423"/><line style="stroke:#000000;stroke-width:2.0;" x1="737" x2="755" y1="259.8423" y2="241.8423"/><polygon fill="#000000" points="95,260.8423,85,264.8423,95,268.8423,91,264.8423" style="stroke:#000000;stroke-width:1.0;"/><line style="stroke:#000000;stroke-width:2.0;stroke-dasharray:2.0,2.0;" x1="89" x2="436" y1="264.8423" y2="264.8423"/><line style="stroke:#000000;stroke-width:2.0;" x1="428" x2="446" y1="255.8423" y2="273.8423"/><line style="stroke:#000000;stroke-width:2.0;" x1="428" x2="446" y1="273.8423" y2="255.8423"/><line style="stroke:#000000;stroke-width:2.0;" x1="75" x2="93" y1="255.8423" y2="273.8423"/><line style="stroke:#000000;stroke-width:2.0;" x1="75" x2="93" y1="273.8423" y2="255.8423"/><!--MD5=[5051522a4c30e7c058af0704ce8de339]
@startuml

hide footbox

!include Style.puml
skinparam sequence {
ParticipantBorderColor black
LifeLineBorderColor black
LifeLineBackgroundColor peachpuff
}

skinparam sequenceArrowColor black

- -> ":Parser": setParse()
activate ":Parser"

' Name
":Parser" -> ":Parser": parseName(String line)
activate ":Parser"

":Parser" - -> ":Parser"
deactivate ":Parser"

":Parser" -> ":FindIngredientsCommand": FindIngredientsCommand(ArrayList<String> ingredients)
activate ":FindIngredientsCommand"

":FindIngredientsCommand" -> ":Cookbook" : filterByIngredients(ArrayList<String> ingredients)
activate ":Cookbook"

":Cookbook" -> ":Recipe": containsIngredients(ArrayList<String> ingredients)
activate ":Recipe"

":Recipe" - -> ":Cookbook"
destroy ":Recipe"

":Cookbook" - -> ":FindIngredientsCommand"
destroy ":Cookbook"

":FindIngredientsCommand" - -> ":Parser"
destroy ":FindIngredientsCommand"

destroy ":Parser"

@enduml

@startuml

hide footbox







hide circle
skinparam backgroundColor white
skinparam defaultFontName Arial
skinparam shadowing false
skinparam arrowThickness 2
skinparam classAttributeIconSize 0
skinparam sequence {
ParticipantBorderColor black
LifeLineBorderColor black
LifeLineBackgroundColor peachpuff
}

skinparam sequenceArrowColor black

- -> ":Parser": setParse()
activate ":Parser"

":Parser" -> ":Parser": parseName(String line)
activate ":Parser"

":Parser" - -> ":Parser"
deactivate ":Parser"

":Parser" -> ":FindIngredientsCommand": FindIngredientsCommand(ArrayList<String> ingredients)
activate ":FindIngredientsCommand"

":FindIngredientsCommand" -> ":Cookbook" : filterByIngredients(ArrayList<String> ingredients)
activate ":Cookbook"

":Cookbook" -> ":Recipe": containsIngredients(ArrayList<String> ingredients)
activate ":Recipe"

":Recipe" - -> ":Cookbook"
destroy ":Recipe"

":Cookbook" - -> ":FindIngredientsCommand"
destroy ":Cookbook"

":FindIngredientsCommand" - -> ":Parser"
destroy ":FindIngredientsCommand"

destroy ":Parser"

@enduml

PlantUML version 1.2021.11(Sat Oct 02 21:26:11 SGT 2021)
(GPL source distribution)
Java Runtime: OpenJDK Runtime Environment
JVM: OpenJDK 64-Bit Server VM
Default Encoding: Cp1252
Language: en
Country: SG
--></g></svg>