<?xml version="1.0" encoding="UTF-8" standalone="no"?><svg xmlns="http://www.w3.org/2000/svg" xmlns:xlink="http://www.w3.org/1999/xlink" contentScriptType="application/ecmascript" contentStyleType="text/css" height="273px" preserveAspectRatio="none" style="width:462px;height:273px;background:#FFFFFF;" version="1.1" viewBox="0 0 462 273" width="462px" zoomAndPan="magnify"><defs/><g><rect fill="#FFDAB9" height="181.9448" style="stroke:#000000;stroke-width:1.0;" width="10" x="99" y="67.0474"/><rect fill="#FFDAB9" height="25" style="stroke:#000000;stroke-width:1.0;" width="10" x="104" y="145.0947"/><rect fill="#FFDAB9" height="142.9961" style="stroke:#000000;stroke-width:1.0;" width="10" x="276" y="105.9961"/><rect fill="#FFDAB9" height="28.9487" style="stroke:#000000;stroke-width:1.0;" width="10" x="436" y="206.0435"/><line style="stroke:#000000;stroke-width:1.0;stroke-dasharray:5.0,5.0;" x1="104" x2="104" y1="36.0986" y2="266.9922"/><line style="stroke:#000000;stroke-width:1.0;stroke-dasharray:5.0,5.0;" x1="281" x2="281" y1="105.5967" y2="266.9922"/><line style="stroke:#000000;stroke-width:1.0;stroke-dasharray:5.0,5.0;" x1="441" x2="441" y1="36.0986" y2="266.9922"/><rect fill="#FEFECE" height="30.0986" style="stroke:#000000;stroke-width:1.5;" width="60" x="74" y="5"/><text fill="#000000" font-family="Arial" font-size="14" lengthAdjust="spacing" textLength="46" x="81" y="25.1318">:Parser</text><rect fill="#FEFECE" height="30.0986" style="stroke:#000000;stroke-width:1.5;" width="30" x="426" y="5"/><text fill="#000000" font-family="Arial" font-size="14" lengthAdjust="spacing" textLength="16" x="433" y="25.1318">:UI</text><rect fill="#FFDAB9" height="181.9448" style="stroke:#000000;stroke-width:1.0;" width="10" x="99" y="67.0474"/><rect fill="#FFDAB9" height="25" style="stroke:#000000;stroke-width:1.0;" width="10" x="104" y="145.0947"/><rect fill="#FFDAB9" height="142.9961" style="stroke:#000000;stroke-width:1.0;" width="10" x="276" y="105.9961"/><rect fill="#FFDAB9" height="28.9487" style="stroke:#000000;stroke-width:1.0;" width="10" x="436" y="206.0435"/><polygon fill="#000000" points="87,63.0474,97,67.0474,87,71.0474,91,67.0474" style="stroke:#000000;stroke-width:1.0;"/><line style="stroke:#000000;stroke-width:2.0;" x1="0" x2="93" y1="67.0474" y2="67.0474"/><text fill="#000000" font-family="Arial" font-size="13" lengthAdjust="spacing" textLength="80" x="7" y="62.2925">parseMaster()</text><polygon fill="#000000" points="214,91.9961,224,95.9961,214,99.9961,218,95.9961" style="stroke:#000000;stroke-width:1.0;"/><line style="stroke:#000000;stroke-width:2.0;" x1="109" x2="220" y1="95.9961" y2="95.9961"/><text fill="#000000" font-family="Arial" font-size="13" lengthAdjust="spacing" textLength="93" x="116" y="91.2412">HelpCommand()</text><rect fill="#FEFECE" height="30.0986" style="stroke:#000000;stroke-width:1.5;" width="110" x="226" y="75.0474"/><text fill="#000000" font-family="Arial" font-size="14" lengthAdjust="spacing" textLength="96" x="233" y="95.1792">:HelpCommand</text><line style="stroke:#000000;stroke-width:2.0;" x1="109" x2="156" y1="132.0947" y2="132.0947"/><line style="stroke:#000000;stroke-width:2.0;" x1="156" x2="156" y1="132.0947" y2="145.0947"/><line style="stroke:#000000;stroke-width:2.0;" x1="115" x2="156" y1="145.0947" y2="145.0947"/><polygon fill="#000000" points="125,141.0947,115,145.0947,125,149.0947,121,145.0947" style="stroke:#000000;stroke-width:1.0;"/><text fill="#000000" font-family="Arial" font-size="13" lengthAdjust="spacing" textLength="66" x="121" y="127.3398">helpParse()</text><line style="stroke:#000000;stroke-width:2.0;stroke-dasharray:2.0,2.0;" x1="114" x2="156" y1="169.0947" y2="169.0947"/><line style="stroke:#000000;stroke-width:2.0;stroke-dasharray:2.0,2.0;" x1="156" x2="156" y1="169.0947" y2="182.0947"/><line style="stroke:#000000;stroke-width:2.0;stroke-dasharray:2.0,2.0;" x1="109" x2="156" y1="182.0947" y2="182.0947"/><polygon fill="#000000" points="119,178.0947,109,182.0947,119,186.0947,115,182.0947" style="stroke:#000000;stroke-width:1.0;"/><polygon fill="#000000" points="424,202.0435,434,206.0435,424,210.0435,428,206.0435" style="stroke:#000000;stroke-width:1.0;"/><line style="stroke:#000000;stroke-width:2.0;" x1="286" x2="430" y1="206.0435" y2="206.0435"/><text fill="#000000" font-family="Arial" font-size="13" lengthAdjust="spacing" textLength="59" x="293" y="201.2886">printHelp()</text><polygon fill="#000000" points="297,230.9922,287,234.9922,297,238.9922,293,234.9922" style="stroke:#000000;stroke-width:1.0;"/><line style="stroke:#000000;stroke-width:2.0;stroke-dasharray:2.0,2.0;" x1="291" x2="440" y1="234.9922" y2="234.9922"/><text fill="#000000" font-family="Arial" font-size="13" font-style="italic" lengthAdjust="spacing" textLength="126" x="303" y="230.2373">Help message printed</text><line style="stroke:#000000;stroke-width:2.0;" x1="432" x2="450" y1="225.9922" y2="243.9922"/><line style="stroke:#000000;stroke-width:2.0;" x1="432" x2="450" y1="243.9922" y2="225.9922"/><polygon fill="#000000" points="115,244.9922,105,248.9922,115,252.9922,111,248.9922" style="stroke:#000000;stroke-width:1.0;"/><line style="stroke:#000000;stroke-width:2.0;stroke-dasharray:2.0,2.0;" x1="109" x2="280" y1="248.9922" y2="248.9922"/><line style="stroke:#000000;stroke-width:2.0;" x1="272" x2="290" y1="239.9922" y2="257.9922"/><line style="stroke:#000000;stroke-width:2.0;" x1="272" x2="290" y1="257.9922" y2="239.9922"/><line style="stroke:#000000;stroke-width:2.0;" x1="95" x2="113" y1="239.9922" y2="257.9922"/><line style="stroke:#000000;stroke-width:2.0;" x1="95" x2="113" y1="257.9922" y2="239.9922"/><!--MD5=[97bef687db56f1b080109729055383ba]
@startuml

hide footbox

!include Style.puml
skinparam sequence {
ParticipantBorderColor black
LifeLineBorderColor black
LifeLineBackgroundColor peachpuff
}

skinparam sequenceArrowColor black

-> ":Parser": parseMaster()

activate ":Parser"

create ":HelpCommand"
":Parser" -> ":HelpCommand": HelpCommand()
activate ":HelpCommand"

":Parser" -> ":Parser": helpParse()
activate ":Parser"

":Parser" - -> ":Parser"
deactivate ":Parser"

":HelpCommand" -> ":UI" : printHelp()
activate ":UI"

":UI" - -> ":HelpCommand" : //Help message printed//
destroy ":UI"

":HelpCommand" - -> ":Parser"
destroy ":HelpCommand"

destroy ":Parser"





@enduml

@startuml

hide footbox







hide circle
skinparam backgroundColor white
skinparam defaultFontName Arial
skinparam shadowing false
skinparam arrowThickness 2
skinparam classAttributeIconSize 0
skinparam sequence {
ParticipantBorderColor black
LifeLineBorderColor black
LifeLineBackgroundColor peachpuff
}

skinparam sequenceArrowColor black

-> ":Parser": parseMaster()

activate ":Parser"

create ":HelpCommand"
":Parser" -> ":HelpCommand": HelpCommand()
activate ":HelpCommand"

":Parser" -> ":Parser": helpParse()
activate ":Parser"

":Parser" - -> ":Parser"
deactivate ":Parser"

":HelpCommand" -> ":UI" : printHelp()
activate ":UI"

":UI" - -> ":HelpCommand" : //Help message printed//
destroy ":UI"

":HelpCommand" - -> ":Parser"
destroy ":HelpCommand"

destroy ":Parser"





@enduml

PlantUML version 1.2021.11(Sat Oct 02 21:26:11 SGT 2021)
(GPL source distribution)
Java Runtime: OpenJDK Runtime Environment
JVM: OpenJDK 64-Bit Server VM
Default Encoding: Cp1252
Language: en
Country: US
--></g></svg>