<?xml version="1.0" encoding="UTF-8" standalone="no"?><svg xmlns="http://www.w3.org/2000/svg" xmlns:xlink="http://www.w3.org/1999/xlink" contentScriptType="application/ecmascript" contentStyleType="text/css" height="192px" preserveAspectRatio="none" style="width:408px;height:192px;background:#FFFFFF;" version="1.1" viewBox="0 0 408 192" width="408px" zoomAndPan="magnify"><defs/><g><rect fill="#FFDAB9" height="100.8462" style="stroke:#000000;stroke-width:1.0;" width="10" x="99" y="67.0474"/><rect fill="#FFDAB9" height="71.8975" style="stroke:#000000;stroke-width:1.0;" width="10" x="221" y="95.9961"/><rect fill="#FFDAB9" height="28.9487" style="stroke:#000000;stroke-width:1.0;" width="10" x="381" y="124.9448"/><line style="stroke:#000000;stroke-width:1.0;stroke-dasharray:5.0,5.0;" x1="104" x2="104" y1="36.0986" y2="185.8936"/><line style="stroke:#000000;stroke-width:1.0;stroke-dasharray:5.0,5.0;" x1="225.5" x2="225.5" y1="36.0986" y2="185.8936"/><line style="stroke:#000000;stroke-width:1.0;stroke-dasharray:5.0,5.0;" x1="386" x2="386" y1="36.0986" y2="185.8936"/><rect fill="#FEFECE" height="30.0986" style="stroke:#000000;stroke-width:1.5;" width="60" x="74" y="5"/><text fill="#000000" font-family="Arial" font-size="14" lengthAdjust="spacing" textLength="46" x="81" y="25.1318">:Parser</text><rect fill="#FEFECE" height="30.0986" style="stroke:#000000;stroke-width:1.5;" width="113" x="169.5" y="5"/><text fill="#000000" font-family="Arial" font-size="14" lengthAdjust="spacing" textLength="99" x="176.5" y="25.1318">:HelpCommand</text><rect fill="#FEFECE" height="30.0986" style="stroke:#000000;stroke-width:1.5;" width="32" x="370" y="5"/><text fill="#000000" font-family="Arial" font-size="14" lengthAdjust="spacing" textLength="18" x="377" y="25.1318">:UI</text><rect fill="#FFDAB9" height="100.8462" style="stroke:#000000;stroke-width:1.0;" width="10" x="99" y="67.0474"/><rect fill="#FFDAB9" height="71.8975" style="stroke:#000000;stroke-width:1.0;" width="10" x="221" y="95.9961"/><rect fill="#FFDAB9" height="28.9487" style="stroke:#000000;stroke-width:1.0;" width="10" x="381" y="124.9448"/><polygon fill="#000000" points="87,63.0474,97,67.0474,87,71.0474,91,67.0474" style="stroke:#000000;stroke-width:1.0;"/><line style="stroke:#000000;stroke-width:2.0;" x1="0" x2="93" y1="67.0474" y2="67.0474"/><text fill="#000000" font-family="Arial" font-size="13" lengthAdjust="spacing" textLength="80" x="7" y="62.2925">parseMaster()</text><polygon fill="#000000" points="209,91.9961,219,95.9961,209,99.9961,213,95.9961" style="stroke:#000000;stroke-width:1.0;"/><line style="stroke:#000000;stroke-width:2.0;" x1="109" x2="215" y1="95.9961" y2="95.9961"/><text fill="#000000" font-family="Arial" font-size="13" lengthAdjust="spacing" textLength="93" x="116" y="91.2412">HelpCommand()</text><polygon fill="#000000" points="369,120.9448,379,124.9448,369,128.9448,373,124.9448" style="stroke:#000000;stroke-width:1.0;"/><line style="stroke:#000000;stroke-width:2.0;" x1="231" x2="375" y1="124.9448" y2="124.9448"/><text fill="#000000" font-family="Arial" font-size="13" lengthAdjust="spacing" textLength="59" x="238" y="120.1899">printHelp()</text><polygon fill="#000000" points="242,149.8936,232,153.8936,242,157.8936,238,153.8936" style="stroke:#000000;stroke-width:1.0;"/><line style="stroke:#000000;stroke-width:2.0;stroke-dasharray:2.0,2.0;" x1="236" x2="385" y1="153.8936" y2="153.8936"/><text fill="#000000" font-family="Arial" font-size="13" font-style="italic" lengthAdjust="spacing" textLength="126" x="248" y="149.1387">Help message printed</text><line style="stroke:#000000;stroke-width:2.0;" x1="377" x2="395" y1="144.8936" y2="162.8936"/><line style="stroke:#000000;stroke-width:2.0;" x1="377" x2="395" y1="162.8936" y2="144.8936"/><polygon fill="#000000" points="115,163.8936,105,167.8936,115,171.8936,111,167.8936" style="stroke:#000000;stroke-width:1.0;"/><line style="stroke:#000000;stroke-width:2.0;stroke-dasharray:2.0,2.0;" x1="109" x2="225" y1="167.8936" y2="167.8936"/><line style="stroke:#000000;stroke-width:2.0;" x1="217" x2="235" y1="158.8936" y2="176.8936"/><line style="stroke:#000000;stroke-width:2.0;" x1="217" x2="235" y1="176.8936" y2="158.8936"/><line style="stroke:#000000;stroke-width:2.0;" x1="95" x2="113" y1="158.8936" y2="176.8936"/><line style="stroke:#000000;stroke-width:2.0;" x1="95" x2="113" y1="176.8936" y2="158.8936"/><!--MD5=[d8966e320ecbf621cd039c14fdd70569]
@startuml

hide footbox

!include Style.puml
skinparam sequence {
ParticipantBorderColor black
LifeLineBorderColor black
LifeLineBackgroundColor peachpuff
}

skinparam sequenceArrowColor black

-> ":Parser": parseMaster()

activate ":Parser"

":Parser" -> ":HelpCommand": HelpCommand()
activate ":HelpCommand"

":HelpCommand" -> ":UI" : printHelp()
activate ":UI"

":UI" - -> ":HelpCommand" : //Help message printed//
destroy ":UI"

":HelpCommand" - -> ":Parser"
destroy ":HelpCommand"

destroy ":Parser"





@enduml

@startuml

hide footbox







hide circle
skinparam backgroundColor white
skinparam defaultFontName Arial
skinparam shadowing false
skinparam arrowThickness 2
skinparam classAttributeIconSize 0
skinparam sequence {
ParticipantBorderColor black
LifeLineBorderColor black
LifeLineBackgroundColor peachpuff
}

skinparam sequenceArrowColor black

-> ":Parser": parseMaster()

activate ":Parser"

":Parser" -> ":HelpCommand": HelpCommand()
activate ":HelpCommand"

":HelpCommand" -> ":UI" : printHelp()
activate ":UI"

":UI" - -> ":HelpCommand" : //Help message printed//
destroy ":UI"

":HelpCommand" - -> ":Parser"
destroy ":HelpCommand"

destroy ":Parser"





@enduml

PlantUML version 1.2021.11(Sat Oct 02 21:26:11 SGT 2021)
(GPL source distribution)
Java Runtime: OpenJDK Runtime Environment
JVM: OpenJDK 64-Bit Server VM
Default Encoding: UTF-8
Language: en
Country: GB
--></g></svg>