<?xml version="1.0" encoding="UTF-8" standalone="no"?><svg xmlns="http://www.w3.org/2000/svg" xmlns:xlink="http://www.w3.org/1999/xlink" contentScriptType="application/ecmascript" contentStyleType="text/css" height="337px" preserveAspectRatio="none" style="width:268px;height:337px;background:#FFFFFF;" version="1.1" viewBox="0 0 268 337" width="268px" zoomAndPan="magnify"><defs/><g><!--MD5=[a55135535b5c544b99c33b17428c3b14]
cluster Util--><rect fill="#FFFFFF" height="155" style="stroke:#000000;stroke-width:1.5;" width="255" x="7" y="176"/><text fill="#000000" font-family="Arial" font-size="14" font-weight="bold" lengthAdjust="spacing" textLength="23" x="123" y="191.1318">Util</text><!--MD5=[eb6ea87d0d0a91892a2beb4011c98068]
cluster Kitchen--><rect fill="#FFFFFF" height="99" style="stroke:#000000;stroke-width:1.5;" width="227" x="33" y="7"/><text fill="#000000" font-family="Arial" font-size="14" font-weight="bold" lengthAdjust="spacing" textLength="54" x="119.5" y="22.1318">Kitchen</text><!--MD5=[827e4c316a78edd83f4cfdcbdf72fcc6]
class <<Enumeration>> \n Difficulty--><rect codeLine="6" fill="#FDFCBE" height="104.1934" id="&lt;&lt;Enumeration&gt;&gt; \n Difficulty" style="stroke:#000000;stroke-width:1.5;" width="134" x="23" y="211"/><ellipse cx="38" cy="229.7988" fill="#EB937F" rx="11" ry="11" style="stroke:#000000;stroke-width:1.0;"/><path d="M36.5,230.7988 L36.5,232.7988 L40.5,232.7988 L40.5,231.7988 L40.5,231.3145 L41.125,230.7988 L41.5,230.7988 L41.875,230.7988 L42.5,231.3145 L42.5,231.7988 L42.5,234.7988 L34.5,234.7988 L34.0156,234.7988 L33.5,234.1738 L33.5,233.7988 L33.5,233.4238 L34.0156,232.7988 L34.5,232.7988 L34.5,232.7988 L34.5,226.7988 L34.5,226.7988 L34.0156,226.7988 L33.5,226.1738 L33.5,225.7988 L33.5,225.4238 L34.0156,224.7988 L34.5,224.7988 L42.5,224.7988 L42.5,227.7988 L42.5,228.2832 L41.875,228.7988 L41.5,228.7988 L41.125,228.7988 L40.5,228.2832 L40.5,227.7988 L40.5,226.7988 L36.5,226.7988 L36.5,228.7988 L37.5,228.7988 L37.5,228.3145 L37.5,228.3145 L38.125,227.7988 L38.5,227.7988 L38.875,227.7988 L39.5,228.3145 L39.5,228.7988 L39.5,230.7988 L39.5,231.2832 L38.875,231.7988 L38.875,231.7988 L38.5,231.7988 L38.125,231.7988 L37.5,231.2832 L37.5,231.2832 L37.5,230.7988 L36.5,230.7988 Z " fill="#000000"/><text fill="#000000" font-family="Arial" font-size="12" lengthAdjust="spacing" textLength="99" x="52" y="227.2559">&lt;&lt;Enumeration&gt;&gt;</text><text fill="#000000" font-family="Arial" font-size="12" lengthAdjust="spacing" textLength="45" x="82" y="241.0547">Difficulty</text><line style="stroke:#000000;stroke-width:1.5;" x1="24" x2="156" y1="248.5977" y2="248.5977"/><text fill="#000000" font-family="Arial" font-size="11" lengthAdjust="spacing" textLength="28" x="29" y="262.9155">NONE</text><text fill="#000000" font-family="Arial" font-size="11" lengthAdjust="spacing" textLength="29" x="29" y="275.5645">EASY</text><text fill="#000000" font-family="Arial" font-size="11" lengthAdjust="spacing" textLength="38" x="29" y="288.2134">MEDIUM</text><text fill="#000000" font-family="Arial" font-size="11" lengthAdjust="spacing" textLength="29" x="29" y="300.8623">HARD</text><line style="stroke:#000000;stroke-width:1.5;" x1="24" x2="156" y1="307.1934" y2="307.1934"/><!--MD5=[39d6d2ea03de602dbf4d534e70c872a9]
class Tag--><rect codeLine="13" fill="#FDFCBE" height="48" id="Tag" style="stroke:#000000;stroke-width:1.5;" width="53" x="192.5" y="239"/><ellipse cx="207.5" cy="255" fill="#ADD1B2" rx="11" ry="11" style="stroke:#000000;stroke-width:1.0;"/><path d="M209.5,251.5 Q209.7031,251 209.9375,250.75 Q210.1719,250.5 210.4375,250.5 Q210.9063,250.5 211.2031,250.7813 Q211.5,251.0625 211.5,251.7188 L211.5,253.2813 Q211.5,253.9375 211.2188,254.2188 Q210.9375,254.5 210.5,254.5 Q210.1094,254.5 209.8594,254.3281 Q209.6094,254.1563 209.5,253.7031 Q209.4531,253.3906 209.2813,253.2188 Q208.9688,252.8906 208.4063,252.7031 Q207.8438,252.5 207.2813,252.5 Q206.5781,252.5 205.9844,252.7813 Q205.4063,253.0625 204.9531,253.6875 Q204.5,254.3125 204.5,255.1719 L204.5,256.0938 Q204.5,257.125 205.3438,257.8125 Q206.1875,258.5 207.6875,258.5 Q208.5781,258.5 209.2031,258.2969 Q209.5625,258.1875 209.9688,257.8281 Q210.2344,257.625 210.375,257.5625 Q210.5156,257.5 210.6875,257.5 Q211.0156,257.5 211.25,257.7656 Q211.5,258.0156 211.5,258.375 Q211.5,258.7188 211.1563,259.125 Q210.6563,259.7188 209.8594,260.0469 Q208.8125,260.5 207.5313,260.5 Q206.0313,260.5 204.8281,259.9063 Q203.8594,259.4375 203.1719,258.4219 Q202.5,257.4063 202.5,256.2031 L202.5,255.1094 Q202.5,253.8594 203.0938,252.7656 Q203.7031,251.6719 204.75,251.0938 Q205.8125,250.5 207,250.5 Q207.7188,250.5 208.3438,250.75 Q208.9688,251 209.5,251.5 Z " fill="#000000"/><text fill="#000000" font-family="Arial" font-size="12" lengthAdjust="spacing" textLength="21" x="221.5" y="259.3564">Tag</text><line style="stroke:#000000;stroke-width:1.5;" x1="193.5" x2="244.5" y1="271" y2="271"/><line style="stroke:#000000;stroke-width:1.5;" x1="193.5" x2="244.5" y1="279" y2="279"/><!--MD5=[582d2bf949e04e7ea0860600380cbf03]
class Cookbook--><rect codeLine="17" fill="#B3DFF3" height="48" id="Cookbook" style="stroke:#000000;stroke-width:1.5;" width="88" x="49" y="42"/><ellipse cx="64" cy="58" fill="#ADD1B2" rx="11" ry="11" style="stroke:#000000;stroke-width:1.0;"/><path d="M66,54.5 Q66.2031,54 66.4375,53.75 Q66.6719,53.5 66.9375,53.5 Q67.4063,53.5 67.7031,53.7813 Q68,54.0625 68,54.7188 L68,56.2813 Q68,56.9375 67.7188,57.2188 Q67.4375,57.5 67,57.5 Q66.6094,57.5 66.3594,57.3281 Q66.1094,57.1563 66,56.7031 Q65.9531,56.3906 65.7813,56.2188 Q65.4688,55.8906 64.9063,55.7031 Q64.3438,55.5 63.7813,55.5 Q63.0781,55.5 62.4844,55.7813 Q61.9063,56.0625 61.4531,56.6875 Q61,57.3125 61,58.1719 L61,59.0938 Q61,60.125 61.8438,60.8125 Q62.6875,61.5 64.1875,61.5 Q65.0781,61.5 65.7031,61.2969 Q66.0625,61.1875 66.4688,60.8281 Q66.7344,60.625 66.875,60.5625 Q67.0156,60.5 67.1875,60.5 Q67.5156,60.5 67.75,60.7656 Q68,61.0156 68,61.375 Q68,61.7188 67.6563,62.125 Q67.1563,62.7188 66.3594,63.0469 Q65.3125,63.5 64.0313,63.5 Q62.5313,63.5 61.3281,62.9063 Q60.3594,62.4375 59.6719,61.4219 Q59,60.4063 59,59.2031 L59,58.1094 Q59,56.8594 59.5938,55.7656 Q60.2031,54.6719 61.25,54.0938 Q62.3125,53.5 63.5,53.5 Q64.2188,53.5 64.8438,53.75 Q65.4688,54 66,54.5 Z " fill="#000000"/><text fill="#000000" font-family="Arial" font-size="12" lengthAdjust="spacing" textLength="56" x="78" y="62.3564">Cookbook</text><line style="stroke:#000000;stroke-width:1.5;" x1="50" x2="136" y1="74" y2="74"/><line style="stroke:#000000;stroke-width:1.5;" x1="50" x2="136" y1="82" y2="82"/><!--MD5=[20418cb98520644da1e87dc0310aa74a]
class Recipe--><rect codeLine="18" fill="#B3DFF3" height="48" id="Recipe" style="stroke:#000000;stroke-width:1.5;" width="71" x="172.5" y="42"/><ellipse cx="187.5" cy="58" fill="#ADD1B2" rx="11" ry="11" style="stroke:#000000;stroke-width:1.0;"/><path d="M189.5,54.5 Q189.7031,54 189.9375,53.75 Q190.1719,53.5 190.4375,53.5 Q190.9063,53.5 191.2031,53.7813 Q191.5,54.0625 191.5,54.7188 L191.5,56.2813 Q191.5,56.9375 191.2188,57.2188 Q190.9375,57.5 190.5,57.5 Q190.1094,57.5 189.8594,57.3281 Q189.6094,57.1563 189.5,56.7031 Q189.4531,56.3906 189.2813,56.2188 Q188.9688,55.8906 188.4063,55.7031 Q187.8438,55.5 187.2813,55.5 Q186.5781,55.5 185.9844,55.7813 Q185.4063,56.0625 184.9531,56.6875 Q184.5,57.3125 184.5,58.1719 L184.5,59.0938 Q184.5,60.125 185.3438,60.8125 Q186.1875,61.5 187.6875,61.5 Q188.5781,61.5 189.2031,61.2969 Q189.5625,61.1875 189.9688,60.8281 Q190.2344,60.625 190.375,60.5625 Q190.5156,60.5 190.6875,60.5 Q191.0156,60.5 191.25,60.7656 Q191.5,61.0156 191.5,61.375 Q191.5,61.7188 191.1563,62.125 Q190.6563,62.7188 189.8594,63.0469 Q188.8125,63.5 187.5313,63.5 Q186.0313,63.5 184.8281,62.9063 Q183.8594,62.4375 183.1719,61.4219 Q182.5,60.4063 182.5,59.2031 L182.5,58.1094 Q182.5,56.8594 183.0938,55.7656 Q183.7031,54.6719 184.75,54.0938 Q185.8125,53.5 187,53.5 Q187.7188,53.5 188.3438,53.75 Q188.9688,54 189.5,54.5 Z " fill="#000000"/><text fill="#000000" font-family="Arial" font-size="12" lengthAdjust="spacing" textLength="39" x="201.5" y="62.3564">Recipe</text><line style="stroke:#000000;stroke-width:1.5;" x1="173.5" x2="242.5" y1="74" y2="74"/><line style="stroke:#000000;stroke-width:1.5;" x1="173.5" x2="242.5" y1="82" y2="82"/><!--MD5=[f6d778eeebd7518587368623b1e5c7e8]
link Cookbook to <<Enumeration>> \n Difficulty--><path codeLine="20" d="M92.64,90.13 C92.21,118.42 91.46,167.28 90.87,205.68 " fill="none" id="Cookbook-to-&lt;&lt;Enumeration&gt;&gt; \n Difficulty" style="stroke:#000000;stroke-width:2.0;"/><polygon fill="#000000" points="90.79,210.79,94.9185,201.8482,90.8616,205.7905,86.9193,201.7336,90.79,210.79" style="stroke:#000000;stroke-width:2.0;"/><!--MD5=[12aa1a5e13c2f3a9b3bc9488321658f3]
reverse link Cookbook to Recipe--><path codeLine="21" d="M150.23,66 C157.56,66 164.9,66 172.23,66 " fill="none" id="Cookbook-backto-Recipe" style="stroke:#000000;stroke-width:2.0;"/><polygon fill="#000000" points="137.02,66,143.02,70,149.02,66,143.02,62,137.02,66" style="stroke:#000000;stroke-width:2.0;"/><!--MD5=[698322bc5fa7bd1029ba01cf661eabff]
reverse link Cookbook to Tag--><path codeLine="22" d="M123.38,100.16 C139.88,119.15 159.92,143.94 175,168 C189.35,190.9 201.99,219.24 210,238.78 " fill="none" id="Cookbook-backto-Tag" style="stroke:#000000;stroke-width:2.0;"/><polygon fill="#000000" points="114.63,90.24,115.6018,97.3853,122.5712,99.2365,121.5994,92.0912,114.63,90.24" style="stroke:#000000;stroke-width:2.0;"/><!--MD5=[3f98005499f928de8472c0bf0d995b61]
@startuml
!include Style.puml
skinparam ArrowColor black
skinparam classBorderColor black

rectangle "Util" {
    enum "<<Enumeration>> \n Difficulty" LOGIC_YELLOW_1  {
        NONE
        EASY
        MEDIUM
        HARD
    }

    class Tag LOGIC_YELLOW_1
}

rectangle "Kitchen" {
    class Cookbook LOGIC_BLUE_1
    class Recipe LOGIC_BLUE_1

    Cookbook - -> "<<Enumeration>> \n Difficulty"
    Cookbook *- Recipe
    Cookbook *- - - Tag
}
@enduml

@startuml




skinparam backgroundColor white
skinparam defaultFontName Arial
skinparam shadowing false
skinparam arrowThickness 2
skinparam ArrowColor black
skinparam classBorderColor black

rectangle "Util" {
    enum "<<Enumeration>> \n Difficulty" #fdfcbe  {
        NONE
        EASY
        MEDIUM
        HARD
    }

    class Tag #fdfcbe
}

rectangle "Kitchen" {
    class Cookbook #b3dff3
    class Recipe #b3dff3

    Cookbook - -> "<<Enumeration>> \n Difficulty"
    Cookbook *- Recipe
    Cookbook *- - - Tag
}
@enduml

PlantUML version 1.2021.11(Sat Oct 02 21:26:11 SGT 2021)
(GPL source distribution)
Java Runtime: OpenJDK Runtime Environment
JVM: OpenJDK 64-Bit Server VM
Default Encoding: Cp1252
Language: en
Country: US
--></g></svg>