<?xml version="1.0" encoding="UTF-8" standalone="no"?><svg xmlns="http://www.w3.org/2000/svg" xmlns:xlink="http://www.w3.org/1999/xlink" contentScriptType="application/ecmascript" contentStyleType="text/css" height="382px" preserveAspectRatio="none" style="width:272px;height:382px;background:#FFFFFF;" version="1.1" viewBox="0 0 272 382" width="272px" zoomAndPan="magnify"><defs/><g><!--MD5=[a55135535b5c544b99c33b17428c3b14]
cluster Util--><rect fill="#FFFFFF" height="258" style="stroke:#000000;stroke-width:1.5;" width="259" x="7" y="118"/><text fill="#000000" font-family="Arial" font-size="14" font-weight="bold" lengthAdjust="spacing" textLength="23" x="125" y="133.1318">Util</text><!--MD5=[628cc5a2753cca06eb1ffef55c386535]
class Parser--><rect codeLine="12" fill="#FEFECE" height="85.9468" id="Parser" style="stroke:#000000;stroke-width:1.5;" width="90" x="23" y="153"/><ellipse cx="47.45" cy="169" fill="#ADD1B2" rx="11" ry="11" style="stroke:#000000;stroke-width:1.0;"/><path d="M49.45,165.5 Q49.6531,165 49.8875,164.75 Q50.1219,164.5 50.3875,164.5 Q50.8563,164.5 51.1531,164.7813 Q51.45,165.0625 51.45,165.7188 L51.45,167.2813 Q51.45,167.9375 51.1688,168.2188 Q50.8875,168.5 50.45,168.5 Q50.0594,168.5 49.8094,168.3281 Q49.5594,168.1563 49.45,167.7031 Q49.4031,167.3906 49.2313,167.2188 Q48.9188,166.8906 48.3563,166.7031 Q47.7938,166.5 47.2313,166.5 Q46.5281,166.5 45.9344,166.7813 Q45.3563,167.0625 44.9031,167.6875 Q44.45,168.3125 44.45,169.1719 L44.45,170.0938 Q44.45,171.125 45.2938,171.8125 Q46.1375,172.5 47.6375,172.5 Q48.5281,172.5 49.1531,172.2969 Q49.5125,172.1875 49.9188,171.8281 Q50.1844,171.625 50.325,171.5625 Q50.4656,171.5 50.6375,171.5 Q50.9656,171.5 51.2,171.7656 Q51.45,172.0156 51.45,172.375 Q51.45,172.7188 51.1063,173.125 Q50.6063,173.7188 49.8094,174.0469 Q48.7625,174.5 47.4813,174.5 Q45.9813,174.5 44.7781,173.9063 Q43.8094,173.4375 43.1219,172.4219 Q42.45,171.4063 42.45,170.2031 L42.45,169.1094 Q42.45,167.8594 43.0438,166.7656 Q43.6531,165.6719 44.7,165.0938 Q45.7625,164.5 46.95,164.5 Q47.6688,164.5 48.2938,164.75 Q48.9188,165 49.45,165.5 Z " fill="#000000"/><text fill="#000000" font-family="Arial" font-size="12" lengthAdjust="spacing" textLength="37" x="63.55" y="173.3564">Parser</text><line style="stroke:#000000;stroke-width:1.5;" x1="24" x2="112" y1="185" y2="185"/><line style="stroke:#000000;stroke-width:1.5;" x1="24" x2="112" y1="193" y2="193"/><text fill="#000000" font-family="Arial" font-size="11" lengthAdjust="spacing" textLength="40" x="29" y="207.3179">Parser()</text><text fill="#000000" font-family="Arial" font-size="11" lengthAdjust="spacing" textLength="69" x="29" y="219.9668">parseMaster()</text><text fill="#000000" font-family="Arial" font-size="11" lengthAdjust="spacing" textLength="78" x="29" y="232.6157">parseNextLine()</text><!--MD5=[521817ab83e81da341a3f4b5e91bae41]
class Command--><rect codeLine="18" fill="#FEFECE" height="60.6489" id="Command" style="stroke:#000000;stroke-width:1.5;" width="91" x="23.5" y="299"/><ellipse cx="38.5" cy="315" fill="#ADD1B2" rx="11" ry="11" style="stroke:#000000;stroke-width:1.0;"/><path d="M40.5,311.5 Q40.7031,311 40.9375,310.75 Q41.1719,310.5 41.4375,310.5 Q41.9063,310.5 42.2031,310.7813 Q42.5,311.0625 42.5,311.7188 L42.5,313.2813 Q42.5,313.9375 42.2188,314.2188 Q41.9375,314.5 41.5,314.5 Q41.1094,314.5 40.8594,314.3281 Q40.6094,314.1563 40.5,313.7031 Q40.4531,313.3906 40.2813,313.2188 Q39.9688,312.8906 39.4063,312.7031 Q38.8438,312.5 38.2813,312.5 Q37.5781,312.5 36.9844,312.7813 Q36.4063,313.0625 35.9531,313.6875 Q35.5,314.3125 35.5,315.1719 L35.5,316.0938 Q35.5,317.125 36.3438,317.8125 Q37.1875,318.5 38.6875,318.5 Q39.5781,318.5 40.2031,318.2969 Q40.5625,318.1875 40.9688,317.8281 Q41.2344,317.625 41.375,317.5625 Q41.5156,317.5 41.6875,317.5 Q42.0156,317.5 42.25,317.7656 Q42.5,318.0156 42.5,318.375 Q42.5,318.7188 42.1563,319.125 Q41.6563,319.7188 40.8594,320.0469 Q39.8125,320.5 38.5313,320.5 Q37.0313,320.5 35.8281,319.9063 Q34.8594,319.4375 34.1719,318.4219 Q33.5,317.4063 33.5,316.2031 L33.5,315.1094 Q33.5,313.8594 34.0938,312.7656 Q34.7031,311.6719 35.75,311.0938 Q36.8125,310.5 38,310.5 Q38.7188,310.5 39.3438,310.75 Q39.9688,311 40.5,311.5 Z " fill="#000000"/><text fill="#000000" font-family="Arial" font-size="12" lengthAdjust="spacing" textLength="59" x="52.5" y="319.3564">Command</text><line style="stroke:#000000;stroke-width:1.5;" x1="24.5" x2="113.5" y1="331" y2="331"/><line style="stroke:#000000;stroke-width:1.5;" x1="24.5" x2="113.5" y1="339" y2="339"/><text fill="#000000" font-family="Arial" font-size="11" lengthAdjust="spacing" textLength="47" x="29.5" y="353.3179">execute()</text><!--MD5=[df76e760f2062188d44f98c21a88999b]
class UI--><rect codeLine="22" fill="#FEFECE" height="85.9468" id="UI" style="stroke:#000000;stroke-width:1.5;" width="102" x="148" y="153"/><ellipse cx="189.1" cy="169" fill="#ADD1B2" rx="11" ry="11" style="stroke:#000000;stroke-width:1.0;"/><path d="M191.1,165.5 Q191.3031,165 191.5375,164.75 Q191.7719,164.5 192.0375,164.5 Q192.5063,164.5 192.8031,164.7813 Q193.1,165.0625 193.1,165.7188 L193.1,167.2813 Q193.1,167.9375 192.8188,168.2188 Q192.5375,168.5 192.1,168.5 Q191.7094,168.5 191.4594,168.3281 Q191.2094,168.1563 191.1,167.7031 Q191.0531,167.3906 190.8813,167.2188 Q190.5688,166.8906 190.0063,166.7031 Q189.4438,166.5 188.8813,166.5 Q188.1781,166.5 187.5844,166.7813 Q187.0063,167.0625 186.5531,167.6875 Q186.1,168.3125 186.1,169.1719 L186.1,170.0938 Q186.1,171.125 186.9438,171.8125 Q187.7875,172.5 189.2875,172.5 Q190.1781,172.5 190.8031,172.2969 Q191.1625,172.1875 191.5688,171.8281 Q191.8344,171.625 191.975,171.5625 Q192.1156,171.5 192.2875,171.5 Q192.6156,171.5 192.85,171.7656 Q193.1,172.0156 193.1,172.375 Q193.1,172.7188 192.7563,173.125 Q192.2563,173.7188 191.4594,174.0469 Q190.4125,174.5 189.1313,174.5 Q187.6313,174.5 186.4281,173.9063 Q185.4594,173.4375 184.7719,172.4219 Q184.1,171.4063 184.1,170.2031 L184.1,169.1094 Q184.1,167.8594 184.6938,166.7656 Q185.3031,165.6719 186.35,165.0938 Q187.4125,164.5 188.6,164.5 Q189.3188,164.5 189.9438,164.75 Q190.5688,165 191.1,165.5 Z " fill="#000000"/><text fill="#000000" font-family="Arial" font-size="12" lengthAdjust="spacing" textLength="12" x="208.9" y="173.3564">UI</text><line style="stroke:#000000;stroke-width:1.5;" x1="149" x2="249" y1="185" y2="185"/><line style="stroke:#000000;stroke-width:1.5;" x1="149" x2="249" y1="193" y2="193"/><text fill="#000000" font-family="Arial" font-size="11" lengthAdjust="spacing" textLength="50" x="154" y="207.3179">printIntro()</text><text fill="#000000" font-family="Arial" font-size="11" lengthAdjust="spacing" textLength="90" x="154" y="219.9668">printExitMessage()</text><text fill="#000000" font-family="Arial" font-size="11" lengthAdjust="spacing" textLength="50" x="154" y="232.6157">printHelp()</text><!--MD5=[c05e841a1b4f70ad079be011287d3ec4]
class Gordon--><rect codeLine="5" fill="#FFFFFF" height="85.9468" id="Gordon" style="stroke:#000000;stroke-width:1.5;" width="79" x="28.5" y="7"/><ellipse cx="46.2" cy="23" fill="#ADD1B2" rx="11" ry="11" style="stroke:#000000;stroke-width:1.0;"/><path d="M48.2,19.5 Q48.4031,19 48.6375,18.75 Q48.8719,18.5 49.1375,18.5 Q49.6063,18.5 49.9031,18.7813 Q50.2,19.0625 50.2,19.7188 L50.2,21.2813 Q50.2,21.9375 49.9188,22.2188 Q49.6375,22.5 49.2,22.5 Q48.8094,22.5 48.5594,22.3281 Q48.3094,22.1563 48.2,21.7031 Q48.1531,21.3906 47.9813,21.2188 Q47.6688,20.8906 47.1063,20.7031 Q46.5438,20.5 45.9813,20.5 Q45.2781,20.5 44.6844,20.7813 Q44.1063,21.0625 43.6531,21.6875 Q43.2,22.3125 43.2,23.1719 L43.2,24.0938 Q43.2,25.125 44.0438,25.8125 Q44.8875,26.5 46.3875,26.5 Q47.2781,26.5 47.9031,26.2969 Q48.2625,26.1875 48.6688,25.8281 Q48.9344,25.625 49.075,25.5625 Q49.2156,25.5 49.3875,25.5 Q49.7156,25.5 49.95,25.7656 Q50.2,26.0156 50.2,26.375 Q50.2,26.7188 49.8563,27.125 Q49.3563,27.7188 48.5594,28.0469 Q47.5125,28.5 46.2313,28.5 Q44.7313,28.5 43.5281,27.9063 Q42.5594,27.4375 41.8719,26.4219 Q41.2,25.4063 41.2,24.2031 L41.2,23.1094 Q41.2,21.8594 41.7938,20.7656 Q42.4031,19.6719 43.45,19.0938 Q44.5125,18.5 45.7,18.5 Q46.4188,18.5 47.0438,18.75 Q47.6688,19 48.2,19.5 Z " fill="#000000"/><text fill="#000000" font-family="Arial" font-size="12" lengthAdjust="spacing" textLength="41" x="60.8" y="27.3564">Gordon</text><line style="stroke:#000000;stroke-width:1.5;" x1="29.5" x2="106.5" y1="39" y2="39"/><text fill="#000000" font-family="Arial" font-size="11" lengthAdjust="spacing" textLength="67" x="34.5" y="53.3179">Parser parser</text><line style="stroke:#000000;stroke-width:1.5;" x1="29.5" x2="106.5" y1="59.6489" y2="59.6489"/><text fill="#000000" font-family="Arial" font-size="11" lengthAdjust="spacing" textLength="44" x="34.5" y="73.9668">Gordon()</text><text fill="#000000" font-family="Arial" font-size="11" lengthAdjust="spacing" textLength="27" x="34.5" y="86.6157">Run()</text><!--MD5=[fccd09dadfd2ae6cd3e8c6d5f9633688]
link Gordon to Parser--><path codeLine="29" d="M68,93.04 C68,110.04 68,129.76 68,147.29 " fill="none" id="Gordon-to-Parser" style="stroke:#000000;stroke-width:2.0;"/><polygon fill="#000000" points="68,152.66,72,143.66,68,147.66,64,143.66,68,152.66" style="stroke:#000000;stroke-width:2.0;"/><!--MD5=[f0ffe6497b7d1d01b68217af11f4b39a]
link Parser to Command--><path codeLine="30" d="M68.32,239.33 C68.46,256.89 68.61,277 68.74,293.68 " fill="none" id="Parser-to-Command" style="stroke:#000000;stroke-width:2.0;"/><polygon fill="#000000" points="68.77,298.74,72.7185,289.7173,68.7414,293.7401,64.7186,289.763,68.77,298.74" style="stroke:#000000;stroke-width:2.0;"/><!--MD5=[a8265ed15887790969856d236eb33ee5]
link Parser to UI--><path codeLine="31" d="M113.03,196 C122.94,196 132.86,196 142.77,196 " fill="none" id="Parser-to-UI" style="stroke:#000000;stroke-width:2.0;"/><polygon fill="#000000" points="147.96,196,138.96,192,142.96,196,138.96,200,147.96,196" style="stroke:#000000;stroke-width:2.0;"/><!--MD5=[da2fa53dcc89164154d832f1cbd79dbd]
@startuml
!include Style.puml
skinparam ArrowColor black
skinparam classBorderColor black

class Gordon #white {
Parser parser
Gordon()
Run()
}

rectangle Util {
    class Parser {
    Parser()
    parseMaster()
    parseNextLine()
    }

    class Command {
    execute()
    }

    class UI {
    printIntro()
    printExitMessage()
    printHelp()
    }
}

Gordon - -> Parser
Parser - -> Command
Parser -> UI

@enduml

@startuml






skinparam backgroundColor white
skinparam defaultFontName Arial
skinparam shadowing false
skinparam arrowThickness 2
skinparam ArrowColor black
skinparam classBorderColor black

class Gordon #white {
Parser parser
Gordon()
Run()
}

rectangle Util {
    class Parser {
    Parser()
    parseMaster()
    parseNextLine()
    }

    class Command {
    execute()
    }

    class UI {
    printIntro()
    printExitMessage()
    printHelp()
    }
}

Gordon - -> Parser
Parser - -> Command
Parser -> UI

@enduml

PlantUML version 1.2021.11(Sat Oct 02 21:26:11 SGT 2021)
(GPL source distribution)
Java Runtime: OpenJDK Runtime Environment
JVM: OpenJDK 64-Bit Server VM
Default Encoding: Cp1252
Language: en
Country: US
--></g></svg>