<?xml version="1.0" encoding="UTF-8" standalone="no"?><svg xmlns="http://www.w3.org/2000/svg" xmlns:xlink="http://www.w3.org/1999/xlink" contentScriptType="application/ecmascript" contentStyleType="text/css" height="422px" preserveAspectRatio="none" style="width:364px;height:422px;background:#FFFFFF;" version="1.1" viewBox="0 0 364 422" width="364px" zoomAndPan="magnify"><defs/><g><!--MD5=[a55135535b5c544b99c33b17428c3b14]
cluster Util--><rect fill="#FFFFFF" height="270" style="stroke:#000000;stroke-width:1.5;" width="235" x="123" y="146"/><text fill="#000000" font-family="Arial" font-size="14" font-weight="bold" lengthAdjust="spacing" textLength="23" x="229" y="161.1318">Util</text><!--MD5=[11f03a07a4422c8eb8f650dbf201ac41]
cluster exception--><rect fill="#FFFFFF" height="91" style="stroke:#000000;stroke-width:1.5;" width="132" x="135" y="7"/><text fill="#000000" font-family="Arial" font-size="14" font-weight="bold" lengthAdjust="spacing" textLength="70" x="166" y="22.1318">exception</text><!--MD5=[628cc5a2753cca06eb1ffef55c386535]
class Parser--><rect codeLine="11" fill="#FEFECE" height="65.0967" id="Parser" style="stroke:#000000;stroke-width:1.5;" width="90" x="156" y="181"/><text fill="#000000" font-family="Arial" font-size="12" lengthAdjust="spacing" textLength="37" x="182.5" y="197.2559">Parser</text><line style="stroke:#000000;stroke-width:1.5;" x1="157" x2="245" y1="204.7988" y2="204.7988"/><line style="stroke:#000000;stroke-width:1.5;" x1="157" x2="245" y1="212.7988" y2="212.7988"/><text fill="#000000" font-family="Arial" font-size="11" lengthAdjust="spacing" textLength="69" x="162" y="227.1167">parseMaster()</text><text fill="#000000" font-family="Arial" font-size="11" lengthAdjust="spacing" textLength="78" x="162" y="239.7656">parseNextLine()</text><!--MD5=[521817ab83e81da341a3f4b5e91bae41]
class Command--><rect codeLine="16" fill="#FEFECE" height="52.4478" id="Command" style="stroke:#000000;stroke-width:1.5;" width="65" x="139.5" y="335"/><text fill="#000000" font-family="Arial" font-size="12" lengthAdjust="spacing" textLength="59" x="142.5" y="351.2559">Command</text><line style="stroke:#000000;stroke-width:1.5;" x1="140.5" x2="203.5" y1="358.7988" y2="358.7988"/><line style="stroke:#000000;stroke-width:1.5;" x1="140.5" x2="203.5" y1="366.7988" y2="366.7988"/><text fill="#000000" font-family="Arial" font-size="11" lengthAdjust="spacing" textLength="47" x="145.5" y="381.1167">execute()</text><!--MD5=[df76e760f2062188d44f98c21a88999b]
class UI--><rect codeLine="20" fill="#FEFECE" height="77.7456" id="UI" style="stroke:#000000;stroke-width:1.5;" width="102" x="240" y="322"/><text fill="#000000" font-family="Arial" font-size="12" lengthAdjust="spacing" textLength="12" x="285" y="338.2559">UI</text><line style="stroke:#000000;stroke-width:1.5;" x1="241" x2="341" y1="345.7988" y2="345.7988"/><line style="stroke:#000000;stroke-width:1.5;" x1="241" x2="341" y1="353.7988" y2="353.7988"/><text fill="#000000" font-family="Arial" font-size="11" lengthAdjust="spacing" textLength="50" x="246" y="368.1167">printIntro()</text><text fill="#000000" font-family="Arial" font-size="11" lengthAdjust="spacing" textLength="90" x="246" y="380.7656">printExitMessage()</text><text fill="#000000" font-family="Arial" font-size="11" lengthAdjust="spacing" textLength="50" x="246" y="393.4146">printHelp()</text><!--MD5=[f11a376debd67c58f7ced6b4e6a2435d]
class GordonException--><rect codeLine="28" fill="#F4C7F8" height="39.7988" id="GordonException" style="stroke:#000000;stroke-width:1.5;" width="100" x="151" y="42"/><text fill="#000000" font-family="Arial" font-size="12" lengthAdjust="spacing" textLength="94" x="154" y="58.2559">GordonException</text><line style="stroke:#000000;stroke-width:1.5;" x1="152" x2="250" y1="65.7988" y2="65.7988"/><line style="stroke:#000000;stroke-width:1.5;" x1="152" x2="250" y1="73.7988" y2="73.7988"/><!--MD5=[c05e841a1b4f70ad079be011287d3ec4]
class Gordon--><rect codeLine="5" fill="#FFFFFF" height="65.0967" id="Gordon" style="stroke:#000000;stroke-width:1.5;" width="56" x="7" y="181"/><text fill="#000000" font-family="Arial" font-size="12" lengthAdjust="spacing" textLength="41" x="14.5" y="197.2559">Gordon</text><line style="stroke:#000000;stroke-width:1.5;" x1="8" x2="62" y1="204.7988" y2="204.7988"/><line style="stroke:#000000;stroke-width:1.5;" x1="8" x2="62" y1="212.7988" y2="212.7988"/><text fill="#000000" font-family="Arial" font-size="11" lengthAdjust="spacing" textLength="44" x="13" y="227.1167">Gordon()</text><text fill="#000000" font-family="Arial" font-size="11" lengthAdjust="spacing" textLength="27" x="13" y="239.7656">Run()</text><!--MD5=[fccd09dadfd2ae6cd3e8c6d5f9633688]
link Gordon to Parser--><path codeLine="32" d="M63.16,213.5 C87.02,213.5 121.82,213.5 150.49,213.5 " fill="none" id="Gordon-to-Parser" style="stroke:#000000;stroke-width:2.0;"/><polygon fill="#000000" points="155.77,213.5,146.77,209.5,150.77,213.5,146.77,217.5,155.77,213.5" style="stroke:#000000;stroke-width:2.0;"/><polygon fill="#000000" points="90.5,202.9744,81.4549,200.0354,81.4549,205.9133,90.5,202.9744" style="stroke:#000000;stroke-width:1.0;"/><text fill="#000000" font-family="Arial" font-size="13" lengthAdjust="spacing" textLength="43" x="94.5" y="207.6938">creates</text><text fill="#000000" font-family="Arial" font-size="13" lengthAdjust="spacing" textLength="7" x="70.8771" y="210.0914">1</text><text fill="#000000" font-family="Arial" font-size="13" lengthAdjust="spacing" textLength="7" x="141.0037" y="210.6461">1</text><!--MD5=[f0ffe6497b7d1d01b68217af11f4b39a]
link Parser to Command--><path codeLine="33" d="M191.4,246.23 C188.74,255.74 186.04,266.24 184,276 C180.32,293.62 177.42,313.56 175.39,329.58 " fill="none" id="Parser-to-Command" style="stroke:#000000;stroke-width:2.0;"/><polygon fill="#000000" points="174.74,334.86,179.8164,326.4202,175.3549,329.898,171.8772,325.4364,174.74,334.86" style="stroke:#000000;stroke-width:2.0;"/><polygon fill="#000000" points="188.0568,289.3846,192.6492,281.0563,186.8769,279.9475,188.0568,289.3846" style="stroke:#000000;stroke-width:1.0;"/><text fill="#000000" font-family="Arial" font-size="13" lengthAdjust="spacing" textLength="43" x="198" y="289.1938">creates</text><!--MD5=[a8265ed15887790969856d236eb33ee5]
link Parser to UI--><path codeLine="34" d="M225.46,246.15 C232.38,255.57 239.73,266.03 246,276 C254.23,289.08 262.45,303.81 269.57,317.23 " fill="none" id="Parser-to-UI" style="stroke:#000000;stroke-width:2.0;"/><polygon fill="#000000" points="271.94,321.73,271.2919,311.9025,269.613,317.3045,264.211,315.6256,271.94,321.73" style="stroke:#000000;stroke-width:2.0;"/><polygon fill="#000000" points="262.6364,288.7228,260.3642,279.4876,255.3699,282.587,262.6364,288.7228" style="stroke:#000000;stroke-width:1.0;"/><text fill="#000000" font-family="Arial" font-size="13" lengthAdjust="spacing" textLength="28" x="269" y="289.1938">uses</text><!--MD5=[c937ba57002295b571f00c561b64ea2d]
reverse link GordonException to Parser--><path codeLine="35" d="M201,87.44 C201,112.91 201,152.92 201,180.8 " fill="none" id="GordonException-backto-Parser" style="stroke:#000000;stroke-width:2.0;"/><polygon fill="#000000" points="201,82.24,197,91.24,201,87.24,205,91.24,201,82.24" style="stroke:#000000;stroke-width:2.0;"/><polygon fill="#000000" points="206,117.4744,203.0611,126.5195,208.9389,126.5195,206,117.4744" style="stroke:#000000;stroke-width:1.0;"/><text fill="#000000" font-family="Arial" font-size="13" lengthAdjust="spacing" textLength="43" x="215" y="127.1938">creates</text><!--MD5=[335ca77be5db07123184666d924fe9f9]
@startuml
!include Style.puml
skinparam ArrowColor black
skinparam classBorderColor black

class Gordon #white {
Gordon()
Run()
}

rectangle Util {
    class Parser {
    parseMaster()
    parseNextLine()
    }

    class Command {
    execute()
    }

    class UI {
    printIntro()
    printExitMessage()
    printHelp()
    }
}

rectangle exception {
    class GordonException LOGIC_PINK_1 {
    }
}

Gordon "1" -> "1" Parser : creates >
Parser - -> Command : creates >
Parser - -> UI : uses >
GordonException <- - Parser : creates <

@enduml

@startuml






hide circle
skinparam backgroundColor white
skinparam defaultFontName Arial
skinparam shadowing false
skinparam arrowThickness 2
skinparam classAttributeIconSize 0
skinparam ArrowColor black
skinparam classBorderColor black

class Gordon #white {
Gordon()
Run()
}

rectangle Util {
    class Parser {
    parseMaster()
    parseNextLine()
    }

    class Command {
    execute()
    }

    class UI {
    printIntro()
    printExitMessage()
    printHelp()
    }
}

rectangle exception {
    class GordonException #f4c7f8 {
    }
}

Gordon "1" -> "1" Parser : creates >
Parser - -> Command : creates >
Parser - -> UI : uses >
GordonException <- - Parser : creates <

@enduml

PlantUML version 1.2021.11(Sat Oct 02 21:26:11 SGT 2021)
(GPL source distribution)
Java Runtime: OpenJDK Runtime Environment
JVM: OpenJDK 64-Bit Server VM
Default Encoding: Cp1252
Language: en
Country: US
--></g></svg>