<?xml version="1.0" encoding="UTF-8" standalone="no"?><svg xmlns="http://www.w3.org/2000/svg" xmlns:xlink="http://www.w3.org/1999/xlink" contentScriptType="application/ecmascript" contentStyleType="text/css" height="301px" preserveAspectRatio="none" style="width:1031px;height:301px;background:#FFFFFF;" version="1.1" viewBox="0 0 1031 301" width="1031px" zoomAndPan="magnify"><defs/><g><rect fill="#FFDAB9" height="209.9448" style="stroke:#000000;stroke-width:1.0;" width="10" x="99" y="67.0474"/><rect fill="#FFDAB9" height="25" style="stroke:#000000;stroke-width:1.0;" width="10" x="104" y="103.9961"/><rect fill="#FFDAB9" height="102.0474" style="stroke:#000000;stroke-width:1.0;" width="10" x="489.5" y="174.9448"/><rect fill="#FFDAB9" height="56.9487" style="stroke:#000000;stroke-width:1.0;" width="10" x="794.5" y="206.0435"/><rect fill="#FFDAB9" height="42.9487" style="stroke:#000000;stroke-width:1.0;" width="10" x="989.5" y="206.0435"/><line style="stroke:#000000;stroke-width:1.0;stroke-dasharray:5.0,5.0;" x1="104" x2="104" y1="36.0986" y2="294.9922"/><line style="stroke:#000000;stroke-width:1.0;stroke-dasharray:5.0,5.0;" x1="494" x2="494" y1="174.5454" y2="294.9922"/><line style="stroke:#000000;stroke-width:1.0;stroke-dasharray:5.0,5.0;" x1="799.5" x2="799.5" y1="36.0986" y2="294.9922"/><line style="stroke:#000000;stroke-width:1.0;stroke-dasharray:5.0,5.0;" x1="994.5" x2="994.5" y1="36.0986" y2="294.9922"/><rect fill="#FEFECE" height="30.0986" style="stroke:#000000;stroke-width:1.5;" width="60" x="74" y="5"/><text fill="#000000" font-family="Arial" font-size="14" lengthAdjust="spacing" textLength="46" x="81" y="25.1318">:Parser</text><rect fill="#FEFECE" height="30.0986" style="stroke:#000000;stroke-width:1.5;" width="82" x="758.5" y="5"/><text fill="#000000" font-family="Arial" font-size="14" lengthAdjust="spacing" textLength="68" x="765.5" y="25.1318">:Cookbook</text><rect fill="#FEFECE" height="30.0986" style="stroke:#000000;stroke-width:1.5;" width="62" x="963.5" y="5"/><text fill="#000000" font-family="Arial" font-size="14" lengthAdjust="spacing" textLength="48" x="970.5" y="25.1318">:Recipe</text><rect fill="#FFDAB9" height="209.9448" style="stroke:#000000;stroke-width:1.0;" width="10" x="99" y="67.0474"/><rect fill="#FFDAB9" height="25" style="stroke:#000000;stroke-width:1.0;" width="10" x="104" y="103.9961"/><rect fill="#FFDAB9" height="102.0474" style="stroke:#000000;stroke-width:1.0;" width="10" x="489.5" y="174.9448"/><rect fill="#FFDAB9" height="56.9487" style="stroke:#000000;stroke-width:1.0;" width="10" x="794.5" y="206.0435"/><rect fill="#FFDAB9" height="42.9487" style="stroke:#000000;stroke-width:1.0;" width="10" x="989.5" y="206.0435"/><polygon fill="#000000" points="87,63.0474,97,67.0474,87,71.0474,91,67.0474" style="stroke:#000000;stroke-width:1.0;"/><line style="stroke:#000000;stroke-width:2.0;stroke-dasharray:2.0,2.0;" x1="0" x2="93" y1="67.0474" y2="67.0474"/><text fill="#000000" font-family="Arial" font-size="13" lengthAdjust="spacing" textLength="80" x="7" y="62.2925">parseMaster()</text><line style="stroke:#000000;stroke-width:2.0;" x1="109" x2="156" y1="90.9961" y2="90.9961"/><line style="stroke:#000000;stroke-width:2.0;" x1="156" x2="156" y1="90.9961" y2="103.9961"/><line style="stroke:#000000;stroke-width:2.0;" x1="115" x2="156" y1="103.9961" y2="103.9961"/><polygon fill="#000000" points="125,99.9961,115,103.9961,125,107.9961,121,103.9961" style="stroke:#000000;stroke-width:1.0;"/><text fill="#000000" font-family="Arial" font-size="13" lengthAdjust="spacing" textLength="60" x="121" y="86.2412">setParse()</text><line style="stroke:#000000;stroke-width:2.0;stroke-dasharray:2.0,2.0;" x1="114" x2="156" y1="127.9961" y2="127.9961"/><line style="stroke:#000000;stroke-width:2.0;stroke-dasharray:2.0,2.0;" x1="156" x2="156" y1="127.9961" y2="140.9961"/><line style="stroke:#000000;stroke-width:2.0;stroke-dasharray:2.0,2.0;" x1="109" x2="156" y1="140.9961" y2="140.9961"/><polygon fill="#000000" points="119,136.9961,109,140.9961,119,144.9961,115,140.9961" style="stroke:#000000;stroke-width:1.0;"/><polygon fill="#000000" points="405,160.9448,415,164.9448,405,168.9448,409,164.9448" style="stroke:#000000;stroke-width:1.0;"/><line style="stroke:#000000;stroke-width:2.0;" x1="109" x2="411" y1="164.9448" y2="164.9448"/><text fill="#000000" font-family="Arial" font-size="13" lengthAdjust="spacing" textLength="284" x="116" y="160.1899">SetCaloriesCommand(String recipeName, int cal)</text><rect fill="#FEFECE" height="30.0986" style="stroke:#000000;stroke-width:1.5;" width="155" x="417" y="143.9961"/><text fill="#000000" font-family="Arial" font-size="14" lengthAdjust="spacing" textLength="141" x="424" y="164.1279">:SetCaloriesCommand</text><polygon fill="#000000" points="782.5,202.0435,792.5,206.0435,782.5,210.0435,786.5,206.0435" style="stroke:#000000;stroke-width:1.0;"/><line style="stroke:#000000;stroke-width:2.0;" x1="499.5" x2="788.5" y1="206.0435" y2="206.0435"/><text fill="#000000" font-family="Arial" font-size="13" lengthAdjust="spacing" textLength="276" x="506.5" y="201.2886">setCalories(String recipeName, int newCalories)</text><polygon fill="#000000" points="977.5,230.9922,987.5,234.9922,977.5,238.9922,981.5,234.9922" style="stroke:#000000;stroke-width:1.0;"/><line style="stroke:#000000;stroke-width:2.0;" x1="804.5" x2="983.5" y1="234.9922" y2="234.9922"/><text fill="#000000" font-family="Arial" font-size="13" lengthAdjust="spacing" textLength="161" x="811.5" y="230.2373">setCalories(int newCalories)</text><polygon fill="#000000" points="815.5,244.9922,805.5,248.9922,815.5,252.9922,811.5,248.9922" style="stroke:#000000;stroke-width:1.0;"/><line style="stroke:#000000;stroke-width:2.0;stroke-dasharray:2.0,2.0;" x1="809.5" x2="993.5" y1="248.9922" y2="248.9922"/><line style="stroke:#000000;stroke-width:2.0;" x1="985.5" x2="1003.5" y1="239.9922" y2="257.9922"/><line style="stroke:#000000;stroke-width:2.0;" x1="985.5" x2="1003.5" y1="257.9922" y2="239.9922"/><polygon fill="#000000" points="510.5,258.9922,500.5,262.9922,510.5,266.9922,506.5,262.9922" style="stroke:#000000;stroke-width:1.0;"/><line style="stroke:#000000;stroke-width:2.0;stroke-dasharray:2.0,2.0;" x1="504.5" x2="798.5" y1="262.9922" y2="262.9922"/><line style="stroke:#000000;stroke-width:2.0;" x1="790.5" x2="808.5" y1="253.9922" y2="271.9922"/><line style="stroke:#000000;stroke-width:2.0;" x1="790.5" x2="808.5" y1="271.9922" y2="253.9922"/><polygon fill="#000000" points="115,272.9922,105,276.9922,115,280.9922,111,276.9922" style="stroke:#000000;stroke-width:1.0;"/><line style="stroke:#000000;stroke-width:2.0;stroke-dasharray:2.0,2.0;" x1="109" x2="493.5" y1="276.9922" y2="276.9922"/><line style="stroke:#000000;stroke-width:2.0;" x1="485.5" x2="503.5" y1="267.9922" y2="285.9922"/><line style="stroke:#000000;stroke-width:2.0;" x1="485.5" x2="503.5" y1="285.9922" y2="267.9922"/><line style="stroke:#000000;stroke-width:2.0;" x1="95" x2="113" y1="267.9922" y2="285.9922"/><line style="stroke:#000000;stroke-width:2.0;" x1="95" x2="113" y1="285.9922" y2="267.9922"/><!--MD5=[aa32f9d9280bf25abf42a6dbd5a030b8]
@startuml

hide footbox

!include Style.puml
skinparam sequence {
ParticipantBorderColor black
LifeLineBorderColor black
LifeLineBackgroundColor peachpuff
}

skinparam sequenceArrowColor black

- -> ":Parser": parseMaster()
activate ":Parser"

' Name
":Parser" -> ":Parser": setParse()
activate ":Parser"

":Parser" - -> ":Parser"
deactivate ":Parser"



create ":SetCaloriesCommand"
":Parser" -> ":SetCaloriesCommand": SetCaloriesCommand(String recipeName, int cal)
activate ":SetCaloriesCommand"

":SetCaloriesCommand" -> ":Cookbook" : setCalories(String recipeName, int newCalories)
activate ":Cookbook"

activate ":Recipe"
":Cookbook" -> ":Recipe": setCalories(int newCalories)

":Recipe" - -> ":Cookbook"
destroy ":Recipe"

":Cookbook" - -> ":SetCaloriesCommand"
destroy ":Cookbook"

":SetCaloriesCommand" - -> ":Parser"
destroy ":SetCaloriesCommand"

destroy ":Parser"





@enduml

@startuml

hide footbox







hide circle
skinparam backgroundColor white
skinparam defaultFontName Arial
skinparam shadowing false
skinparam arrowThickness 2
skinparam classAttributeIconSize 0
skinparam sequence {
ParticipantBorderColor black
LifeLineBorderColor black
LifeLineBackgroundColor peachpuff
}

skinparam sequenceArrowColor black

- -> ":Parser": parseMaster()
activate ":Parser"

":Parser" -> ":Parser": setParse()
activate ":Parser"

":Parser" - -> ":Parser"
deactivate ":Parser"



create ":SetCaloriesCommand"
":Parser" -> ":SetCaloriesCommand": SetCaloriesCommand(String recipeName, int cal)
activate ":SetCaloriesCommand"

":SetCaloriesCommand" -> ":Cookbook" : setCalories(String recipeName, int newCalories)
activate ":Cookbook"

activate ":Recipe"
":Cookbook" -> ":Recipe": setCalories(int newCalories)

":Recipe" - -> ":Cookbook"
destroy ":Recipe"

":Cookbook" - -> ":SetCaloriesCommand"
destroy ":Cookbook"

":SetCaloriesCommand" - -> ":Parser"
destroy ":SetCaloriesCommand"

destroy ":Parser"





@enduml

PlantUML version 1.2021.11(Sat Oct 02 21:26:11 SGT 2021)
(GPL source distribution)
Java Runtime: OpenJDK Runtime Environment
JVM: OpenJDK 64-Bit Server VM
Default Encoding: Cp1252
Language: en
Country: US
--></g></svg>