<?xml version="1.0" encoding="UTF-8" standalone="no"?><svg xmlns="http://www.w3.org/2000/svg" xmlns:xlink="http://www.w3.org/1999/xlink" contentScriptType="application/ecmascript" contentStyleType="text/css" height="289px" preserveAspectRatio="none" style="width:954px;height:289px;background:#FFFFFF;" version="1.1" viewBox="0 0 954 289" width="954px" zoomAndPan="magnify"><defs/><g><rect fill="#FFDAB9" height="197.7949" style="stroke:#000000;stroke-width:1.0;" width="10" x="99" y="67.0474"/><rect fill="#FFDAB9" height="25" style="stroke:#000000;stroke-width:1.0;" width="10" x="104" y="103.9961"/><rect fill="#FFDAB9" height="99.8975" style="stroke:#000000;stroke-width:1.0;" width="10" x="412" y="164.9448"/><rect fill="#FFDAB9" height="56.9487" style="stroke:#000000;stroke-width:1.0;" width="10" x="717" y="193.8936"/><rect fill="#FFDAB9" height="42.9487" style="stroke:#000000;stroke-width:1.0;" width="10" x="912" y="193.8936"/><line style="stroke:#000000;stroke-width:1.0;stroke-dasharray:5.0,5.0;" x1="104" x2="104" y1="36.0986" y2="282.8423"/><line style="stroke:#000000;stroke-width:1.0;stroke-dasharray:5.0,5.0;" x1="416.5" x2="416.5" y1="36.0986" y2="282.8423"/><line style="stroke:#000000;stroke-width:1.0;stroke-dasharray:5.0,5.0;" x1="722" x2="722" y1="36.0986" y2="282.8423"/><line style="stroke:#000000;stroke-width:1.0;stroke-dasharray:5.0,5.0;" x1="917" x2="917" y1="36.0986" y2="282.8423"/><rect fill="#FEFECE" height="30.0986" style="stroke:#000000;stroke-width:1.5;" width="60" x="74" y="5"/><text fill="#000000" font-family="Arial" font-size="14" lengthAdjust="spacing" textLength="46" x="81" y="25.1318">:Parser</text><rect fill="#FEFECE" height="30.0986" style="stroke:#000000;stroke-width:1.5;" width="157" x="338.5" y="5"/><text fill="#000000" font-family="Arial" font-size="14" lengthAdjust="spacing" textLength="143" x="345.5" y="25.1318">:SetCaloriesCommand</text><rect fill="#FEFECE" height="30.0986" style="stroke:#000000;stroke-width:1.5;" width="82" x="681" y="5"/><text fill="#000000" font-family="Arial" font-size="14" lengthAdjust="spacing" textLength="68" x="688" y="25.1318">:Cookbook</text><rect fill="#FEFECE" height="30.0986" style="stroke:#000000;stroke-width:1.5;" width="62" x="886" y="5"/><text fill="#000000" font-family="Arial" font-size="14" lengthAdjust="spacing" textLength="48" x="893" y="25.1318">:Recipe</text><rect fill="#FFDAB9" height="197.7949" style="stroke:#000000;stroke-width:1.0;" width="10" x="99" y="67.0474"/><rect fill="#FFDAB9" height="25" style="stroke:#000000;stroke-width:1.0;" width="10" x="104" y="103.9961"/><rect fill="#FFDAB9" height="99.8975" style="stroke:#000000;stroke-width:1.0;" width="10" x="412" y="164.9448"/><rect fill="#FFDAB9" height="56.9487" style="stroke:#000000;stroke-width:1.0;" width="10" x="717" y="193.8936"/><rect fill="#FFDAB9" height="42.9487" style="stroke:#000000;stroke-width:1.0;" width="10" x="912" y="193.8936"/><polygon fill="#000000" points="87,63.0474,97,67.0474,87,71.0474,91,67.0474" style="stroke:#000000;stroke-width:1.0;"/><line style="stroke:#000000;stroke-width:2.0;stroke-dasharray:2.0,2.0;" x1="0" x2="93" y1="67.0474" y2="67.0474"/><text fill="#000000" font-family="Arial" font-size="13" lengthAdjust="spacing" textLength="80" x="7" y="62.2925">parseMaster()</text><line style="stroke:#000000;stroke-width:2.0;" x1="109" x2="156" y1="90.9961" y2="90.9961"/><line style="stroke:#000000;stroke-width:2.0;" x1="156" x2="156" y1="90.9961" y2="103.9961"/><line style="stroke:#000000;stroke-width:2.0;" x1="115" x2="156" y1="103.9961" y2="103.9961"/><polygon fill="#000000" points="125,99.9961,115,103.9961,125,107.9961,121,103.9961" style="stroke:#000000;stroke-width:1.0;"/><text fill="#000000" font-family="Arial" font-size="13" lengthAdjust="spacing" textLength="60" x="121" y="86.2412">setParse()</text><line style="stroke:#000000;stroke-width:2.0;stroke-dasharray:2.0,2.0;" x1="114" x2="156" y1="127.9961" y2="127.9961"/><line style="stroke:#000000;stroke-width:2.0;stroke-dasharray:2.0,2.0;" x1="156" x2="156" y1="127.9961" y2="140.9961"/><line style="stroke:#000000;stroke-width:2.0;stroke-dasharray:2.0,2.0;" x1="109" x2="156" y1="140.9961" y2="140.9961"/><polygon fill="#000000" points="119,136.9961,109,140.9961,119,144.9961,115,140.9961" style="stroke:#000000;stroke-width:1.0;"/><polygon fill="#000000" points="400,160.9448,410,164.9448,400,168.9448,404,164.9448" style="stroke:#000000;stroke-width:1.0;"/><line style="stroke:#000000;stroke-width:2.0;" x1="109" x2="406" y1="164.9448" y2="164.9448"/><text fill="#000000" font-family="Arial" font-size="13" lengthAdjust="spacing" textLength="284" x="116" y="160.1899">SetCaloriesCommand(String recipeName, int cal)</text><polygon fill="#000000" points="705,189.8936,715,193.8936,705,197.8936,709,193.8936" style="stroke:#000000;stroke-width:1.0;"/><line style="stroke:#000000;stroke-width:2.0;" x1="422" x2="711" y1="193.8936" y2="193.8936"/><text fill="#000000" font-family="Arial" font-size="13" lengthAdjust="spacing" textLength="276" x="429" y="189.1387">setCalories(String recipeName, int newCalories)</text><polygon fill="#000000" points="900,218.8423,910,222.8423,900,226.8423,904,222.8423" style="stroke:#000000;stroke-width:1.0;"/><line style="stroke:#000000;stroke-width:2.0;" x1="727" x2="906" y1="222.8423" y2="222.8423"/><text fill="#000000" font-family="Arial" font-size="13" lengthAdjust="spacing" textLength="161" x="734" y="218.0874">setCalories(int newCalories)</text><polygon fill="#000000" points="738,232.8423,728,236.8423,738,240.8423,734,236.8423" style="stroke:#000000;stroke-width:1.0;"/><line style="stroke:#000000;stroke-width:2.0;stroke-dasharray:2.0,2.0;" x1="732" x2="916" y1="236.8423" y2="236.8423"/><line style="stroke:#000000;stroke-width:2.0;" x1="908" x2="926" y1="227.8423" y2="245.8423"/><line style="stroke:#000000;stroke-width:2.0;" x1="908" x2="926" y1="245.8423" y2="227.8423"/><polygon fill="#000000" points="433,246.8423,423,250.8423,433,254.8423,429,250.8423" style="stroke:#000000;stroke-width:1.0;"/><line style="stroke:#000000;stroke-width:2.0;stroke-dasharray:2.0,2.0;" x1="427" x2="721" y1="250.8423" y2="250.8423"/><line style="stroke:#000000;stroke-width:2.0;" x1="713" x2="731" y1="241.8423" y2="259.8423"/><line style="stroke:#000000;stroke-width:2.0;" x1="713" x2="731" y1="259.8423" y2="241.8423"/><polygon fill="#000000" points="115,260.8423,105,264.8423,115,268.8423,111,264.8423" style="stroke:#000000;stroke-width:1.0;"/><line style="stroke:#000000;stroke-width:2.0;stroke-dasharray:2.0,2.0;" x1="109" x2="416" y1="264.8423" y2="264.8423"/><line style="stroke:#000000;stroke-width:2.0;" x1="408" x2="426" y1="255.8423" y2="273.8423"/><line style="stroke:#000000;stroke-width:2.0;" x1="408" x2="426" y1="273.8423" y2="255.8423"/><line style="stroke:#000000;stroke-width:2.0;" x1="95" x2="113" y1="255.8423" y2="273.8423"/><line style="stroke:#000000;stroke-width:2.0;" x1="95" x2="113" y1="273.8423" y2="255.8423"/><!--MD5=[b82b61a0b5e081cb2015b1d23407e905]
@startuml

hide footbox

!include Style.puml
skinparam sequence {
ParticipantBorderColor black
LifeLineBorderColor black
LifeLineBackgroundColor peachpuff
}

skinparam sequenceArrowColor black

- -> ":Parser": parseMaster()
activate ":Parser"

' Name
":Parser" -> ":Parser": setParse()
activate ":Parser"

":Parser" - -> ":Parser"
deactivate ":Parser"




":Parser" -> ":SetCaloriesCommand": SetCaloriesCommand(String recipeName, int cal)
activate ":SetCaloriesCommand"

":SetCaloriesCommand" -> ":Cookbook" : setCalories(String recipeName, int newCalories)
activate ":Cookbook"

activate ":Recipe"
":Cookbook" -> ":Recipe": setCalories(int newCalories)

":Recipe" - -> ":Cookbook"
destroy ":Recipe"

":Cookbook" - -> ":SetCaloriesCommand"
destroy ":Cookbook"

":SetCaloriesCommand" - -> ":Parser"
destroy ":SetCaloriesCommand"

destroy ":Parser"





@enduml

@startuml

hide footbox







hide circle
skinparam backgroundColor white
skinparam defaultFontName Arial
skinparam shadowing false
skinparam arrowThickness 2
skinparam classAttributeIconSize 0
skinparam sequence {
ParticipantBorderColor black
LifeLineBorderColor black
LifeLineBackgroundColor peachpuff
}

skinparam sequenceArrowColor black

- -> ":Parser": parseMaster()
activate ":Parser"

":Parser" -> ":Parser": setParse()
activate ":Parser"

":Parser" - -> ":Parser"
deactivate ":Parser"




":Parser" -> ":SetCaloriesCommand": SetCaloriesCommand(String recipeName, int cal)
activate ":SetCaloriesCommand"

":SetCaloriesCommand" -> ":Cookbook" : setCalories(String recipeName, int newCalories)
activate ":Cookbook"

activate ":Recipe"
":Cookbook" -> ":Recipe": setCalories(int newCalories)

":Recipe" - -> ":Cookbook"
destroy ":Recipe"

":Cookbook" - -> ":SetCaloriesCommand"
destroy ":Cookbook"

":SetCaloriesCommand" - -> ":Parser"
destroy ":SetCaloriesCommand"

destroy ":Parser"





@enduml

PlantUML version 1.2021.11(Sat Oct 02 21:26:11 SGT 2021)
(GPL source distribution)
Java Runtime: OpenJDK Runtime Environment
JVM: OpenJDK 64-Bit Server VM
Default Encoding: UTF-8
Language: en
Country: GB
--></g></svg>