<?xml version="1.0" encoding="UTF-8" standalone="no"?><svg xmlns="http://www.w3.org/2000/svg" xmlns:xlink="http://www.w3.org/1999/xlink" contentScriptType="application/ecmascript" contentStyleType="text/css" height="481px" preserveAspectRatio="none" style="width:831px;height:481px;background:#FFFFFF;" version="1.1" viewBox="0 0 831 481" width="831px" zoomAndPan="magnify"><defs/><g><rect fill="#FFDAB9" height="379.1875" style="stroke:#000000;stroke-width:1.0;" width="10" x="99" y="67.0474"/><rect fill="#FFDAB9" height="332.2388" style="stroke:#000000;stroke-width:1.0;" width="10" x="211" y="95.9961"/><rect fill="#FFDAB9" height="285.29" style="stroke:#000000;stroke-width:1.0;" width="10" x="545" y="124.9448"/><rect fill="#FFDAB9" height="14" style="stroke:#000000;stroke-width:1.0;" width="10" x="746" y="381.2349"/><rect fill="#FFFFFF" height="263.29" style="stroke:#000000;stroke-width:2.0;" width="760.5" x="64" y="139.9448"/><rect fill="#FFFFFF" height="160.7437" style="stroke:#000000;stroke-width:2.0;" width="467" x="134" y="177.8936"/><rect fill="#FFFFFF" height="57.5977" style="stroke:none;stroke-width:1.0;" width="760.5" x="64" y="345.6372"/><line style="stroke:#000000;stroke-width:1.0;stroke-dasharray:5.0,5.0;" x1="104" x2="104" y1="36.0986" y2="474.2349"/><line style="stroke:#000000;stroke-width:1.0;stroke-dasharray:5.0,5.0;" x1="216" x2="216" y1="36.0986" y2="474.2349"/><line style="stroke:#000000;stroke-width:1.0;stroke-dasharray:5.0,5.0;" x1="550" x2="550" y1="36.0986" y2="474.2349"/><line style="stroke:#000000;stroke-width:1.0;stroke-dasharray:5.0,5.0;" x1="750.5" x2="750.5" y1="36.0986" y2="474.2349"/><rect fill="#FEFECE" height="30.0986" style="stroke:#000000;stroke-width:1.5;" width="60" x="74" y="5"/><text fill="#000000" font-family="Arial" font-size="14" lengthAdjust="spacing" textLength="46" x="81" y="25.1318">:Parser</text><rect fill="#FEFECE" height="30.0986" style="stroke:#000000;stroke-width:1.5;" width="144" x="144" y="5"/><text fill="#000000" font-family="Arial" font-size="14" lengthAdjust="spacing" textLength="130" x="151" y="25.1318">:TagUntagCommand</text><rect fill="#FEFECE" height="30.0986" style="stroke:#000000;stroke-width:1.5;" width="82" x="509" y="5"/><text fill="#000000" font-family="Arial" font-size="14" lengthAdjust="spacing" textLength="68" x="516" y="25.1318">:Cookbook</text><rect fill="#FEFECE" height="30.0986" style="stroke:#000000;stroke-width:1.5;" width="127" x="687.5" y="5"/><text fill="#000000" font-family="Arial" font-size="14" lengthAdjust="spacing" textLength="113" x="694.5" y="25.1318">:GordonException</text><rect fill="#FFDAB9" height="379.1875" style="stroke:#000000;stroke-width:1.0;" width="10" x="99" y="67.0474"/><rect fill="#FFDAB9" height="332.2388" style="stroke:#000000;stroke-width:1.0;" width="10" x="211" y="95.9961"/><rect fill="#FFDAB9" height="285.29" style="stroke:#000000;stroke-width:1.0;" width="10" x="545" y="124.9448"/><rect fill="#FFDAB9" height="14" style="stroke:#000000;stroke-width:1.0;" width="10" x="746" y="381.2349"/><polygon fill="#000000" points="87,63.0474,97,67.0474,87,71.0474,91,67.0474" style="stroke:#000000;stroke-width:1.0;"/><line style="stroke:#000000;stroke-width:2.0;" x1="0" x2="93" y1="67.0474" y2="67.0474"/><text fill="#000000" font-family="Arial" font-size="13" lengthAdjust="spacing" textLength="80" x="7" y="62.2925">parseMaster()</text><polygon fill="#000000" points="199,91.9961,209,95.9961,199,99.9961,203,95.9961" style="stroke:#000000;stroke-width:1.0;"/><line style="stroke:#000000;stroke-width:2.0;" x1="109" x2="205" y1="95.9961" y2="95.9961"/><text fill="#000000" font-family="Arial" font-size="13" lengthAdjust="spacing" textLength="74" x="116" y="91.2412">untagParse()</text><polygon fill="#000000" points="533,120.9448,543,124.9448,533,128.9448,537,124.9448" style="stroke:#000000;stroke-width:1.0;"/><line style="stroke:#000000;stroke-width:2.0;" x1="221" x2="539" y1="124.9448" y2="124.9448"/><text fill="#000000" font-family="Arial" font-size="13" lengthAdjust="spacing" textLength="88" x="228" y="120.1899">isRecipeExist()</text><path d="M64,139.9448 L125,139.9448 L125,145.9448 L115,155.9448 L64,155.9448 L64,139.9448 " fill="#EEEEEE" style="stroke:#000000;stroke-width:1.0;"/><rect fill="none" height="263.29" style="stroke:#000000;stroke-width:2.0;" width="760.5" x="64" y="139.9448"/><text fill="#000000" font-family="Arial" font-size="13" font-weight="bold" lengthAdjust="spacing" textLength="16" x="79" y="153.1387">alt</text><text fill="#000000" font-family="Arial" font-size="11" font-weight="bold" lengthAdjust="spacing" textLength="80" x="140" y="152.2627">[recipe exists]</text><polygon fill="#000000" points="232,158.8936,222,162.8936,232,166.8936,228,162.8936" style="stroke:#000000;stroke-width:1.0;"/><line style="stroke:#000000;stroke-width:2.0;stroke-dasharray:2.0,2.0;" x1="226" x2="544" y1="162.8936" y2="162.8936"/><path d="M134,177.8936 L207,177.8936 L207,183.8936 L197,193.8936 L134,193.8936 L134,177.8936 " fill="#EEEEEE" style="stroke:#000000;stroke-width:1.0;"/><rect fill="none" height="160.7437" style="stroke:#000000;stroke-width:2.0;" width="467" x="134" y="177.8936"/><text fill="#000000" font-family="Arial" font-size="13" font-weight="bold" lengthAdjust="spacing" textLength="28" x="149" y="191.0874">loop</text><text fill="#000000" font-family="Arial" font-size="11" font-weight="bold" lengthAdjust="spacing" textLength="181" x="222" y="190.2114">[for all Tags in parsedCommand]</text><polygon fill="#000000" points="533,211.791,543,215.791,533,219.791,537,215.791" style="stroke:#000000;stroke-width:1.0;"/><line style="stroke:#000000;stroke-width:2.0;" x1="221" x2="539" y1="215.791" y2="215.791"/><text fill="#000000" font-family="Arial" font-size="13" lengthAdjust="spacing" textLength="127" x="228" y="211.0361">extractCookbookTag()</text><polygon fill="#000000" points="232,240.7397,222,244.7397,232,248.7397,228,244.7397" style="stroke:#000000;stroke-width:1.0;"/><line style="stroke:#000000;stroke-width:2.0;stroke-dasharray:2.0,2.0;" x1="226" x2="544" y1="244.7397" y2="244.7397"/><text fill="#000000" font-family="Arial" font-size="13" lengthAdjust="spacing" textLength="75" x="238" y="239.9849">extractedTag</text><polygon fill="#000000" points="533,269.6885,543,273.6885,533,277.6885,537,273.6885" style="stroke:#000000;stroke-width:1.0;"/><line style="stroke:#000000;stroke-width:2.0;" x1="221" x2="539" y1="273.6885" y2="273.6885"/><text fill="#000000" font-family="Arial" font-size="13" lengthAdjust="spacing" textLength="283" x="228" y="268.9336">untagTagFromRecipe(extractedTag, recipeName)</text><polygon fill="#000000" points="232,283.6885,222,287.6885,232,291.6885,228,287.6885" style="stroke:#000000;stroke-width:1.0;"/><line style="stroke:#000000;stroke-width:2.0;stroke-dasharray:2.0,2.0;" x1="226" x2="544" y1="287.6885" y2="287.6885"/><polygon fill="#000000" points="533,312.6372,543,316.6372,533,320.6372,537,316.6372" style="stroke:#000000;stroke-width:1.0;"/><line style="stroke:#000000;stroke-width:2.0;" x1="221" x2="539" y1="316.6372" y2="316.6372"/><text fill="#000000" font-family="Arial" font-size="13" lengthAdjust="spacing" textLength="300" x="228" y="311.8823">deleteRecipeFromCookbook(tagName, recipeName)</text><polygon fill="#000000" points="232,326.6372,222,330.6372,232,334.6372,228,330.6372" style="stroke:#000000;stroke-width:1.0;"/><line style="stroke:#000000;stroke-width:2.0;stroke-dasharray:2.0,2.0;" x1="226" x2="544" y1="330.6372" y2="330.6372"/><line style="stroke:#000000;stroke-width:1.0;stroke-dasharray:2.0,2.0;" x1="64" x2="824.5" y1="346.6372" y2="346.6372"/><text fill="#000000" font-family="Arial" font-size="11" font-weight="bold" lengthAdjust="spacing" textLength="125" x="69" y="356.9551">[recipe does not exist]</text><polygon fill="#000000" points="734,377.2349,744,381.2349,734,385.2349,738,381.2349" style="stroke:#000000;stroke-width:1.0;"/><line style="stroke:#000000;stroke-width:2.0;" x1="555" x2="740" y1="381.2349" y2="381.2349"/><text fill="#000000" font-family="Arial" font-size="13" lengthAdjust="spacing" textLength="172" x="562" y="376.48">throws(NO_RECIPE_FOUND)</text><polygon fill="#000000" points="120,391.2349,110,395.2349,120,399.2349,116,395.2349" style="stroke:#000000;stroke-width:1.0;"/><line style="stroke:#000000;stroke-width:2.0;stroke-dasharray:2.0,2.0;" x1="114" x2="750" y1="395.2349" y2="395.2349"/><line style="stroke:#000000;stroke-width:2.0;" x1="742" x2="760" y1="386.2349" y2="404.2349"/><line style="stroke:#000000;stroke-width:2.0;" x1="742" x2="760" y1="404.2349" y2="386.2349"/><line style="stroke:#000000;stroke-width:2.0;" x1="541" x2="559" y1="410.2349" y2="428.2349"/><line style="stroke:#000000;stroke-width:2.0;" x1="541" x2="559" y1="428.2349" y2="410.2349"/><line style="stroke:#000000;stroke-width:2.0;" x1="207" x2="225" y1="428.2349" y2="446.2349"/><line style="stroke:#000000;stroke-width:2.0;" x1="207" x2="225" y1="446.2349" y2="428.2349"/><line style="stroke:#000000;stroke-width:2.0;" x1="95" x2="113" y1="446.2349" y2="464.2349"/><line style="stroke:#000000;stroke-width:2.0;" x1="95" x2="113" y1="464.2349" y2="446.2349"/><!--MD5=[cd179c0201a8e957a600c91cce088809]
@startuml

hide footbox
!include Style.puml
skinparam sequence {
ParticipantBorderColor black
LifeLineBorderColor black
LifeLineBackgroundColor peachpuff
}

skinparam sequenceArrowColor black

-> ":Parser": parseMaster()
activate ":Parser"

":Parser" -> ":TagUntagCommand": untagParse()
activate ":TagUntagCommand"

":TagUntagCommand" -> ":Cookbook": isRecipeExist()
activate ":Cookbook"

alt recipe exists
    ":Cookbook" - -> ":TagUntagCommand"
    loop for all Tags in parsedCommand
        ":TagUntagCommand" -> ":Cookbook": extractCookbookTag()
        ":Cookbook" - -> ":TagUntagCommand": extractedTag
        ":TagUntagCommand" -> ":Cookbook": untagTagFromRecipe(extractedTag, recipeName)
        ":Cookbook" - -> ":TagUntagCommand"
        ":TagUntagCommand" -> ":Cookbook": deleteRecipeFromCookbook(tagName, recipeName)
        ":Cookbook" - -> ":TagUntagCommand"
    end
else recipe does not exist
    ":Cookbook" -> ":GordonException": throws(NO_RECIPE_FOUND)
    activate ":GordonException"
    ":GordonException" - -> ":Parser"
    deactivate ":GordonException"
    destroy ":GordonException"
end
destroy ":Cookbook"
destroy ":TagUntagCommand"
destroy ":Parser"
@enduml

@startuml

hide footbox






hide circle
skinparam backgroundColor white
skinparam defaultFontName Arial
skinparam shadowing false
skinparam arrowThickness 2
skinparam classAttributeIconSize 0
skinparam sequence {
ParticipantBorderColor black
LifeLineBorderColor black
LifeLineBackgroundColor peachpuff
}

skinparam sequenceArrowColor black

-> ":Parser": parseMaster()
activate ":Parser"

":Parser" -> ":TagUntagCommand": untagParse()
activate ":TagUntagCommand"

":TagUntagCommand" -> ":Cookbook": isRecipeExist()
activate ":Cookbook"

alt recipe exists
    ":Cookbook" - -> ":TagUntagCommand"
    loop for all Tags in parsedCommand
        ":TagUntagCommand" -> ":Cookbook": extractCookbookTag()
        ":Cookbook" - -> ":TagUntagCommand": extractedTag
        ":TagUntagCommand" -> ":Cookbook": untagTagFromRecipe(extractedTag, recipeName)
        ":Cookbook" - -> ":TagUntagCommand"
        ":TagUntagCommand" -> ":Cookbook": deleteRecipeFromCookbook(tagName, recipeName)
        ":Cookbook" - -> ":TagUntagCommand"
    end
else recipe does not exist
    ":Cookbook" -> ":GordonException": throws(NO_RECIPE_FOUND)
    activate ":GordonException"
    ":GordonException" - -> ":Parser"
    deactivate ":GordonException"
    destroy ":GordonException"
end
destroy ":Cookbook"
destroy ":TagUntagCommand"
destroy ":Parser"
@enduml

PlantUML version 1.2021.11(Sat Oct 02 21:26:11 SGT 2021)
(GPL source distribution)
Java Runtime: OpenJDK Runtime Environment
JVM: OpenJDK 64-Bit Server VM
Default Encoding: Cp1252
Language: en
Country: US
--></g></svg>