<?xml version="1.0" encoding="UTF-8" standalone="no"?><svg xmlns="http://www.w3.org/2000/svg" xmlns:xlink="http://www.w3.org/1999/xlink" contentScriptType="application/ecmascript" contentStyleType="text/css" height="505px" preserveAspectRatio="none" style="width:958px;height:505px;background:#FFFFFF;" version="1.1" viewBox="0 0 958 505" width="958px" zoomAndPan="magnify"><defs/><g><rect fill="#FFDAB9" height="403.4873" style="stroke:#000000;stroke-width:1.0;" width="10" x="99" y="67.0474"/><rect fill="#FFDAB9" height="346.5386" style="stroke:#000000;stroke-width:1.0;" width="10" x="274" y="105.9961"/><rect fill="#FFDAB9" height="297.4399" style="stroke:#000000;stroke-width:1.0;" width="10" x="608" y="137.0947"/><rect fill="#FFDAB9" height="16.1499" style="stroke:#000000;stroke-width:1.0;" width="10" x="872.5" y="403.3848"/><rect fill="#FFFFFF" height="275.4399" style="stroke:#000000;stroke-width:2.0;" width="887" x="64" y="152.0947"/><rect fill="#FFFFFF" height="160.7437" style="stroke:#000000;stroke-width:2.0;" width="467" x="197" y="190.0435"/><rect fill="#FFFFFF" height="69.7476" style="stroke:none;stroke-width:1.0;" width="887" x="64" y="357.7871"/><line style="stroke:#000000;stroke-width:1.0;stroke-dasharray:5.0,5.0;" x1="104" x2="104" y1="36.0986" y2="498.5347"/><line style="stroke:#000000;stroke-width:1.0;stroke-dasharray:5.0,5.0;" x1="279" x2="279" y1="105.5967" y2="498.5347"/><line style="stroke:#000000;stroke-width:1.0;stroke-dasharray:5.0,5.0;" x1="613" x2="613" y1="36.0986" y2="498.5347"/><line style="stroke:#000000;stroke-width:1.0;stroke-dasharray:5.0,5.0;" x1="877" x2="877" y1="402.9854" y2="498.5347"/><rect fill="#FEFECE" height="30.0986" style="stroke:#000000;stroke-width:1.5;" width="60" x="74" y="5"/><text fill="#000000" font-family="Arial" font-size="14" lengthAdjust="spacing" textLength="46" x="81" y="25.1318">:Parser</text><rect fill="#FEFECE" height="30.0986" style="stroke:#000000;stroke-width:1.5;" width="82" x="572" y="5"/><text fill="#000000" font-family="Arial" font-size="14" lengthAdjust="spacing" textLength="68" x="579" y="25.1318">:Cookbook</text><rect fill="#FFDAB9" height="403.4873" style="stroke:#000000;stroke-width:1.0;" width="10" x="99" y="67.0474"/><rect fill="#FFDAB9" height="346.5386" style="stroke:#000000;stroke-width:1.0;" width="10" x="274" y="105.9961"/><rect fill="#FFDAB9" height="297.4399" style="stroke:#000000;stroke-width:1.0;" width="10" x="608" y="137.0947"/><rect fill="#FFDAB9" height="16.1499" style="stroke:#000000;stroke-width:1.0;" width="10" x="872.5" y="403.3848"/><polygon fill="#000000" points="87,63.0474,97,67.0474,87,71.0474,91,67.0474" style="stroke:#000000;stroke-width:1.0;"/><line style="stroke:#000000;stroke-width:2.0;" x1="0" x2="93" y1="67.0474" y2="67.0474"/><text fill="#000000" font-family="Arial" font-size="13" lengthAdjust="spacing" textLength="80" x="7" y="62.2925">parseMaster()</text><polygon fill="#000000" points="195,91.9961,205,95.9961,195,99.9961,199,95.9961" style="stroke:#000000;stroke-width:1.0;"/><line style="stroke:#000000;stroke-width:2.0;" x1="109" x2="201" y1="95.9961" y2="95.9961"/><text fill="#000000" font-family="Arial" font-size="13" lengthAdjust="spacing" textLength="74" x="116" y="91.2412">untagParse()</text><rect fill="#FEFECE" height="30.0986" style="stroke:#000000;stroke-width:1.5;" width="144" x="207" y="75.0474"/><text fill="#000000" font-family="Arial" font-size="14" lengthAdjust="spacing" textLength="130" x="214" y="95.1792">:TagUntagCommand</text><polygon fill="#000000" points="596,133.0947,606,137.0947,596,141.0947,600,137.0947" style="stroke:#000000;stroke-width:1.0;"/><line style="stroke:#000000;stroke-width:2.0;" x1="284" x2="602" y1="137.0947" y2="137.0947"/><text fill="#000000" font-family="Arial" font-size="13" lengthAdjust="spacing" textLength="88" x="291" y="132.3398">isRecipeExist()</text><path d="M64,152.0947 L125,152.0947 L125,158.0947 L115,168.0947 L64,168.0947 L64,152.0947 " fill="#EEEEEE" style="stroke:#000000;stroke-width:1.0;"/><rect fill="none" height="275.4399" style="stroke:#000000;stroke-width:2.0;" width="887" x="64" y="152.0947"/><text fill="#000000" font-family="Arial" font-size="13" font-weight="bold" lengthAdjust="spacing" textLength="16" x="79" y="165.2886">alt</text><text fill="#000000" font-family="Arial" font-size="11" font-weight="bold" lengthAdjust="spacing" textLength="80" x="140" y="164.4126">[recipe exists]</text><polygon fill="#000000" points="295,171.0435,285,175.0435,295,179.0435,291,175.0435" style="stroke:#000000;stroke-width:1.0;"/><line style="stroke:#000000;stroke-width:2.0;stroke-dasharray:2.0,2.0;" x1="289" x2="607" y1="175.0435" y2="175.0435"/><path d="M197,190.0435 L270,190.0435 L270,196.0435 L260,206.0435 L197,206.0435 L197,190.0435 " fill="#EEEEEE" style="stroke:#000000;stroke-width:1.0;"/><rect fill="none" height="160.7437" style="stroke:#000000;stroke-width:2.0;" width="467" x="197" y="190.0435"/><text fill="#000000" font-family="Arial" font-size="13" font-weight="bold" lengthAdjust="spacing" textLength="28" x="212" y="203.2373">loop</text><text fill="#000000" font-family="Arial" font-size="11" font-weight="bold" lengthAdjust="spacing" textLength="181" x="285" y="202.3613">[for all Tags in parsedCommand]</text><polygon fill="#000000" points="596,223.9409,606,227.9409,596,231.9409,600,227.9409" style="stroke:#000000;stroke-width:1.0;"/><line style="stroke:#000000;stroke-width:2.0;" x1="284" x2="602" y1="227.9409" y2="227.9409"/><text fill="#000000" font-family="Arial" font-size="13" lengthAdjust="spacing" textLength="127" x="291" y="223.186">extractCookbookTag()</text><polygon fill="#000000" points="295,252.8896,285,256.8896,295,260.8896,291,256.8896" style="stroke:#000000;stroke-width:1.0;"/><line style="stroke:#000000;stroke-width:2.0;stroke-dasharray:2.0,2.0;" x1="289" x2="607" y1="256.8896" y2="256.8896"/><text fill="#000000" font-family="Arial" font-size="13" lengthAdjust="spacing" textLength="75" x="301" y="252.1348">extractedTag</text><polygon fill="#000000" points="596,281.8384,606,285.8384,596,289.8384,600,285.8384" style="stroke:#000000;stroke-width:1.0;"/><line style="stroke:#000000;stroke-width:2.0;" x1="284" x2="602" y1="285.8384" y2="285.8384"/><text fill="#000000" font-family="Arial" font-size="13" lengthAdjust="spacing" textLength="283" x="291" y="281.0835">untagTagFromRecipe(extractedTag, recipeName)</text><polygon fill="#000000" points="295,295.8384,285,299.8384,295,303.8384,291,299.8384" style="stroke:#000000;stroke-width:1.0;"/><line style="stroke:#000000;stroke-width:2.0;stroke-dasharray:2.0,2.0;" x1="289" x2="607" y1="299.8384" y2="299.8384"/><polygon fill="#000000" points="596,324.7871,606,328.7871,596,332.7871,600,328.7871" style="stroke:#000000;stroke-width:1.0;"/><line style="stroke:#000000;stroke-width:2.0;" x1="284" x2="602" y1="328.7871" y2="328.7871"/><text fill="#000000" font-family="Arial" font-size="13" lengthAdjust="spacing" textLength="300" x="291" y="324.0322">deleteRecipeFromCookbook(tagName, recipeName)</text><polygon fill="#000000" points="295,338.7871,285,342.7871,295,346.7871,291,342.7871" style="stroke:#000000;stroke-width:1.0;"/><line style="stroke:#000000;stroke-width:2.0;stroke-dasharray:2.0,2.0;" x1="289" x2="607" y1="342.7871" y2="342.7871"/><line style="stroke:#000000;stroke-width:1.0;stroke-dasharray:2.0,2.0;" x1="64" x2="951" y1="358.7871" y2="358.7871"/><text fill="#000000" font-family="Arial" font-size="11" font-weight="bold" lengthAdjust="spacing" textLength="125" x="69" y="369.105">[recipe does not exist]</text><polygon fill="#000000" points="802,389.3848,812,393.3848,802,397.3848,806,393.3848" style="stroke:#000000;stroke-width:1.0;"/><line style="stroke:#000000;stroke-width:2.0;" x1="618" x2="808" y1="393.3848" y2="393.3848"/><text fill="#000000" font-family="Arial" font-size="13" lengthAdjust="spacing" textLength="172" x="625" y="388.6299">throws(NO_RECIPE_FOUND)</text><rect fill="#FEFECE" height="30.0986" style="stroke:#000000;stroke-width:1.5;" width="127" x="814" y="372.436"/><text fill="#000000" font-family="Arial" font-size="14" lengthAdjust="spacing" textLength="113" x="821" y="392.5679">:GordonException</text><polygon fill="#000000" points="120,415.5347,110,419.5347,120,423.5347,116,419.5347" style="stroke:#000000;stroke-width:1.0;"/><line style="stroke:#000000;stroke-width:2.0;stroke-dasharray:2.0,2.0;" x1="114" x2="876.5" y1="419.5347" y2="419.5347"/><line style="stroke:#000000;stroke-width:2.0;" x1="868.5" x2="886.5" y1="410.5347" y2="428.5347"/><line style="stroke:#000000;stroke-width:2.0;" x1="868.5" x2="886.5" y1="428.5347" y2="410.5347"/><line style="stroke:#000000;stroke-width:2.0;" x1="604" x2="622" y1="434.5347" y2="452.5347"/><line style="stroke:#000000;stroke-width:2.0;" x1="604" x2="622" y1="452.5347" y2="434.5347"/><line style="stroke:#000000;stroke-width:2.0;" x1="270" x2="288" y1="452.5347" y2="470.5347"/><line style="stroke:#000000;stroke-width:2.0;" x1="270" x2="288" y1="470.5347" y2="452.5347"/><line style="stroke:#000000;stroke-width:2.0;" x1="95" x2="113" y1="470.5347" y2="488.5347"/><line style="stroke:#000000;stroke-width:2.0;" x1="95" x2="113" y1="488.5347" y2="470.5347"/><!--MD5=[ea700c3bd6c34ebfcf1628f36c40760a]
@startuml

hide footbox
!include Style.puml
skinparam sequence {
ParticipantBorderColor black
LifeLineBorderColor black
LifeLineBackgroundColor peachpuff
}

skinparam sequenceArrowColor black

-> ":Parser": parseMaster()
activate ":Parser"

create ":TagUntagCommand"
":Parser" -> ":TagUntagCommand": untagParse()
activate ":TagUntagCommand"

":TagUntagCommand" -> ":Cookbook": isRecipeExist()
activate ":Cookbook"

alt recipe exists
    ":Cookbook" - -> ":TagUntagCommand"
    loop for all Tags in parsedCommand
        ":TagUntagCommand" -> ":Cookbook": extractCookbookTag()
        ":Cookbook" - -> ":TagUntagCommand": extractedTag
        ":TagUntagCommand" -> ":Cookbook": untagTagFromRecipe(extractedTag, recipeName)
        ":Cookbook" - -> ":TagUntagCommand"
        ":TagUntagCommand" -> ":Cookbook": deleteRecipeFromCookbook(tagName, recipeName)
        ":Cookbook" - -> ":TagUntagCommand"
    end
else recipe does not exist
    create ":GordonException"
    ":Cookbook" -> ":GordonException": throws(NO_RECIPE_FOUND)
    activate ":GordonException"
    ":GordonException" - -> ":Parser"
    deactivate ":GordonException"
    destroy ":GordonException"
end
destroy ":Cookbook"
destroy ":TagUntagCommand"
destroy ":Parser"
@enduml

@startuml

hide footbox






hide circle
skinparam backgroundColor white
skinparam defaultFontName Arial
skinparam shadowing false
skinparam arrowThickness 2
skinparam classAttributeIconSize 0
skinparam sequence {
ParticipantBorderColor black
LifeLineBorderColor black
LifeLineBackgroundColor peachpuff
}

skinparam sequenceArrowColor black

-> ":Parser": parseMaster()
activate ":Parser"

create ":TagUntagCommand"
":Parser" -> ":TagUntagCommand": untagParse()
activate ":TagUntagCommand"

":TagUntagCommand" -> ":Cookbook": isRecipeExist()
activate ":Cookbook"

alt recipe exists
    ":Cookbook" - -> ":TagUntagCommand"
    loop for all Tags in parsedCommand
        ":TagUntagCommand" -> ":Cookbook": extractCookbookTag()
        ":Cookbook" - -> ":TagUntagCommand": extractedTag
        ":TagUntagCommand" -> ":Cookbook": untagTagFromRecipe(extractedTag, recipeName)
        ":Cookbook" - -> ":TagUntagCommand"
        ":TagUntagCommand" -> ":Cookbook": deleteRecipeFromCookbook(tagName, recipeName)
        ":Cookbook" - -> ":TagUntagCommand"
    end
else recipe does not exist
    create ":GordonException"
    ":Cookbook" -> ":GordonException": throws(NO_RECIPE_FOUND)
    activate ":GordonException"
    ":GordonException" - -> ":Parser"
    deactivate ":GordonException"
    destroy ":GordonException"
end
destroy ":Cookbook"
destroy ":TagUntagCommand"
destroy ":Parser"
@enduml

PlantUML version 1.2021.11(Sat Oct 02 21:26:11 SGT 2021)
(GPL source distribution)
Java Runtime: OpenJDK Runtime Environment
JVM: OpenJDK 64-Bit Server VM
Default Encoding: Cp1252
Language: en
Country: US
--></g></svg>