<?xml version="1.0" encoding="UTF-8" standalone="no"?><svg xmlns="http://www.w3.org/2000/svg" xmlns:xlink="http://www.w3.org/1999/xlink" contentScriptType="application/ecmascript" contentStyleType="text/css" height="443px" preserveAspectRatio="none" style="width:869px;height:443px;background:#FFFFFF;" version="1.1" viewBox="0 0 869 443" width="869px" zoomAndPan="magnify"><defs><filter height="300%" id="f17zkbu73dhmsg" width="300%" x="-1" y="-1"><feGaussianBlur result="blurOut" stdDeviation="2.0"/><feColorMatrix in="blurOut" result="blurOut2" type="matrix" values="0 0 0 0 0 0 0 0 0 0 0 0 0 0 0 0 0 0 .4 0"/><feOffset dx="4.0" dy="4.0" in="blurOut2" result="blurOut3"/><feBlend in="SourceGraphic" in2="blurOut3" mode="normal"/></filter></defs><g><rect fill="#FFFFFF" filter="url(#f17zkbu73dhmsg)" height="21.1328" style="stroke:#A80036;stroke-width:1.0;" width="10" x="31.5" y="50.2969"/><rect fill="#FFFFFF" filter="url(#f17zkbu73dhmsg)" height="320" style="stroke:#A80036;stroke-width:1.0;" width="10" x="171.5" y="71.4297"/><rect fill="#FFFFFF" filter="url(#f17zkbu73dhmsg)" height="290.8672" style="stroke:#A80036;stroke-width:1.0;" width="10" x="562.5" y="100.5625"/><rect fill="#FFFFFF" filter="url(#f17zkbu73dhmsg)" height="30" style="stroke:#A80036;stroke-width:1.0;" width="10" x="768.5" y="345.4297"/><rect fill="#FFFFFF" filter="url(#f17zkbu73dhmsg)" height="267.8672" style="stroke:#000000;stroke-width:2.0;" width="778.5" x="77" y="115.5625"/><rect fill="#FFFFFF" filter="url(#f17zkbu73dhmsg)" height="133.6641" style="stroke:#000000;stroke-width:2.0;" width="536.5" x="87" y="168.8281"/><rect fill="#FFFFFF" height="73.9375" style="stroke:none;stroke-width:1.0;" width="778.5" x="77" y="309.4922"/><line style="stroke:#A80036;stroke-width:1.0;stroke-dasharray:5.0,5.0;" x1="36" x2="36" y1="40.2969" y2="400.4297"/><line style="stroke:#A80036;stroke-width:1.0;stroke-dasharray:5.0,5.0;" x1="176" x2="176" y1="40.2969" y2="400.4297"/><line style="stroke:#A80036;stroke-width:1.0;stroke-dasharray:5.0,5.0;" x1="567.5" x2="567.5" y1="40.2969" y2="400.4297"/><line style="stroke:#A80036;stroke-width:1.0;stroke-dasharray:5.0,5.0;" x1="773.5" x2="773.5" y1="40.2969" y2="400.4297"/><rect fill="#FEFECE" filter="url(#f17zkbu73dhmsg)" height="30.2969" style="stroke:#A80036;stroke-width:1.5;" width="59" x="5" y="5"/><text fill="#000000" font-family="sans-serif" font-size="14" lengthAdjust="spacing" textLength="45" x="12" y="24.9951">Parser</text><rect fill="#FEFECE" filter="url(#f17zkbu73dhmsg)" height="30.2969" style="stroke:#A80036;stroke-width:1.5;" width="59" x="5" y="399.4297"/><text fill="#000000" font-family="sans-serif" font-size="14" lengthAdjust="spacing" textLength="45" x="12" y="419.4248">Parser</text><rect fill="#FEFECE" filter="url(#f17zkbu73dhmsg)" height="30.2969" style="stroke:#A80036;stroke-width:1.5;" width="155" x="97" y="5"/><text fill="#000000" font-family="sans-serif" font-size="14" lengthAdjust="spacing" textLength="141" x="104" y="24.9951">TagUntagCommand</text><rect fill="#FEFECE" filter="url(#f17zkbu73dhmsg)" height="30.2969" style="stroke:#A80036;stroke-width:1.5;" width="155" x="97" y="399.4297"/><text fill="#000000" font-family="sans-serif" font-size="14" lengthAdjust="spacing" textLength="141" x="104" y="419.4248">TagUntagCommand</text><rect fill="#FEFECE" filter="url(#f17zkbu73dhmsg)" height="30.2969" style="stroke:#A80036;stroke-width:1.5;" width="88" x="521.5" y="5"/><text fill="#000000" font-family="sans-serif" font-size="14" lengthAdjust="spacing" textLength="74" x="528.5" y="24.9951">Cookbook</text><rect fill="#FEFECE" filter="url(#f17zkbu73dhmsg)" height="30.2969" style="stroke:#A80036;stroke-width:1.5;" width="88" x="521.5" y="399.4297"/><text fill="#000000" font-family="sans-serif" font-size="14" lengthAdjust="spacing" textLength="74" x="528.5" y="419.4248">Cookbook</text><rect fill="#FEFECE" filter="url(#f17zkbu73dhmsg)" height="30.2969" style="stroke:#A80036;stroke-width:1.5;" width="140" x="701.5" y="5"/><text fill="#000000" font-family="sans-serif" font-size="14" lengthAdjust="spacing" textLength="126" x="708.5" y="24.9951">GordonException</text><rect fill="#FEFECE" filter="url(#f17zkbu73dhmsg)" height="30.2969" style="stroke:#A80036;stroke-width:1.5;" width="140" x="701.5" y="399.4297"/><text fill="#000000" font-family="sans-serif" font-size="14" lengthAdjust="spacing" textLength="126" x="708.5" y="419.4248">GordonException</text><rect fill="#FFFFFF" filter="url(#f17zkbu73dhmsg)" height="21.1328" style="stroke:#A80036;stroke-width:1.0;" width="10" x="31.5" y="50.2969"/><rect fill="#FFFFFF" filter="url(#f17zkbu73dhmsg)" height="320" style="stroke:#A80036;stroke-width:1.0;" width="10" x="171.5" y="71.4297"/><rect fill="#FFFFFF" filter="url(#f17zkbu73dhmsg)" height="290.8672" style="stroke:#A80036;stroke-width:1.0;" width="10" x="562.5" y="100.5625"/><rect fill="#FFFFFF" filter="url(#f17zkbu73dhmsg)" height="30" style="stroke:#A80036;stroke-width:1.0;" width="10" x="768.5" y="345.4297"/><polygon fill="#A80036" points="159.5,67.4297,169.5,71.4297,159.5,75.4297,163.5,71.4297" style="stroke:#A80036;stroke-width:1.0;"/><line style="stroke:#A80036;stroke-width:1.0;" x1="36.5" x2="165.5" y1="71.4297" y2="71.4297"/><text fill="#000000" font-family="sans-serif" font-size="13" lengthAdjust="spacing" textLength="111" x="43.5" y="66.3638">parsedCommand</text><polygon fill="#A80036" points="550.5,96.5625,560.5,100.5625,550.5,104.5625,554.5,100.5625" style="stroke:#A80036;stroke-width:1.0;"/><line style="stroke:#A80036;stroke-width:1.0;" x1="181.5" x2="556.5" y1="100.5625" y2="100.5625"/><text fill="#000000" font-family="sans-serif" font-size="13" lengthAdjust="spacing" textLength="84" x="188.5" y="95.4966">isRecipeExist</text><path d="M77,115.5625 L143,115.5625 L143,122.5625 L133,132.5625 L77,132.5625 L77,115.5625 " fill="#EEEEEE" style="stroke:#000000;stroke-width:1.0;"/><rect fill="none" height="267.8672" style="stroke:#000000;stroke-width:2.0;" width="778.5" x="77" y="115.5625"/><text fill="#000000" font-family="sans-serif" font-size="13" font-weight="bold" lengthAdjust="spacing" textLength="21" x="92" y="128.6294">alt</text><text fill="#000000" font-family="sans-serif" font-size="11" font-weight="bold" lengthAdjust="spacing" textLength="97" x="158" y="127.7729">[Recipe exists]</text><polygon fill="#A80036" points="192.5,149.8281,182.5,153.8281,192.5,157.8281,188.5,153.8281" style="stroke:#A80036;stroke-width:1.0;"/><line style="stroke:#A80036;stroke-width:1.0;stroke-dasharray:2.0,2.0;" x1="186.5" x2="561.5" y1="153.8281" y2="153.8281"/><text fill="#000000" font-family="sans-serif" font-size="13" lengthAdjust="spacing" textLength="70" x="198.5" y="148.7622">return void</text><path d="M87,168.8281 L165,168.8281 L165,175.8281 L155,185.8281 L87,185.8281 L87,168.8281 " fill="#EEEEEE" style="stroke:#000000;stroke-width:1.0;"/><rect fill="none" height="133.6641" style="stroke:#000000;stroke-width:2.0;" width="536.5" x="87" y="168.8281"/><text fill="#000000" font-family="sans-serif" font-size="13" font-weight="bold" lengthAdjust="spacing" textLength="33" x="102" y="181.895">loop</text><text fill="#000000" font-family="sans-serif" font-size="11" font-weight="bold" lengthAdjust="spacing" textLength="219" x="180" y="181.0386">[for all Tags in parsedCommand]</text><polygon fill="#A80036" points="550.5,203.0938,560.5,207.0938,550.5,211.0938,554.5,207.0938" style="stroke:#A80036;stroke-width:1.0;"/><line style="stroke:#A80036;stroke-width:1.0;" x1="181.5" x2="556.5" y1="207.0938" y2="207.0938"/><text fill="#000000" font-family="sans-serif" font-size="13" lengthAdjust="spacing" textLength="133" x="188.5" y="202.0278">extractCookbookTag</text><polygon fill="#A80036" points="192.5,232.2266,182.5,236.2266,192.5,240.2266,188.5,236.2266" style="stroke:#A80036;stroke-width:1.0;"/><line style="stroke:#A80036;stroke-width:1.0;stroke-dasharray:2.0,2.0;" x1="186.5" x2="561.5" y1="236.2266" y2="236.2266"/><text fill="#000000" font-family="sans-serif" font-size="13" lengthAdjust="spacing" textLength="86" x="198.5" y="231.1606">extractedTag</text><polygon fill="#A80036" points="550.5,261.3594,560.5,265.3594,550.5,269.3594,554.5,265.3594" style="stroke:#A80036;stroke-width:1.0;"/><line style="stroke:#A80036;stroke-width:1.0;" x1="181.5" x2="556.5" y1="265.3594" y2="265.3594"/><text fill="#000000" font-family="sans-serif" font-size="13" lengthAdjust="spacing" textLength="318" x="188.5" y="260.2935">untagTagFromRecipe(extractedTag, recipeName)</text><polygon fill="#A80036" points="550.5,290.4922,560.5,294.4922,550.5,298.4922,554.5,294.4922" style="stroke:#A80036;stroke-width:1.0;"/><line style="stroke:#A80036;stroke-width:1.0;" x1="181.5" x2="556.5" y1="294.4922" y2="294.4922"/><text fill="#000000" font-family="sans-serif" font-size="13" lengthAdjust="spacing" textLength="357" x="188.5" y="289.4263">deleteRecipeFromCookbookTag(tagName, recipeName)</text><line style="stroke:#000000;stroke-width:1.0;stroke-dasharray:2.0,2.0;" x1="77" x2="855.5" y1="310.4922" y2="310.4922"/><text fill="#000000" font-family="sans-serif" font-size="11" font-weight="bold" lengthAdjust="spacing" textLength="154" x="82" y="320.7026">[Recipe does not ezist]</text><polygon fill="#A80036" points="756.5,341.4297,766.5,345.4297,756.5,349.4297,760.5,345.4297" style="stroke:#A80036;stroke-width:1.0;"/><line style="stroke:#A80036;stroke-width:1.0;" x1="572.5" x2="762.5" y1="345.4297" y2="345.4297"/><text fill="#000000" font-family="sans-serif" font-size="13" lengthAdjust="spacing" textLength="177" x="579.5" y="340.3638">throws(NO_RECIPE_FOUND)</text><!--MD5=[c863b16179fd5520512c29a518c0ebde]
@startuml
activate Parser
Parser -> TagUntagCommand: parsedCommand
deactivate Parser
activate TagUntagCommand

TagUntagCommand -> Cookbook: isRecipeExist
activate Cookbook

alt Recipe exists
TagUntagCommand <- - - Cookbook: return void

loop for all Tags in parsedCommand
TagUntagCommand -> Cookbook: extractCookbookTag
TagUntagCommand <- - Cookbook: extractedTag
TagUntagCommand -> Cookbook: untagTagFromRecipe(extractedTag, recipeName)
TagUntagCommand -> Cookbook: deleteRecipeFromCookbookTag(tagName, recipeName)
end


else Recipe does not ezist
Cookbook -> GordonException: throws(NO_RECIPE_FOUND)
activate GordonException
deactivate GordonException

end
@enduml

PlantUML version 1.2021.13beta8(Unknown compile time)
(GPL source distribution)
Java Runtime: Java(TM) SE Runtime Environment
JVM: Java HotSpot(TM) 64-Bit Server VM
Default Encoding: UTF-8
Language: en
Country: US
--></g></svg>